{
.appVersion = "3316";
.formatVersion = 3;
DisplayStrings = (
"ˉ",
"̧̨̛̣̮̱̊̃̄̉",
"₍₎⁽⁾«»′″ℓ℮℠₵₡₫€₲₤₦₧₱₹/cedi.case/colonsign.case/dong.case/euro.case/guarani.case/lira.case/naira.case/peseta.case/peso.case/rupeeIndian.case ∙∕Ω∆µ↑↗→↘↓↙←↖↔↕",
"ÁaáÁ̆aăĂẮẶẰẲẴǍÂẤẬẦẨẪÄẠÀẢĀĄÅÃaáăắặằẳẵǎâấậầẩẫäạàảɑɒāąåã",
"ĂẮẶẰẲẴĔĞḪĬŎŬăắặ̀à̆̀ằẳẵĕğḫĭŏŭ/abreve.ss02 ̆/abreveacute.ss02/abrevedotbelow.ss02/abrevegrave.ss02/abrevehookabove.ss02/a.ss02 ̆/abrevetilde.ss02/g.ss02/gbreve.ss02/idotless.ss02/ibreve.ss02",
"ÁẤĆÉẾIÍLĽĹÑÑŃÓỐƠỚRŔSŚÚ̈äUǗƯỨWẂYÝŹáấćéếílĺnńóốơớrŕsśuú̈ǘưứwẃyýź/aacute.ss02/a.ss02/acircumflexacute.ss02/iacute.ss02/l.ss02/lacute.ss02/r.ss02/racute.ss02",
"ẠĊĊḌĖẸĠḤİỊ·ĿLḶḸṂṄṆỌƠỢṚṜṠṢṬỤƯỰẎỴŻẒ/D.ss01/Ddotbelow.ss01 aạċ
dḍėẹġḥıịȷl·ŀḷḹṃṅṇọơợṛṝsṡṣtṭụưựẏyỵżẓ/adotbelow.ss02/gdotaccent.ss02/idotless.ss02/idotbelow.ss02/ldot.ss02/ldotbelow.ss02/ldotbelowmacron.ss02/rdotbelow.ss02/rdotbelowmacron.ss02/y.ss02/ydotbelow.ss02",
"GĢK̦ĶĻŅŖSȘ̦Ț̒gģķļņŗșț/gcommaaccent.ss02/lcommaaccent.ss02/r.ss02/rcommaaccent.ss02",
"ÄËÏÖÜ/dieresiscomb.case ǛẄŸaä̈ëïöẗüǜẅÿ/adieresis.ss02/idieresis.ss02/ydieresis.ss02",
"ÄËÏÖÜǗǙǛǕẄŸä̈ëïötẗü̈ǘǚǜǖẅÿ/adieresis.ss02/idotless.ss02/iacute.ss02/ibreve.ss02/icaron.ss02/icircumflex.ss02/idieresis.ss02/igrave.ss02/ihookabove.ss02/imacron.ss02/itilde.ss02/idieresis.ss02/ydieresis.ss02",
"/dieresiscomb.case AÄËÏÖÜ/dieresiscomb.case ́Ǘ̌Ǚ̀/dieresiscomb.case Ǜ̄ǕẄŸǗǙǛǕ",
"/registered.case"
);
customParameters = (
{
name = glyphOrder;
value = (
.notdef,
NULL,
CR,
space,
nbspace
);
},
{
name = fsType;
value = (
);
},
{
name = "Use Typo Metrics";
value = 1;
},
{
name = "Enforce Compatibility Check";
value = 1;
}
);
date = "2024-08-23 01:32:27 +0000";
familyName = "Space Mono";
featurePrefixes = (
{
automatic = 1;
code = "languagesystem DFLT dflt;

languagesystem latn dflt;
languagesystem latn ROM;
languagesystem latn MOL;
languagesystem latn CAT;
";
name = Languagesystems;
}
);
features = (
{
automatic = 1;
code = "feature locl;
feature subs;
feature sinf;
feature sups;
feature dnom;

glyphs = (
{
glyphname = .notdef;
lastChange = "2024-08-29 00:26:08 +0000";
layers = (
{
background = {
shapes = (
{
closed = 1;
nodes = (
(539,0,l),
(539,700,l),
(73,700,l),
(73,0,l)
);
},
{
closed = 1;
nodes = (
(123,648,l),
(489,648,l),
(489,52,l),
(123,52,l)
);
},
{
closed = 1;
nodes = (
(312,371,l),
(302,371,l),
(230,530,l),
(178,530,l),
(263,347,l),
(263,338,l),
(171,146,l),
(224,146,l),
(302,315,l),
(312,315,l),
(390,146,l),
(443,146,l),
(351,338,l),
(351,347,l),
(436,530,l),
(384,530,l)
);
}
);
};
layerId = "F786B9CF-2625-4E74-A523-7F1B392BEC63";
shapes = (
{
closed = 1;
nodes = (
(539,0,l),
(539,700,l),
(73,700,l),
(73,0,l)
);
},
{
closed = 1;
nodes = (
(123,648,l),
(489,648,l),
(489,52,l),
(123,52,l)
);
},
{
closed = 1;
nodes = (
(312,371,l),
(302,371,l),
(230,530,l),
(178,530,l),
(263,347,l),
(263,338,l),
(171,146,l),
(224,146,l),
(302,315,l),
(312,315,l),
(390,146,l),
(443,146,l),
(351,338,l),
(351,347,l),
(436,530,l),
(384,530,l)
);
}
);
width = 612;
}
);
},
{
glyphname = A;
lastChange = "2024-08-29 00:27:11 +0000";
layers = (
{
anchors = (
{
name = bottom;
pos = (306,0);
},
{
name = ogonek;
pos = (551,10);
},
{
name = top;
pos = (306,700);
}
);
background = {
shapes = (
{
closed = 1;
nodes = (
(507,0,l),
(597,0,l),
(385,700,l),
(227,700,l),
(15,0,l),
(105,0,l),
(156,174,l),
(456,174,l)
);
},
{
closed = 1;
nodes = (
(312,664,l),
(433,252,l),
(179,252,l),
(300,664,l)
);
}
);
};
layerId = "F786B9CF-2625-4E74-A523-7F1B392BEC63";
shapes = (
{
closed = 1;
nodes = (
(105,0,l),
(156,174,l),
(456,174,l),
(507,0,l),
(597,0,l),
(385,700,l),
(227,700,l),
(15,0,l)
);
},
{
closed = 1;
nodes = (
(300,664,l),
(312,664,l),
(433,252,l),
(179,252,l)
);
}
);
width = 612;
}
);
unicode = 65;
},
{
color = 4;
glyphname = Aacute;
lastChange = "2024-08-29 02:02:39 +0000";
layers = (
{
background = {
shapes = (
{
closed = 1;
nodes = (
(507,0,l),
(597,0,l),
(385,700,l),
(227,700,l),
(15,0,l),
(105,0,l),
(156,174,l),
(456,174,l)
);
},
{
closed = 1;
nodes = (
(312,664,l),
(433,252,l),
(179,252,l),
(300,664,l)
);
},
{
closed = 1;
nodes = (
(341,892,l),
(275,774,l),
(347,774,l),
(431,892,l)
);
}
);
};
layerId = "F786B9CF-2625-4E74-A523-7F1B392BEC63";
shapes = (
{
ref = A;
},
{
pos = (227,204);
ref = acutecomb;
}
);
width = 612;
}
);
unicode = 193;
},
{
color = 4;
glyphname = Abreve;
lastChange = "2024-08-29 01:45:04 +0000";
layers = (
{
associatedMasterId = "F786B9CF-2625-4E74-A523-7F1B392BEC63";
layerId = "60B433FB-7962-4D91-9D7B-25075E58E57A";
name = img;
width = 612;
},
{
background = {
shapes = (
{
closed = 1;
nodes = (
(507,0,l),
(597,0,l),
(385,700,l),
(227,700,l),
(15,0,l),
(105,0,l),
(156,174,l),
(456,174,l)
);
},
{
closed = 1;
nodes = (
(312,664,l),
(433,252,l),
(179,252,l),
(300,664,l)
);
},
{
closed = 1;
nodes = (
(345,892,l),
(345,880,l),
(345,859,o),
(331,841,o),
(306,841,cs),
(281,841,o),
(267,859,o),
(267,880,c),
(267,892,l),
(198,892,l),
(198,882,l),
(198,818,o),
(240,774,o),
(306,774,cs),
(372,774,o),
(414,818,o),
(414,882,c),
(414,892,l)
);
}
);
};
guides = (
{
pos = (0,778);
},
{
pos = (0,774);
}
);
layerId = "F786B9CF-2625-4E74-A523-7F1B392BEC63";
shapes = (
{
ref = A;
},
{
pos = (148,204);
ref = brevecomb;
}
);
width = 612;
}
);
unicode = 258;
},
{
color = 4;
glyphname = Abreveacute;
lastChange = "2024-08-29 01:45:04 +0000";
layers = (
{
background = {
shapes = (
{
closed = 1;
nodes = (
(507,0,l),
(597,0,l),
(385,700,l),
(227,700,l),
(15,0,l),
(105,0,l),
(156,174,l),
(456,174,l)
);
},
{
closed = 1;
nodes = (
(312,664,l),
(433,252,l),
(179,252,l),
(300,664,l)
);
},
{
closed = 1;
nodes = (
(345,848,l),
(345,836,l),
(345,815,o),
(331,797,o),
(306,797,cs),
(281,797,o),
(267,815,o),
(267,836,c),
(267,848,l),
(198,848,l),
(198,838,l),
(198,774,o),
(240,730,o),
(306,730,cs),
(372,730,o),
(414,774,o),
(414,838,c),
(414,848,l)
);
},
{
closed = 1;
nodes = (
(336,996,l),
(270,878,l),
(342,878,l),
(426,996,l)
);
}
);
};
guides = (
{
pos = (0,774);
},
{
angle = 90;
pos = (267,0);
},
{
angle = 90;
pos = (345,0);
}
);
layerId = "F786B9CF-2625-4E74-A523-7F1B392BEC63";
shapes = (
{
ref = A;
},
{
pos = (148,204);
ref = brevecomb;
},
{
pos = (231,371);
ref = acutecomb;
}
);
width = 612;
}
);
unicode = 7854;
},
{
color = 4;
glyphname = Abrevedotbelow;
lastChange = "2024-08-29 01:45:04 +0000";
layers = (
{
background = {
shapes = (
{
closed = 1;
nodes = (
(507,0,l),
(597,0,l),
(385,700,l),
(227,700,l),
(15,0,l),
(105,0,l),
(156,174,l),
(456,174,l)
);
},
{
closed = 1;
nodes = (
(312,664,l),
(433,252,l),
(179,252,l),
(300,664,l)
);
},
{
closed = 1;
nodes = (
(345,892,l),
(345,880,l),
(345,859,o),
(331,841,o),
(306,841,cs),
(281,841,o),
(267,859,o),
(267,880,c),
(267,892,l),
(198,892,l),
(198,882,l),
(198,818,o),
(240,774,o),
(306,774,cs),
(372,774,o),
(414,818,o),
(414,882,c),
(414,892,l)
);
},
{
closed = 1;
nodes = (
(236,-172,o),
(268,-204,o),
(306,-204,cs),
(344,-204,o),
(376,-172,o),
(376,-134,cs),
(376,-96,o),
(344,-64,o),
(306,-64,cs),
(268,-64,o),
(236,-96,o),
(236,-134,cs)
);
}
);
};
guides = (
{
pos = (0,774);
}
);
layerId = "F786B9CF-2625-4E74-A523-7F1B392BEC63";
shapes = (
{
ref = A;
},
{
ref = dotbelowcomb;
},
{
pos = (148,204);
ref = brevecomb;
}
);
width = 612;
}
);
unicode = 7862;
},
{
color = 4;
glyphname = Abrevegrave;
lastChange = "2024-08-29 01:45:04 +0000";
layers = (
{
background = {
shapes = (
{
closed = 1;
nodes = (
(507,0,l),
(597,0,l),
(385,700,l),
(227,700,l),
(15,0,l),
(105,0,l),
(156,174,l),
(456,174,l)
);
},
{
closed = 1;
nodes = (
(312,664,l),
(433,252,l),
(179,252,l),
(300,664,l)
);
},
{
closed = 1;
nodes = (
(345,848,l),
(345,836,l),
(345,815,o),
(331,797,o),
(306,797,cs),
(281,797,o),
(267,815,o),
(267,836,c),
(267,848,l),
(198,848,l),
(198,838,l),
(198,774,o),
(240,730,o),
(306,730,cs),
(372,730,o),
(414,774,o),
(414,838,c),
(414,848,l)
);
},
{
closed = 1;
nodes = (
(186,996,l),
(270,878,l),
(342,878,l),
(276,996,l)
);
}
);
};
layerId = "F786B9CF-2625-4E74-A523-7F1B392BEC63";
shapes = (
{
ref = A;
},
{
pos = (148,204);
ref = brevecomb;
},
{
pos = (142,371);
ref = gravecomb;
}
);
width = 612;
}
);
unicode = 7856;
},
{
color = 4;
glyphname = Abrevehookabove;
lastChange = "2024-08-29 01:45:04 +0000";
layers = (
{
background = {
shapes = (
{
closed = 1;
nodes = (
(507,0,l),
(597,0,l),
(385,700,l),
(227,700,l),
(15,0,l),
(105,0,l),
(156,174,l),
(456,174,l)
);
},
{
closed = 1;
nodes = (
(312,664,l),
(433,252,l),
(179,252,l),
(300,664,l)
);
},
{
closed = 1;
nodes = (
(345,848,l),
(345,836,l),
(345,815,o),
(331,797,o),
(306,797,cs),
(281,797,o),
(267,815,o),
(267,836,c),
(267,848,l),
(198,848,l),
(198,838,l),
(198,774,o),
(240,730,o),
(306,730,cs),
(372,730,o),
(414,774,o),
(414,838,c),
(414,848,l)
);
},
{
closed = 1;
nodes = (
(315,946,l),
(321,946,l),
(329,926,o),
(347,914,o),
(375,914,cs),
(421,914,o),
(451,953,o),
(451,999,cs),
(451,1054,o),
(410,1090,o),
(358,1090,cs),
(301,1090,o),
(271,1060,o),
(261,1020,c),
(309,1002,l),
(313,1022,o),
(328,1042,o),
(357,1042,cs),
(377,1042,o),
(397,1029,o),
(397,1000,cs),
(397,976,o),
(381,962,o),
(362,962,cs),
(350,962,o),
(341,968,o),
(337,976,c),
(261,976,l),
(261,970,l),
(281,878,l),
(330,878,l)
);
}
);
};
guides = (
{
angle = 90;
pos = (267,0);
},
{
angle = 90;
pos = (345,0);
}
);
layerId = "F786B9CF-2625-4E74-A523-7F1B392BEC63";
shapes = (
{
ref = A;
},
{
pos = (148,204);
ref = brevecomb;
},
{
pos = (45,371);
ref = hookabovecomb;
}
);
width = 612;
}
);
unicode = 7858;
},
{
color = 4;
glyphname = Abrevetilde;
lastChange = "2024-08-29 01:45:04 +0000";
layers = (
{
background = {
shapes = (
{
closed = 1;
nodes = (
(507,0,l),
(597,0,l),
(385,700,l),
(227,700,l),
(15,0,l),
(105,0,l),
(156,174,l),
(456,174,l)
);
},
{
closed = 1;
nodes = (
(312,664,l),
(433,252,l),
(179,252,l),
(300,664,l)
);
},
{
closed = 1;
nodes = (
(345,848,l),
(345,836,l),
(345,815,o),
(331,797,o),
(306,797,cs),
(281,797,o),
(267,815,o),
(267,836,c),
(267,848,l),
(198,848,l),
(198,838,l),
(198,774,o),
(240,730,o),
(306,730,cs),
(372,730,o),
(414,774,o),
(414,838,c),
(414,848,l)
);
},
{
closed = 1;
nodes = (
(313,1009,o),
(295,1027,o),
(256,1027,cs),
(220,1027,o),
(196,1008,o),
(177,985,cs),
(136,936,l),
(185,894,l),
(231,947,ls),
(239,956,o),
(245,959,o),
(253,959,cs),
(264,959,o),
(268,953,o),
(277,937,cs),
(299,896,o),
(317,878,o),
(358,878,cs),
(393,878,o),
(417,897,o),
(436,920,cs),
(477,969,l),
(428,1011,l),
(380,956,ls),
(374,949,o),
(368,946,o),
(361,946,cs),
(349,946,o),
(344,953,o),
(337,966,cs)
);
}
);
};
layerId = "F786B9CF-2625-4E74-A523-7F1B392BEC63";
shapes = (
{
ref = A;
},
{
pos = (148,204);
ref = brevecomb;
},
{
pos = (89,371);
ref = tildecomb;
}
);
width = 612;
}
);
unicode = 7860;
},
{
color = 4;
glyphname = Acaron;
lastChange = "2024-08-29 02:16:24 +0000";
layers = (
{
background = {
shapes = (
{
closed = 1;
nodes = (
(507,0,l),
(597,0,l),
(385,700,l),
(227,700,l),
(15,0,l),
(105,0,l),
(156,174,l),
(456,174,l)
);
},
{
closed = 1;
nodes = (
(312,664,l),
(433,252,l),
(179,252,l),
(300,664,l)
);
},
{
closed = 1;
nodes = (
(364,892,l),
(312,804,l),
(300,804,l),
(248,892,l),
(164,892,l),
(244,774,l),
(368,774,l),
(448,892,l)
);
}
);
};
guides = (
{
pos = (0,774);
}
);
layerId = "F786B9CF-2625-4E74-A523-7F1B392BEC63";
shapes = (
{
ref = A;
},
{
pos = (0,204);
ref = caroncomb;
}
);
width = 612;
}
);
unicode = 461;
},
{
color = 4;
glyphname = Acircumflex;
lastChange = "2024-08-29 02:31:04 +0000";
layers = (
{
background = {
shapes = (
{
closed = 1;
nodes = (
(507,0,l),
(597,0,l),
(385,700,l),
(227,700,l),
(15,0,l),
(105,0,l),
(156,174,l),
(456,174,l)
);
},
{
closed = 1;
nodes = (
(312,664,l),
(433,252,l),
(179,252,l),
(300,664,l)
);
},
{
closed = 1;
nodes = (
(448,774,l),
(368,892,l),
(244,892,l),
(164,774,l),
(248,774,l),
(300,862,l),
(312,862,l),
(364,774,l)
);
}
);
};
layerId = "F786B9CF-2625-4E74-A523-7F1B392BEC63";
shapes = (
{
ref = A;
},
{
pos = (0,204);
ref = circumflexcomb;
}
);
width = 612;
}
);
unicode = 194;
},
{
color = 4;
glyphname = Acircumflexacute;
lastChange = "2024-08-29 02:19:06 +0000";
layers = (
{
background = {
shapes = (
{
closed = 1;
nodes = (
(507,0,l),
(597,0,l),
(385,700,l),
(227,700,l),
(15,0,l),
(105,0,l),
(156,174,l),
(456,174,l)
);
},
{
closed = 1;
nodes = (
(312,664,l),
(433,252,l),
(179,252,l),
(300,664,l)
);
},
{
closed = 1;
nodes = (
(490,980,l),
(424,862,l),
(496,862,l),
(580,980,l)
);
},
{
closed = 1;
nodes = (
(448,774,l),
(368,892,l),
(244,892,l),
(164,774,l),
(248,774,l),
(300,862,l),
(312,862,l),
(364,774,l)
);
}
);
};
guides = (
{
pos = (0,770);
},
{
pos = (0,862);
},
{
angle = 90;
pos = (364,0);
},
{
angle = 90;
pos = (448,0);
},
{
angle = 90;
pos = (388,0);
}
);
layerId = "F786B9CF-2625-4E74-A523-7F1B392BEC63";
shapes = (
{
ref = A;
},
{
pos = (0,204);
ref = circumflexcomb;
},
{
anchor = topviet;
pos = (376,292);
ref = acutecomb;
}
);
width = 612;
}
);
unicode = 7844;
},
{
color = 4;
glyphname = Acircumflexdotbelow;
lastChange = "2024-08-29 02:31:04 +0000";
layers = (
{
background = {
shapes = (
{
closed = 1;
nodes = (
(507,0,l),
(597,0,l),
(385,700,l),
(227,700,l),
(15,0,l),
(105,0,l),
(156,174,l),
(456,174,l)
);
},
{
closed = 1;
nodes = (
(312,664,l),
(433,252,l),
(179,252,l),
(300,664,l)
);
},
{
closed = 1;
nodes = (
(448,774,l),
(368,892,l),
(244,892,l),
(164,774,l),
(248,774,l),
(300,862,l),
(312,862,l),
(364,774,l)
);
},
{
closed = 1;
nodes = (
(236,-172,o),
(268,-204,o),
(306,-204,cs),
(344,-204,o),
(376,-172,o),
(376,-134,cs),
(376,-96,o),
(344,-64,o),
(306,-64,cs),
(268,-64,o),
(236,-96,o),
(236,-134,cs)
);
}
);
};
guides = (
{
pos = (0,-64);
}
);
layerId = "F786B9CF-2625-4E74-A523-7F1B392BEC63";
shapes = (
{
ref = A;
},
{
ref = dotbelowcomb;
},
{
pos = (0,204);
ref = circumflexcomb;
}
);
width = 612;
}
);
unicode = 7852;
},
{
color = 4;
glyphname = Acircumflexgrave;
lastChange = "2024-08-29 02:31:04 +0000";
layers = (
{
background = {
shapes = (
{
closed = 1;
nodes = (
(507,0,l),
(597,0,l),
(385,700,l),
(227,700,l),
(15,0,l),
(105,0,l),
(156,174,l),
(456,174,l)
);
},
{
closed = 1;
nodes = (
(312,664,l),
(433,252,l),
(179,252,l),
(300,664,l)
);
},
{
closed = 1;
nodes = (
(448,774,l),
(368,892,l),
(244,892,l),
(164,774,l),
(248,774,l),
(300,862,l),
(312,862,l),
(364,774,l)
);
},
{
closed = 1;
nodes = (
(32,980,l),
(116,862,l),
(188,862,l),
(122,980,l)
);
}
);
};
guides = (
{
pos = (0,858);
},
{
angle = 90;
pos = (306,0);
},
{
angle = 90;
pos = (224,0);
}
);
layerId = "F786B9CF-2625-4E74-A523-7F1B392BEC63";
shapes = (
{
ref = A;
},
{
pos = (0,204);
ref = circumflexcomb;
},
{
anchor = topviet;
pos = (-16,292);
ref = gravecomb;
}
);
width = 612;
}
);
unicode = 7846;
},
{
color = 4;
glyphname = Acircumflexhookabove;
lastChange = "2024-08-29 02:31:04 +0000";
layers = (
{
background = {
shapes = (
{
closed = 1;
nodes = (
(424,858,l),
(404,950,l),
(404,956,l),
(480,956,l),
(484,948,o),
(493,942,o),
(505,942,cs),
(524,942,o),
(540,956,o),
(540,980,cs),
(540,1009,o),
(520,1022,o),
(500,1022,cs),
(471,1022,o),
(456,1002,o),
(452,982,c),
(404,1000,l),
(414,1040,o),
(444,1070,o),
(501,1070,cs),
(553,1070,o),
(594,1034,o),
(594,979,cs),
(594,933,o),
(564,894,o),
(518,894,cs),
(490,894,o),
(472,906,o),
(464,926,c),
(458,926,l),
(473,858,l)
);
},
{
closed = 1;
nodes = (
(507,0,l),
(597,0,l),
(385,700,l),
(227,700,l),
(15,0,l),
(105,0,l),
(156,174,l),
(456,174,l)
);
},
{
closed = 1;
nodes = (
(312,664,l),
(433,252,l),
(179,252,l),
(300,664,l)
);
},
{
closed = 1;
nodes = (
(448,774,l),
(368,892,l),
(244,892,l),
(164,774,l),
(248,774,l),
(300,862,l),
(312,862,l),
(364,774,l)
);
}
);
};
guides = (
{
pos = (0,770);
},
{
pos = (0,858);
},
{
angle = 90;
pos = (388,0);
},
{
angle = 90;
pos = (368,0);
},
{
angle = 90;
pos = (364,0);
},
{
angle = 90;
pos = (448,0);
}
);
layerId = "F786B9CF-2625-4E74-A523-7F1B392BEC63";
shapes = (
{
ref = A;
},
{
pos = (0,204);
ref = circumflexcomb;
},
{
anchor = topviet;
pos = (194,312);
ref = hookabovecomb;
}
);
width = 612;
}
);
unicode = 7848;
},
{
color = 4;
glyphname = Acircumflextilde;
lastChange = "2024-08-29 02:31:04 +0000";
layers = (
{
background = {
shapes = (
{
closed = 1;
nodes = (
(507,0,l),
(597,0,l),
(385,700,l),
(227,700,l),
(15,0,l),
(105,0,l),
(156,174,l),
(456,174,l)
);
},
{
closed = 1;
nodes = (
(312,664,l),
(433,252,l),
(179,252,l),
(300,664,l)
);
},
{
closed = 1;
nodes = (
(448,730,l),
(368,848,l),
(244,848,l),
(164,730,l),
(248,730,l),
(300,818,l),
(312,818,l),
(364,730,l)
);
},
{
closed = 1;
nodes = (
(313,1009,o),
(295,1027,o),
(256,1027,cs),
(220,1027,o),
(196,1008,o),
(177,985,cs),
(136,936,l),
(185,894,l),
(231,947,ls),
(239,956,o),
(245,959,o),
(253,959,cs),
(264,959,o),
(268,953,o),
(277,937,cs),
(299,896,o),
(317,878,o),
(358,878,cs),
(393,878,o),
(417,897,o),
(436,920,cs),
(477,969,l),
(428,1011,l),
(380,956,ls),
(374,949,o),
(368,946,o),
(361,946,cs),
(349,946,o),
(344,953,o),
(337,966,cs)
);
}
);
};
layerId = "F786B9CF-2625-4E74-A523-7F1B392BEC63";
shapes = (
{
ref = A;
},
{
alignment = -1;
pos = (0,160);
ref = circumflexcomb;
},
{
pos = (89,322);
ref = tildecomb;
}
);
width = 612;
}
);
unicode = 7850;
},
{
color = 4;
glyphname = Adieresis;
lastChange = "2024-08-29 02:59:17 +0000";
layers = (
{
background = {
shapes = (
{
closed = 1;
nodes = (
(507,0,l),
(597,0,l),
(385,700,l),
(227,700,l),
(15,0,l),
(105,0,l),
(156,174,l),
(456,174,l)
);
},
{
closed = 1;
nodes = (
(312,664,l),
(433,252,l),
(179,252,l),
(300,664,l)
);
},
{
closed = 1;
nodes = (
(136,810,o),
(168,778,o),
(206,778,cs),
(244,778,o),
(276,810,o),
(276,848,cs),
(276,886,o),
(244,918,o),
(206,918,cs),
(168,918,o),
(136,886,o),
(136,848,cs)
);
},
{
closed = 1;
nodes = (
(336,810,o),
(368,778,o),
(406,778,cs),
(444,778,o),
(476,810,o),
(476,848,cs),
(476,886,o),
(444,918,o),
(406,918,cs),
(368,918,o),
(336,886,o),
(336,848,cs)
);
}
);
};
guides = (
{
pos = (0,774);
}
);
layerId = "F786B9CF-2625-4E74-A523-7F1B392BEC63";
shapes = (
{
ref = A;
},
{
pos = (86,0);
ref = dieresiscomb.case;
}
);
width = 612;
}
);
unicode = 196;
},
{
color = 4;
glyphname = Adotbelow;
lastChange = "2024-08-29 02:44:02 +0000";
layers = (
{
background = {
shapes = (
{
closed = 1;
nodes = (
(507,0,l),
(597,0,l),
(385,700,l),
(227,700,l),
(15,0,l),
(105,0,l),
(156,174,l),
(456,174,l)
);
},
{
closed = 1;
nodes = (
(312,664,l),
(433,252,l),
(179,252,l),
(300,664,l)
);
},
{
closed = 1;
nodes = (
(236,-172,o),
(268,-204,o),
(306,-204,cs),
(344,-204,o),
(376,-172,o),
(376,-134,cs),
(376,-96,o),
(344,-64,o),
(306,-64,cs),
(268,-64,o),
(236,-96,o),
(236,-134,cs)
);
}
);
};
guides = (
{
pos = (0,-64);
}
);
layerId = "F786B9CF-2625-4E74-A523-7F1B392BEC63";
shapes = (
{
ref = A;
},
{
ref = dotbelowcomb;
}
);
width = 612;
}
);
unicode = 7840;
},
{
color = 4;
glyphname = Agrave;
lastChange = "2024-08-29 03:04:57 +0000";
layers = (
{
background = {
shapes = (
{
closed = 1;
nodes = (
(507,0,l),
(597,0,l),
(385,700,l),
(227,700,l),
(15,0,l),
(105,0,l),
(156,174,l),
(456,174,l)
);
},
{
closed = 1;
nodes = (
(312,664,l),
(433,252,l),
(179,252,l),
(300,664,l)
);
},
{
closed = 1;
nodes = (
(180,892,l),
(264,774,l),
(336,774,l),
(270,892,l)
);
}
);
};
guides = (
{
pos = (0,774);
}
);
layerId = "F786B9CF-2625-4E74-A523-7F1B392BEC63";
shapes = (
{
ref = A;
},
{
pos = (138,204);
ref = gravecomb;
}
);
width = 612;
}
);
unicode = 192;
},
{
color = 4;
glyphname = Ahookabove;
lastChange = "2024-08-29 01:24:20 +0000";
layers = (
{
background = {
shapes = (
{
closed = 1;
nodes = (
(272,750,l),
(252,842,l),
(252,848,l),
(328,848,l),
(332,840,o),
(341,834,o),
(353,834,cs),
(372,834,o),
(388,848,o),
(388,872,cs),
(388,901,o),
(368,914,o),
(348,914,cs),
(319,914,o),
(304,894,o),
(300,874,c),
(252,892,l),
(262,932,o),
(292,962,o),
(349,962,cs),
(401,962,o),
(442,926,o),
(442,871,cs),
(442,825,o),
(412,786,o),
(366,786,cs),
(338,786,o),
(320,798,o),
(312,818,c),
(306,818,l),
(321,750,l)
);
},
{
closed = 1;
nodes = (
(507,0,l),
(597,0,l),
(385,700,l),
(227,700,l),
(15,0,l),
(105,0,l),
(156,174,l),
(456,174,l)
);
},
{
closed = 1;
nodes = (
(312,664,l),
(433,252,l),
(179,252,l),
(300,664,l)
);
}
);
};
guides = (
{
pos = (0,774);
},
{
angle = 90;
pos = (306,0);
}
);
layerId = "F786B9CF-2625-4E74-A523-7F1B392BEC63";
shapes = (
{
ref = A;
},
{
pos = (41,204);
ref = hookabovecomb;
}
);
width = 612;
}
);
unicode = 7842;
},
{
color = 4;
glyphname = Amacron;
lastChange = "2024-08-29 02:47:14 +0000";
layers = (
{
associatedMasterId = "F786B9CF-2625-4E74-A523-7F1B392BEC63";
layerId = "60B433FB-7962-4D91-9D7B-25075E58E57A";
name = img;
width = 612;
},
{
background = {
shapes = (
{
closed = 1;
nodes = (
(507,0,l),
(597,0,l),
(385,700,l),
(227,700,l),
(15,0,l),
(105,0,l),
(156,174,l),
(456,174,l)
);
},
{
closed = 1;
nodes = (
(312,664,l),
(433,252,l),
(179,252,l),
(300,664,l)
);
},
{
closed = 1;
nodes = (
(447,774,l),
(447,840,l),
(165,840,l),
(165,774,l)
);
}
);
};
guides = (
{
pos = (0,778);
},
{
pos = (0,844);
},
{
pos = (0,774);
}
);
layerId = "F786B9CF-2625-4E74-A523-7F1B392BEC63";
shapes = (
{
ref = A;
},
{
pos = (115,204);
ref = macroncomb;
}
);
width = 612;
}
);
unicode = 256;
},
{
color = 3;
glyphname = Aogonek;
lastChange = "2024-08-29 03:02:39 +0000";
layers = (
{
associatedMasterId = "F786B9CF-2625-4E74-A523-7F1B392BEC63";
layerId = "60B433FB-7962-4D91-9D7B-25075E58E57A";
name = img;
width = 612;
},
{
background = {
shapes = (
{
closed = 1;
nodes = (
(507,0,l),
(493,-66,ls),
(491,-76,o),
(490,-83,o),
(490,-90,cs),
(490,-139,o),
(529,-164,o),
(568,-164,cs),
(624,-164,l),
(624,-98,l),
(582,-98,ls),
(568,-98,o),
(559,-90,o),
(559,-76,cs),
(559,-75,o),
(559,-73,o),
(560,-68,cs),
(576,0,l),
(597,0,l),
(385,700,l),
(227,700,l),
(15,0,l),
(105,0,l),
(156,174,l),
(456,174,l)
);
},
{
closed = 1;
nodes = (
(312,664,l),
(433,252,l),
(179,252,l),
(300,664,l)
);
}
);
};
layerId = "F786B9CF-2625-4E74-A523-7F1B392BEC63";
shapes = (
{
closed = 1;
nodes = (
(624,-164,l),
(624,-98,l),
(582,-98,ls),
(568,-98,o),
(559,-90,o),
(559,-76,cs),
(559,-75,o),
(559,-73,o),
(560,-68,cs),
(576,0,l),
(597,0,l),
(385,700,l),
(227,700,l),
(15,0,l),
(105,0,l),
(156,174,l),
(456,174,l),
(507,0,l),
(493,-66,ls),
(491,-76,o),
(490,-83,o),
(490,-90,cs),
(490,-139,o),
(529,-164,o),
(568,-164,cs)
);
},
{
closed = 1;
nodes = (
(300,664,l),
(312,664,l),
(433,252,l),
(179,252,l)
);
}
);
width = 612;
}
);
unicode = 260;
},
{
color = 4;
glyphname = Aring;
lastChange = "2024-08-29 03:21:57 +0000";
layers = (
{
background = {
shapes = (
{
closed = 1;
nodes = (
(507,0,l),
(597,0,l),
(385,700,l),
(227,700,l),
(15,0,l),
(105,0,l),
(156,174,l),
(456,174,l)
);
},
{
closed = 1;
nodes = (
(312,664,l),
(433,252,l),
(179,252,l),
(300,664,l)
);
},
{
closed = 1;
nodes = (
(204,817,o),
(249,772,o),
(306,772,cs),
(363,772,o),
(408,817,o),
(408,874,cs),
(408,931,o),
(363,976,o),
(306,976,cs),
(249,976,o),
(204,931,o),
(204,874,cs)
);
},
{
closed = 1;
nodes = (
(264,898,o),
(282,916,o),
(306,916,cs),
(330,916,o),
(348,898,o),
(348,874,cs),
(348,850,o),
(330,832,o),
(306,832,cs),
(282,832,o),
(264,850,o),
(264,874,cs)
);
}
);
};
guides = (
{
pos = (0,748);
}
);
layerId = "F786B9CF-2625-4E74-A523-7F1B392BEC63";
shapes = (
{
ref = A;
},
{
pos = (0,204);
ref = ringcomb;
}
);
width = 612;
}
);
unicode = 197;
},
{
color = 4;
glyphname = Atilde;
lastChange = "2024-08-29 03:20:44 +0000";
layers = (
{
background = {
shapes = (
{
closed = 1;
nodes = (
(507,0,l),
(597,0,l),
(385,700,l),
(227,700,l),
(15,0,l),
(105,0,l),
(156,174,l),
(456,174,l)
);
},
{
closed = 1;
nodes = (
(312,664,l),
(433,252,l),
(179,252,l),
(300,664,l)
);
},
{
closed = 1;
nodes = (
(313,889,o),
(295,907,o),
(256,907,cs),
(220,907,o),
(196,888,o),
(177,865,cs),
(136,816,l),
(185,774,l),
(231,827,ls),
(239,836,o),
(245,839,o),
(253,839,cs),
(264,839,o),
(268,833,o),
(277,817,cs),
(299,776,o),
(317,758,o),
(358,758,cs),
(393,758,o),
(417,777,o),
(436,800,cs),
(477,849,l),
(428,891,l),
(380,836,ls),
(374,829,o),
(368,826,o),
(361,826,cs),
(349,826,o),
(344,833,o),
(337,846,cs)
);
}
);
};
guides = (
{
pos = (0,774);
},
{
angle = 90;
pos = (306,0);
}
);
layerId = "F786B9CF-2625-4E74-A523-7F1B392BEC63";
shapes = (
{
ref = A;
},
{
pos = (85,204);
ref = tildecomb;
}
);
width = 612;
}
);
unicode = 195;
},
{
glyphname = AE;
lastChange = "2024-08-29 00:25:29 +0000";
layers = (
{
background = {
shapes = (
{
closed = 1;
nodes = (
(300,0,l),
(546,0,l),
(546,78,l),
(384,78,l),
(384,312,l),
(534,312,l),
(534,390,l),
(384,390,l),
(384,622,l),
(540,622,l),
(540,700,l),
(227,700,l),
(15,0,l),
(105,0,l),
(156,174,l),
(300,174,l)
);
},
{
closed = 1;
nodes = (
(288,622,l),
(300,622,l),
(300,252,l),
(179,252,l)
);
}
);
};
guides = (
{
pos = (0,622);
}
);
layerId = "F786B9CF-2625-4E74-A523-7F1B392BEC63";
shapes = (
{
closed = 1;
nodes = (
(300,0,l),
(546,0,l),
(546,78,l),
(384,78,l),
(384,312,l),
(534,312,l),
(534,390,l),
(384,390,l),
(384,622,l),
(540,622,l),
(540,700,l),
(227,700,l),
(15,0,l),
(105,0,l),
(156,174,l),
(300,174,l)
);
},
{
closed = 1;
nodes = (
(288,622,l),
(300,622,l),
(300,252,l),
(179,252,l)
);
}
);
width = 612;
}
);
unicode = 198;
},
{
glyphname = B;
lastChange = "2024-08-29 00:27:07 +0000";
layers = (
{
background = {
shapes = (
{
closed = 1;
nodes = (
(57,0,l),
(340,0,ls),
(474,0,o),
(547,78,o),
(547,183,cs),
(547,195,ls),
(547,270,o),
(495,327,o),
(429,345,c),
(429,357,l),
(495,375,o),
(547,430,o),
(547,506,cs),
(547,518,ls),
(547,622,o),
(474,700,o),
(340,700,cs),
(57,700,l),
(57,622,l),
(117,622,l),
(117,78,l),
(57,78,l)
);
},
{
closed = 1;
nodes = (
(201,312,l),
(337,312,ls),
(417,312,o),
(467,266,o),
(467,195,cs),
(467,189,ls),
(467,120,o),
(412,78,o),
(334,78,cs),
(201,78,l)
);
},
{
closed = 1;
nodes = (
(201,622,l),
(334,622,ls),
(412,622,o),
(467,580,o),
(467,512,cs),
(467,506,ls),
(467,434,o),
(417,390,o),
(337,390,cs),
(201,390,l)
);
}
);
};
guides = (
{
pos = (0,350);
},
{
pos = (0,506);
},
{
pos = (0,195);
}
);
layerId = "F786B9CF-2625-4E74-A523-7F1B392BEC63";
shapes = (
{
closed = 1;
nodes = (
(340,0,ls),
(474,0,o),
(547,78,o),
(547,183,cs),
(547,195,ls),
(547,270,o),
(495,327,o),
(429,345,c),
(429,357,l),
(495,375,o),
(547,430,o),
(547,506,cs),
(547,518,ls),
(547,622,o),
(474,700,o),
(340,700,cs),
(57,700,l),
(57,622,l),
(117,622,l),
(117,78,l),
(57,78,l),
(57,0,l)
);
},
{
closed = 1;
nodes = (
(201,312,l),
(337,312,ls),
(417,312,o),
(467,266,o),
(467,195,cs),
(467,189,ls),
(467,120,o),
(412,78,o),
(334,78,cs),
(201,78,l)
);
},
{
closed = 1;
nodes = (
(201,622,l),
(334,622,ls),
(412,622,o),
(467,580,o),
(467,512,cs),
(467,506,ls),
(467,434,o),
(417,390,o),
(337,390,cs),
(201,390,l)
);
}
);
width = 612;
}
);
unicode = 66;
},
{
glyphname = Bstroke;
lastChange = "2024-08-29 00:25:29 +0000";
layers = (
{
background = {
shapes = (
{
closed = 1;
nodes = (
(57,156,l),
(117,156,l),
(117,78,l),
(57,78,l),
(57,0,l),
(340,0,ls),
(474,0,o),
(547,78,o),
(547,183,cs),
(547,195,ls),
(547,270,o),
(495,327,o),
(429,345,c),
(429,357,l),
(495,375,o),
(547,430,o),
(547,506,cs),
(547,518,ls),
(547,622,o),
(474,700,o),
(340,700,cs),
(57,700,l),
(57,622,l),
(117,622,l),
(117,234,l),
(57,234,l)
);
},
{
closed = 1;
nodes = (
(201,622,l),
(334,622,ls),
(412,622,o),
(467,580,o),
(467,512,cs),
(467,506,ls),
(467,434,o),
(417,390,o),
(337,390,cs),
(201,390,l)
);
},
{
closed = 1;
nodes = (
(201,312,l),
(337,312,ls),
(417,312,o),
(467,266,o),
(467,195,cs),
(467,189,ls),
(467,120,o),
(412,78,o),
(334,78,cs),
(201,78,l),
(201,156,l),
(309,156,l),
(309,234,l),
(201,234,l)
);
}
);
};
guides = (
{
angle = 90;
pos = (57,0);
}
);
layerId = "F786B9CF-2625-4E74-A523-7F1B392BEC63";
shapes = (
{
closed = 1;
nodes = (
(57,156,l),
(117,156,l),
(117,78,l),
(57,78,l),
(57,0,l),
(340,0,ls),
(474,0,o),
(547,78,o),
(547,183,cs),
(547,195,ls),
(547,270,o),
(495,327,o),
(429,345,c),
(429,357,l),
(495,375,o),
(547,430,o),
(547,506,cs),
(547,518,ls),
(547,622,o),
(474,700,o),
(340,700,cs),
(57,700,l),
(57,622,l),
(117,622,l),
(117,234,l),
(57,234,l)
);
},
{
closed = 1;
nodes = (
(201,622,l),
(334,622,ls),
(412,622,o),
(467,580,o),
(467,512,cs),
(467,506,ls),
(467,434,o),
(417,390,o),
(337,390,cs),
(201,390,l)
);
},
{
closed = 1;
nodes = (
(201,312,l),
(337,312,ls),
(417,312,o),
(467,266,o),
(467,195,cs),
(467,189,ls),
(467,120,o),
(412,78,o),
(334,78,cs),
(201,78,l),
(201,156,l),
(309,156,l),
(309,234,l),
(201,234,l)
);
}
);
width = 612;
}
);
unicode = 579;
},
{
glyphname = C;
lastChange = "2024-08-29 00:27:16 +0000";
layers = (
{
anchors = (
{
name = bottom;
pos = (306,0);
},
{
name = top;
pos = (306,700);
}
);
background = {
shapes = (
{
closed = 1;
nodes = (
(202,64,o),
(148,142,o),
(148,278,cs),
(148,422,ls),
(148,550,o),
(202,636,o),
(310,636,cs),
(424,636,o),
(470,552,o),
(472,460,c),
(472,448,l),
(556,448,l),
(556,460,l),
(556,602,o),
(470,714,o),
(310,714,cs),
(156,714,o),
(64,608,o),
(64,428,cs),
(64,272,ls),
(64,86,o),
(156,-14,o),
(310,-14,cs),
(470,-14,o),
(556,98,o),
(556,240,cs),
(556,252,l),
(472,252,l),
(472,240,ls),
(472,148,o),
(424,64,o),
(310,64,cs)
);
}
);
};
layerId = "F786B9CF-2625-4E74-A523-7F1B392BEC63";
shapes = (
{
closed = 1;
nodes = (
(470,-14,o),
(556,98,o),
(556,240,cs),
(556,252,l),
(472,252,l),
(472,240,ls),
(472,148,o),
(424,64,o),
(310,64,cs),
(202,64,o),
(148,142,o),
(148,278,cs),
(148,422,ls),
(148,550,o),
(202,636,o),
(310,636,cs),
(424,636,o),
(470,552,o),
(472,460,c),
(472,448,l),
(556,448,l),
(556,460,l),
(556,602,o),
(470,714,o),
(310,714,cs),
(156,714,o),
(64,608,o),
(64,428,cs),
(64,272,ls),
(64,86,o),
(156,-14,o),
(310,-14,cs)
);
}
);
width = 612;
}
);
unicode = 67;
},
{
color = 4;
glyphname = Cacute;
lastChange = "2024-08-29 02:02:39 +0000";
layers = (
{
associatedMasterId = "F786B9CF-2625-4E74-A523-7F1B392BEC63";
layerId = "60B433FB-7962-4D91-9D7B-25075E58E57A";
name = img;
width = 612;
},
{
background = {
shapes = (
{
closed = 1;
nodes = (
(202,64,o),
(148,142,o),
(148,278,cs),
(148,422,ls),
(148,550,o),
(202,636,o),
(310,636,cs),
(424,636,o),
(470,552,o),
(472,460,c),
(472,448,l),
(556,448,l),
(556,460,l),
(556,602,o),
(470,714,o),
(310,714,cs),
(156,714,o),
(64,608,o),
(64,428,cs),
(64,272,ls),
(64,86,o),
(156,-14,o),
(310,-14,cs),
(470,-14,o),
(556,98,o),
(556,240,cs),
(556,252,l),
(472,252,l),
(472,240,ls),
(472,148,o),
(424,64,o),
(310,64,cs)
);
},
{
closed = 1;
nodes = (
(342,892,l),
(276,774,l),
(348,774,l),
(432,892,l)
);
}
);
};
layerId = "F786B9CF-2625-4E74-A523-7F1B392BEC63";
shapes = (
{
ref = C;
},
{
pos = (227,204);
ref = acutecomb;
}
);
width = 612;
}
);
unicode = 262;
},
{
color = 4;
glyphname = Ccaron;
lastChange = "2024-08-29 02:16:24 +0000";
layers = (
{
associatedMasterId = "F786B9CF-2625-4E74-A523-7F1B392BEC63";
layerId = "60B433FB-7962-4D91-9D7B-25075E58E57A";
name = img;
width = 612;
},
{
background = {
shapes = (
{
closed = 1;
nodes = (
(202,64,o),
(148,142,o),
(148,278,cs),
(148,422,ls),
(148,550,o),
(202,636,o),
(310,636,cs),
(424,636,o),
(470,552,o),
(472,460,c),
(472,448,l),
(556,448,l),
(556,460,l),
(556,602,o),
(470,714,o),
(310,714,cs),
(156,714,o),
(64,608,o),
(64,428,cs),
(64,272,ls),
(64,86,o),
(156,-14,o),
(310,-14,cs),
(470,-14,o),
(556,98,o),
(556,240,cs),
(556,252,l),
(472,252,l),
(472,240,ls),
(472,148,o),
(424,64,o),
(310,64,cs)
);
},
{
closed = 1;
nodes = (
(368,892,l),
(316,804,l),
(304,804,l),
(252,892,l),
(168,892,l),
(248,774,l),
(372,774,l),
(452,892,l)
);
}
);
};
guides = (
{
angle = 90;
pos = (310,0);
}
);
layerId = "F786B9CF-2625-4E74-A523-7F1B392BEC63";
shapes = (
{
ref = C;
},
{
pos = (0,204);
ref = caroncomb;
}
);
width = 612;
}
);
unicode = 268;
},
{
color = 3;
glyphname = Ccedilla;
lastChange = "2024-08-29 02:32:06 +0000";
layers = (
{
associatedMasterId = "F786B9CF-2625-4E74-A523-7F1B392BEC63";
layerId = "60B433FB-7962-4D91-9D7B-25075E58E57A";
name = img;
width = 612;
},
{
background = {
shapes = (
{
closed = 1;
nodes = (
(202,64,o),
(148,142,o),
(148,278,cs),
(148,422,ls),
(148,550,o),
(202,636,o),
(310,636,cs),
(424,636,o),
(470,552,o),
(472,460,c),
(472,448,l),
(556,448,l),
(556,460,ls),
(556,602,o),
(470,714,o),
(310,714,cs),
(156,714,o),
(64,608,o),
(64,428,cs),
(64,272,ls),
(64,109,o),
(134,12,o),
(254,-9,c),
(236,-92,l),
(236,-98,l),
(312,-98,l),
(316,-90,o),
(325,-84,o),
(337,-84,cs),
(356,-84,o),
(372,-98,o),
(372,-122,cs),
(372,-151,o),
(352,-164,o),
(332,-164,cs),
(303,-164,o),
(288,-144,o),
(284,-124,c),
(236,-142,l),
(246,-182,o),
(276,-212,o),
(333,-212,cs),
(385,-212,o),
(426,-176,o),
(426,-121,cs),
(426,-75,o),
(396,-36,o),
(350,-36,cs),
(322,-36,o),
(304,-48,o),
(296,-68,c),
(290,-68,l),
(302,-14,l),
(310,-14,ls),
(470,-14,o),
(556,98,o),
(556,240,cs),
(556,252,l),
(472,252,l),
(472,240,ls),
(472,148,o),
(424,64,o),
(310,64,cs)
);
}
);
};
guides = (
{
angle = 90;
pos = (310,0);
}
);
layerId = "F786B9CF-2625-4E74-A523-7F1B392BEC63";
shapes = (
{
closed = 1;
nodes = (
(385,-212,o),
(426,-176,o),
(426,-121,cs),
(426,-75,o),
(396,-36,o),
(350,-36,cs),
(322,-36,o),
(304,-48,o),
(296,-68,c),
(290,-68,l),
(302,-14,l),
(310,-14,ls),
(470,-14,o),
(556,98,o),
(556,240,cs),
(556,252,l),
(472,252,l),
(472,240,ls),
(472,148,o),
(424,64,o),
(310,64,cs),
(202,64,o),
(148,142,o),
(148,278,cs),
(148,422,ls),
(148,550,o),
(202,636,o),
(310,636,cs),
(424,636,o),
(470,552,o),
(472,460,c),
(472,448,l),
(556,448,l),
(556,460,ls),
(556,602,o),
(470,714,o),
(310,714,cs),
(156,714,o),
(64,608,o),
(64,428,cs),
(64,272,ls),
(64,109,o),
(134,12,o),
(254,-9,c),
(236,-92,l),
(236,-98,l),
(312,-98,l),
(316,-90,o),
(325,-84,o),
(337,-84,cs),
(356,-84,o),
(372,-98,o),
(372,-122,cs),
(372,-151,o),
(352,-164,o),
(332,-164,cs),
(303,-164,o),
(288,-144,o),
(284,-124,c),
(236,-142,l),
(246,-182,o),
(276,-212,o),
(333,-212,cs)
);
}
);
width = 612;
}
);
unicode = 199;
},
{
color = 4;
glyphname = Ccircumflex;
lastChange = "2024-08-29 02:31:04 +0000";
layers = (
{
background = {
shapes = (
{
closed = 1;
nodes = (
(202,64,o),
(148,142,o),
(148,278,cs),
(148,422,ls),
(148,550,o),
(202,636,o),
(310,636,cs),
(424,636,o),
(470,552,o),
(472,460,c),
(472,448,l),
(556,448,l),
(556,460,l),
(556,602,o),
(470,714,o),
(310,714,cs),
(156,714,o),
(64,608,o),
(64,428,cs),
(64,272,ls),
(64,86,o),
(156,-14,o),
(310,-14,cs),
(470,-14,o),
(556,98,o),
(556,240,cs),
(556,252,l),
(472,252,l),
(472,240,ls),
(472,148,o),
(424,64,o),
(310,64,cs)
);
},
{
closed = 1;
nodes = (
(452,774,l),
(372,892,l),
(248,892,l),
(168,774,l),
(252,774,l),
(304,862,l),
(316,862,l),
(368,774,l)
);
}
);
};
guides = (
{
pos = (0,774);
},
{
angle = 90;
pos = (310,0);
}
);
layerId = "F786B9CF-2625-4E74-A523-7F1B392BEC63";
shapes = (
{
ref = C;
},
{
pos = (0,204);
ref = circumflexcomb;
}
);
width = 612;
}
);
unicode = 264;
},
{
color = 4;
glyphname = Cdotaccent;
lastChange = "2024-08-29 02:44:02 +0000";
layers = (
{
associatedMasterId = "F786B9CF-2625-4E74-A523-7F1B392BEC63";
layerId = "60B433FB-7962-4D91-9D7B-25075E58E57A";
name = img;
width = 612;
},
{
background = {
shapes = (
{
closed = 1;
nodes = (
(202,64,o),
(148,142,o),
(148,278,cs),
(148,422,ls),
(148,550,o),
(202,636,o),
(310,636,cs),
(424,636,o),
(470,552,o),
(472,460,c),
(472,448,l),
(556,448,l),
(556,460,l),
(556,602,o),
(470,714,o),
(310,714,cs),
(156,714,o),
(64,608,o),
(64,428,cs),
(64,272,ls),
(64,86,o),
(156,-14,o),
(310,-14,cs),
(470,-14,o),
(556,98,o),
(556,240,cs),
(556,252,l),
(472,252,l),
(472,240,ls),
(472,148,o),
(424,64,o),
(310,64,cs)
);
},
{
closed = 1;
nodes = (
(240,810,o),
(272,778,o),
(310,778,cs),
(348,778,o),
(380,810,o),
(380,848,cs),
(380,886,o),
(348,918,o),
(310,918,cs),
(272,918,o),
(240,886,o),
(240,848,cs)
);
}
);
};
guides = (
{
pos = (0,778);
},
{
angle = 90;
pos = (310,0);
}
);
layerId = "F786B9CF-2625-4E74-A523-7F1B392BEC63";
shapes = (
{
ref = C;
},
{
pos = (0,204);
ref = dotaccentcomb;
}
);
width = 612;
}
);
unicode = 266;
},
{
glyphname = D;
lastChange = "2024-08-29 00:27:20 +0000";
layers = (
{
anchors = (
{
name = bottom;
pos = (306,0);
},
{
name = center;
pos = (153,350);
},
{
name = top;
pos = (306,700);
}
);
background = {
shapes = (
{
closed = 1;
nodes = (
(73,622,l),
(133,622,l),
(133,79,l),
(73,79,l),
(73,0,l),
(303,0,ls),
(475,0,o),
(553,80,o),
(553,260,cs),
(553,440,ls),
(553,620,o),
(475,700,o),
(303,700,cs),
(73,700,l)
);
},
{
closed = 1;
nodes = (
(217,78,l),
(217,622,l),
(291,622,ls),
(413,622,o),
(469,580,o),
(469,434,cs),
(469,266,ls),
(469,120,o),
(413,78,o),
(291,78,c)
);
}
);
};
layerId = "F786B9CF-2625-4E74-A523-7F1B392BEC63";
shapes = (
{
closed = 1;
nodes = (
(303,0,ls),
(475,0,o),
(553,80,o),
(553,260,cs),
(553,440,ls),
(553,620,o),
(475,700,o),
(303,700,cs),
(73,700,l),
(73,622,l),
(133,622,l),
(133,79,l),
(73,79,l),
(73,0,l)
);
},
{
closed = 1;
nodes = (
(217,622,l),
(291,622,ls),
(413,622,o),
(469,580,o),
(469,434,cs),
(469,266,ls),
(469,120,o),
(413,78,o),
(291,78,c),
(217,78,l)
);
}
);
width = 612;
}
);
unicode = 68;
},
{
color = 4;
glyphname = Dcaron;
lastChange = "2024-08-29 02:16:24 +0000";
layers = (
{
associatedMasterId = "F786B9CF-2625-4E74-A523-7F1B392BEC63";
layerId = "60B433FB-7962-4D91-9D7B-25075E58E57A";
name = img;
width = 612;
},
{
background = {
shapes = (
{
closed = 1;
nodes = (
(73,622,l),
(133,622,l),
(133,79,l),
(73,79,l),
(73,0,l),
(303,0,ls),
(475,0,o),
(553,80,o),
(553,260,cs),
(553,440,ls),
(553,620,o),
(475,700,o),
(303,700,cs),
(73,700,l)
);
},
{
closed = 1;
nodes = (
(217,78,l),
(217,622,l),
(291,622,ls),
(413,622,o),
(469,580,o),
(469,434,cs),
(469,266,ls),
(469,120,o),
(413,78,o),
(291,78,c)
);
},
{
closed = 1;
nodes = (
(365,892,l),
(313,804,l),
(301,804,l),
(249,892,l),
(165,892,l),
(245,774,l),
(369,774,l),
(449,892,l)
);
}
);
};
guides = (
{
pos = (0,774);
}
);
layerId = "F786B9CF-2625-4E74-A523-7F1B392BEC63";
shapes = (
{
ref = D;
},
{
pos = (0,204);
ref = caroncomb;
}
);
width = 612;
}
);
unicode = 270;
},
{
color = 4;
glyphname = Dcroat;
lastChange = "2024-08-29 02:44:30 +0000";
layers = (
{
associatedMasterId = "F786B9CF-2625-4E74-A523-7F1B392BEC63";
layerId = "60B433FB-7962-4D91-9D7B-25075E58E57A";
name = img;
width = 612;
},
{
background = {
shapes = (
{
closed = 1;
nodes = (
(73,311,l),
(133,311,l),
(133,78,l),
(73,78,l),
(73,0,l),
(303,0,ls),
(475,0,o),
(553,80,o),
(553,260,cs),
(553,440,ls),
(553,620,o),
(475,700,o),
(303,700,cs),
(73,700,l),
(73,622,l),
(133,622,l),
(133,389,l),
(73,389,l)
);
},
{
closed = 1;
nodes = (
(217,78,l),
(217,311,l),
(325,311,l),
(325,389,l),
(217,389,l),
(217,622,l),
(291,622,ls),
(413,622,o),
(469,580,o),
(469,434,cs),
(469,266,ls),
(469,120,o),
(413,78,o),
(291,78,c)
);
}
);
};
guides = (
{
pos = (0,774);
}
);
layerId = "F786B9CF-2625-4E74-A523-7F1B392BEC63";
shapes = (
{
alignment = -1;
ref = Eth;
}
);
width = 612;
}
);
unicode = 272;
},
{
color = 4;
glyphname = Ddotbelow;
lastChange = "2024-08-29 02:44:02 +0000";
layers = (
{
background = {
shapes = (
{
closed = 1;
nodes = (
(73,622,l),
(133,622,l),
(133,79,l),
(73,79,l),
(73,0,l),
(303,0,ls),
(475,0,o),
(553,80,o),
(553,260,cs),
(553,440,ls),
(553,620,o),
(475,700,o),
(303,700,cs),
(73,700,l)
);
},
{
closed = 1;
nodes = (
(217,78,l),
(217,622,l),
(291,622,ls),
(413,622,o),
(469,580,o),
(469,434,cs),
(469,266,ls),
(469,120,o),
(413,78,o),
(291,78,c)
);
},
{
closed = 1;
nodes = (
(236,-172,o),
(268,-204,o),
(306,-204,cs),
(344,-204,o),
(376,-172,o),
(376,-134,cs),
(376,-96,o),
(344,-64,o),
(306,-64,cs),
(268,-64,o),
(236,-96,o),
(236,-134,cs)
);
}
);
};
guides = (
{
pos = (0,-74);
},
{
pos = (0,-64);
},
{
angle = 90;
pos = (313,0);
}
);
layerId = "F786B9CF-2625-4E74-A523-7F1B392BEC63";
shapes = (
{
ref = D;
},
{
ref = dotbelowcomb;
}
);
width = 612;
}
);
unicode = 7692;
},
{
color = 4;
glyphname = Dmacronbelow;
lastChange = "2024-08-29 02:47:14 +0000";
layers = (
{
background = {
shapes = (
{
closed = 1;
nodes = (
(73,622,l),
(133,622,l),
(133,79,l),
(73,79,l),
(73,0,l),
(303,0,ls),
(475,0,o),
(553,80,o),
(553,260,cs),
(553,440,ls),
(553,620,o),
(475,700,o),
(303,700,cs),
(73,700,l)
);
},
{
closed = 1;
nodes = (
(217,78,l),
(217,622,l),
(291,622,ls),
(413,622,o),
(469,580,o),
(469,434,cs),
(469,266,ls),
(469,120,o),
(413,78,o),
(291,78,c)
);
},
{
closed = 1;
nodes = (
(457,-130,l),
(457,-64,l),
(175,-64,l),
(175,-130,l)
);
}
);
};
guides = (
{
pos = (0,-64);
},
{
angle = 90;
pos = (133,0);
},
{
angle = 90;
pos = (217,0);
},
{
angle = 90;
pos = (469,0);
}
);
layerId = "F786B9CF-2625-4E74-A523-7F1B392BEC63";
shapes = (
{
ref = D;
},
{
ref = macronbelowcomb;
}
);
width = 612;
}
);
unicode = 7694;
},
{
glyphname = Eth;
lastChange = "2024-08-29 00:25:29 +0000";
layers = (
{
background = {
shapes = (
{
closed = 1;
nodes = (
(73,311,l),
(133,311,l),
(133,78,l),
(73,78,l),
(73,0,l),
(303,0,ls),
(475,0,o),
(553,80,o),
(553,260,cs),
(553,440,ls),
(553,620,o),
(475,700,o),
(303,700,cs),
(73,700,l),
(73,622,l),
(133,622,l),
(133,389,l),
(73,389,l)
);
},
{
closed = 1;
nodes = (
(217,78,l),
(217,311,l),
(325,311,l),
(325,389,l),
(217,389,l),
(217,622,l),
(291,622,ls),
(413,622,o),
(469,580,o),
(469,434,cs),
(469,266,ls),
(469,120,o),
(413,78,o),
(291,78,c)
);
}
);
};
guides = (
{
pos = (0,350);
}
);
layerId = "F786B9CF-2625-4E74-A523-7F1B392BEC63";
shapes = (
{
closed = 1;
nodes = (
(73,311,l),
(133,311,l),
(133,78,l),
(73,78,l),
(73,0,l),
(303,0,ls),
(475,0,o),
(553,80,o),
(553,260,cs),
(553,440,ls),
(553,620,o),
(475,700,o),
(303,700,cs),
(73,700,l),
(73,622,l),
(133,622,l),
(133,389,l),
(73,389,l)
);
},
{
closed = 1;
nodes = (
(217,78,l),
(217,311,l),
(325,311,l),
(325,389,l),
(217,389,l),
(217,622,l),
(291,622,ls),
(413,622,o),
(469,580,o),
(469,434,cs),
(469,266,ls),
(469,120,o),
(413,78,o),
(291,78,c)
);
}
);
width = 612;
}
);
unicode = 208;
},
{
glyphname = E;
lastChange = "2024-08-29 02:21:57 +0000";
layers = (
{
anchors = (
{
name = bottom;
pos = (306,0);
},
{
name = ogonek;
pos = (551,10);
},
{
name = top;
pos = (306,700);
},
{
name = topleft;
pos = (20,700);
}
);
background = {
shapes = (
{
closed = 1;
nodes = (
(94,0,l),
(524,0,l),
(524,78,l),
(178,78,l),
(178,312,l),
(512,312,l),
(512,390,l),
(178,390,l),
(178,622,l),
(518,622,l),
(518,700,l),
(94,700,l)
);
}
);
};
layerId = "F786B9CF-2625-4E74-A523-7F1B392BEC63";
shapes = (
{
closed = 1;
nodes = (
(524,0,l),
(524,78,l),
(178,78,l),
(178,312,l),
(512,312,l),
(512,390,l),
(178,390,l),
(178,622,l),
(518,622,l),
(518,700,l),
(94,700,l),
(94,0,l)
);
}
);
width = 612;
}
);
unicode = 69;
},
{
color = 4;
glyphname = Eacute;
lastChange = "2024-08-29 02:02:39 +0000";
layers = (
{
background = {
shapes = (
{
closed = 1;
nodes = (
(94,0,l),
(524,0,l),
(524,78,l),
(178,78,l),
(178,312,l),
(512,312,l),
(512,390,l),
(178,390,l),
(178,622,l),
(518,622,l),
(518,700,l),
(94,700,l)
);
},
{
closed = 1;
nodes = (
(345,892,l),
(279,774,l),
(351,774,l),
(435,892,l)
);
}
);
};
layerId = "F786B9CF-2625-4E74-A523-7F1B392BEC63";
shapes = (
{
ref = E;
},
{
pos = (227,204);
ref = acutecomb;
}
);
width = 612;
}
);
unicode = 201;
},
{
color = 4;
glyphname = Ebreve;
lastChange = "2024-08-29 01:45:04 +0000";
layers = (
{
associatedMasterId = "F786B9CF-2625-4E74-A523-7F1B392BEC63";
layerId = "60B433FB-7962-4D91-9D7B-25075E58E57A";
name = img;
width = 612;
},
{
background = {
shapes = (
{
closed = 1;
nodes = (
(94,0,l),
(524,0,l),
(524,78,l),
(178,78,l),
(178,312,l),
(512,312,l),
(512,390,l),
(178,390,l),
(178,622,l),
(518,622,l),
(518,700,l),
(94,700,l)
);
},
{
closed = 1;
nodes = (
(348,892,l),
(348,880,l),
(348,859,o),
(334,841,o),
(309,841,cs),
(284,841,o),
(270,859,o),
(270,880,c),
(270,892,l),
(201,892,l),
(201,882,l),
(201,818,o),
(243,774,o),
(309,774,cs),
(375,774,o),
(417,818,o),
(417,882,c),
(417,892,l)
);
}
);
};
guides = (
{
pos = (0,774);
}
);
layerId = "F786B9CF-2625-4E74-A523-7F1B392BEC63";
shapes = (
{
ref = E;
},
{
pos = (148,204);
ref = brevecomb;
}
);
width = 612;
}
);
unicode = 276;
},
{
color = 4;
glyphname = Ecaron;
lastChange = "2024-08-29 02:16:24 +0000";
layers = (
{
associatedMasterId = "F786B9CF-2625-4E74-A523-7F1B392BEC63";
layerId = "60B433FB-7962-4D91-9D7B-25075E58E57A";
name = img;
width = 612;
},
{
background = {
shapes = (
{
closed = 1;
nodes = (
(94,0,l),
(524,0,l),
(524,78,l),
(178,78,l),
(178,312,l),
(512,312,l),
(512,390,l),
(178,390,l),
(178,622,l),
(518,622,l),
(518,700,l),
(94,700,l)
);
},
{
closed = 1;
nodes = (
(367,892,l),
(315,804,l),
(303,804,l),
(251,892,l),
(167,892,l),
(247,774,l),
(371,774,l),
(451,892,l)
);
}
);
};
layerId = "F786B9CF-2625-4E74-A523-7F1B392BEC63";
shapes = (
{
ref = E;
},
{
pos = (0,204);
ref = caroncomb;
}
);
width = 612;
}
);
unicode = 282;
},
{
color = 4;
glyphname = Ecircumflex;
lastChange = "2024-08-29 02:31:04 +0000";
layers = (
{
background = {
shapes = (
{
closed = 1;
nodes = (
(94,0,l),
(524,0,l),
(524,78,l),
(178,78,l),
(178,312,l),
(512,312,l),
(512,390,l),
(178,390,l),
(178,622,l),
(518,622,l),
(518,700,l),
(94,700,l)
);
},
{
closed = 1;
nodes = (
(450,774,l),
(370,892,l),
(246,892,l),
(166,774,l),
(250,774,l),
(302,862,l),
(314,862,l),
(366,774,l)
);
}
);
};
layerId = "F786B9CF-2625-4E74-A523-7F1B392BEC63";
shapes = (
{
ref = E;
},
{
pos = (0,204);
ref = circumflexcomb;
}
);
width = 612;
}
);
unicode = 202;
},
{
color = 4;
glyphname = Ecircumflexacute;
lastChange = "2024-08-29 02:21:57 +0000";
layers = (
{
background = {
shapes = (
{
closed = 1;
nodes = (
(94,0,l),
(524,0,l),
(524,78,l),
(178,78,l),
(178,312,l),
(512,312,l),
(512,390,l),
(178,390,l),
(178,622,l),
(518,622,l),
(518,700,l),
(94,700,l)
);
},
{
closed = 1;
nodes = (
(451,774,l),
(371,892,l),
(247,892,l),
(167,774,l),
(251,774,l),
(303,862,l),
(315,862,l),
(367,774,l)
);
},
{
closed = 1;
nodes = (
(493,980,l),
(427,862,l),
(499,862,l),
(583,980,l)
);
}
);
};
guides = (
{
pos = (0,862);
},
{
angle = 90;
pos = (94,0);
},
{
angle = 90;
pos = (518,0);
},
{
angle = 90;
pos = (391,0);
}
);
layerId = "F786B9CF-2625-4E74-A523-7F1B392BEC63";
shapes = (
{
ref = E;
},
{
pos = (0,204);
ref = circumflexcomb;
},
{
anchor = topviet;
pos = (376,292);
ref = acutecomb;
}
);
width = 612;
}
);
unicode = 7870;
},
{
color = 4;
glyphname = Ecircumflexdotbelow;
lastChange = "2024-08-29 02:31:04 +0000";
layers = (
{
background = {
shapes = (
{
closed = 1;
nodes = (
(94,0,l),
(524,0,l),
(524,78,l),
(178,78,l),
(178,312,l),
(512,312,l),
(512,390,l),
(178,390,l),
(178,622,l),
(518,622,l),
(518,700,l),
(94,700,l)
);
},
{
closed = 1;
nodes = (
(451,774,l),
(371,892,l),
(247,892,l),
(167,774,l),
(251,774,l),
(303,862,l),
(315,862,l),
(367,774,l)
);
},
{
closed = 1;
nodes = (
(239,-172,o),
(271,-204,o),
(309,-204,cs),
(347,-204,o),
(379,-172,o),
(379,-134,cs),
(379,-96,o),
(347,-64,o),
(309,-64,cs),
(271,-64,o),
(239,-96,o),
(239,-134,cs)
);
}
);
};
layerId = "F786B9CF-2625-4E74-A523-7F1B392BEC63";
shapes = (
{
ref = E;
},
{
ref = dotbelowcomb;
},
{
pos = (0,204);
ref = circumflexcomb;
}
);
width = 612;
}
);
unicode = 7878;
},
{
color = 4;
glyphname = Ecircumflexgrave;
lastChange = "2024-08-29 02:31:04 +0000";
layers = (
{
background = {
shapes = (
{
closed = 1;
nodes = (
(94,0,l),
(524,0,l),
(524,78,l),
(178,78,l),
(178,312,l),
(512,312,l),
(512,390,l),
(178,390,l),
(178,622,l),
(518,622,l),
(518,700,l),
(94,700,l)
);
},
{
closed = 1;
nodes = (
(451,774,l),
(371,892,l),
(247,892,l),
(167,774,l),
(251,774,l),
(303,862,l),
(315,862,l),
(367,774,l)
);
},
{
closed = 1;
nodes = (
(32,980,l),
(116,862,l),
(188,862,l),
(122,980,l)
);
}
);
};
guides = (
{
pos = (0,862);
},
{
angle = 90;
pos = (224,0);
}
);
layerId = "F786B9CF-2625-4E74-A523-7F1B392BEC63";
shapes = (
{
ref = E;
},
{
pos = (0,204);
ref = circumflexcomb;
},
{
anchor = topviet;
pos = (-16,292);
ref = gravecomb;
}
);
width = 612;
}
);
unicode = 7872;
},
{
color = 4;
glyphname = Ecircumflexhookabove;
lastChange = "2024-08-29 02:31:04 +0000";
layers = (
{
background = {
shapes = (
{
closed = 1;
nodes = (
(430,858,l),
(410,950,l),
(410,956,l),
(486,956,l),
(490,948,o),
(499,942,o),
(511,942,cs),
(530,942,o),
(546,956,o),
(546,980,cs),
(546,1009,o),
(526,1022,o),
(506,1022,cs),
(477,1022,o),
(462,1002,o),
(458,982,c),
(410,1000,l),
(420,1040,o),
(450,1070,o),
(507,1070,cs),
(559,1070,o),
(600,1034,o),
(600,979,cs),
(600,933,o),
(570,894,o),
(524,894,cs),
(496,894,o),
(478,906,o),
(470,926,c),
(464,926,l),
(479,858,l)
);
},
{
closed = 1;
nodes = (
(94,0,l),
(524,0,l),
(524,78,l),
(178,78,l),
(178,312,l),
(512,312,l),
(512,390,l),
(178,390,l),
(178,622,l),
(518,622,l),
(518,700,l),
(94,700,l)
);
},
{
closed = 1;
nodes = (
(451,774,l),
(371,892,l),
(247,892,l),
(167,774,l),
(251,774,l),
(303,862,l),
(315,862,l),
(367,774,l)
);
}
);
};
layerId = "F786B9CF-2625-4E74-A523-7F1B392BEC63";
shapes = (
{
ref = E;
},
{
pos = (0,204);
ref = circumflexcomb;
},
{
anchor = topviet;
pos = (194,312);
ref = hookabovecomb;
}
);
width = 612;
}
);
unicode = 7874;
},
{
color = 4;
glyphname = Ecircumflextilde;
lastChange = "2024-08-29 02:31:04 +0000";
layers = (
{
background = {
shapes = (
{
closed = 1;
nodes = (
(94,0,l),
(524,0,l),
(524,78,l),
(178,78,l),
(178,312,l),
(512,312,l),
(512,390,l),
(178,390,l),
(178,622,l),
(518,622,l),
(518,700,l),
(94,700,l)
);
},
{
closed = 1;
nodes = (
(451,730,l),
(371,848,l),
(247,848,l),
(167,730,l),
(251,730,l),
(303,818,l),
(315,818,l),
(367,730,l)
);
},
{
closed = 1;
nodes = (
(316,1009,o),
(298,1027,o),
(259,1027,cs),
(223,1027,o),
(199,1008,o),
(180,985,cs),
(139,936,l),
(188,894,l),
(234,947,ls),
(242,956,o),
(248,959,o),
(256,959,cs),
(267,959,o),
(271,953,o),
(280,937,cs),
(302,896,o),
(320,878,o),
(361,878,cs),
(396,878,o),
(420,897,o),
(439,920,cs),
(480,969,l),
(431,1011,l),
(383,956,ls),
(377,949,o),
(371,946,o),
(364,946,cs),
(352,946,o),
(347,953,o),
(340,966,cs)
);
}
);
};
guides = (
{
angle = 90;
pos = (167,0);
}
);
layerId = "F786B9CF-2625-4E74-A523-7F1B392BEC63";
shapes = (
{
ref = E;
},
{
alignment = -1;
pos = (0,161);
ref = circumflexcomb;
},
{
pos = (89,323);
ref = tildecomb;
}
);
width = 612;
}
);
unicode = 7876;
},
{
color = 4;
glyphname = Edieresis;
lastChange = "2024-08-29 02:59:17 +0000";
layers = (
{
background = {
shapes = (
{
closed = 1;
nodes = (
(94,0,l),
(524,0,l),
(524,78,l),
(178,78,l),
(178,312,l),
(512,312,l),
(512,390,l),
(178,390,l),
(178,622,l),
(518,622,l),
(518,700,l),
(94,700,l)
);
},
{
closed = 1;
nodes = (
(140,810,o),
(172,778,o),
(210,778,cs),
(248,778,o),
(280,810,o),
(280,848,cs),
(280,886,o),
(248,918,o),
(210,918,cs),
(172,918,o),
(140,886,o),
(140,848,cs)
);
},
{
closed = 1;
nodes = (
(340,810,o),
(372,778,o),
(410,778,cs),
(448,778,o),
(480,810,o),
(480,848,cs),
(480,886,o),
(448,918,o),
(410,918,cs),
(372,918,o),
(340,886,o),
(340,848,cs)
);
}
);
};
guides = (
{
pos = (0,774);
}
);
layerId = "F786B9CF-2625-4E74-A523-7F1B392BEC63";
shapes = (
{
ref = E;
},
{
pos = (86,0);
ref = dieresiscomb.case;
}
);
width = 612;
}
);
unicode = 203;
},
{
color = 4;
glyphname = Edotaccent;
lastChange = "2024-08-29 02:44:02 +0000";
layers = (
{
associatedMasterId = "F786B9CF-2625-4E74-A523-7F1B392BEC63";
layerId = "60B433FB-7962-4D91-9D7B-25075E58E57A";
name = img;
width = 612;
},
{
background = {
shapes = (
{
closed = 1;
nodes = (
(94,0,l),
(524,0,l),
(524,78,l),
(178,78,l),
(178,312,l),
(512,312,l),
(512,390,l),
(178,390,l),
(178,622,l),
(518,622,l),
(518,700,l),
(94,700,l)
);
},
{
closed = 1;
nodes = (
(239,810,o),
(271,778,o),
(309,778,cs),
(347,778,o),
(379,810,o),
(379,848,cs),
(379,886,o),
(347,918,o),
(309,918,cs),
(271,918,o),
(239,886,o),
(239,848,cs)
);
}
);
};
layerId = "F786B9CF-2625-4E74-A523-7F1B392BEC63";
shapes = (
{
ref = E;
},
{
pos = (0,204);
ref = dotaccentcomb;
}
);
width = 612;
}
);
unicode = 278;
},
{
color = 4;
glyphname = Edotbelow;
lastChange = "2024-08-29 02:44:02 +0000";
layers = (
{
background = {
shapes = (
{
closed = 1;
nodes = (
(94,0,l),
(524,0,l),
(524,78,l),
(178,78,l),
(178,312,l),
(512,312,l),
(512,390,l),
(178,390,l),
(178,622,l),
(518,622,l),
(518,700,l),
(94,700,l)
);
},
{
closed = 1;
nodes = (
(239,-172,o),
(271,-204,o),
(309,-204,cs),
(347,-204,o),
(379,-172,o),
(379,-134,cs),
(379,-96,o),
(347,-64,o),
(309,-64,cs),
(271,-64,o),
(239,-96,o),
(239,-134,cs)
);
}
);
};
layerId = "F786B9CF-2625-4E74-A523-7F1B392BEC63";
shapes = (
{
ref = E;
},
{
ref = dotbelowcomb;
}
);
width = 612;
}
);
unicode = 7864;
},
{
color = 4;
glyphname = Egrave;
lastChange = "2024-08-29 03:04:57 +0000";
layers = (
{
background = {
shapes = (
{
closed = 1;
nodes = (
(94,0,l),
(524,0,l),
(524,78,l),
(178,78,l),
(178,312,l),
(512,312,l),
(512,390,l),
(178,390,l),
(178,622,l),
(518,622,l),
(518,700,l),
(94,700,l)
);
},
{
closed = 1;
nodes = (
(201,892,l),
(285,774,l),
(357,774,l),
(291,892,l)
);
}
);
};
layerId = "F786B9CF-2625-4E74-A523-7F1B392BEC63";
shapes = (
{
ref = E;
},
{
pos = (138,204);
ref = gravecomb;
}
);
width = 612;
}
);
unicode = 200;
},
{
color = 4;
glyphname = Ehookabove;
lastChange = "2024-08-29 02:34:06 +0000";
layers = (
{
background = {
shapes = (
{
closed = 1;
nodes = (
(253,750,l),
(233,842,l),
(233,848,l),
(309,848,l),
(313,840,o),
(322,834,o),
(334,834,cs),
(353,834,o),
(369,848,o),
(369,872,cs),
(369,901,o),
(349,914,o),
(329,914,cs),
(300,914,o),
(285,894,o),
(281,874,c),
(233,892,l),
(243,932,o),
(273,962,o),
(330,962,cs),
(382,962,o),
(423,926,o),
(423,871,cs),
(423,825,o),
(393,786,o),
(347,786,cs),
(319,786,o),
(301,798,o),
(293,818,c),
(287,818,l),
(302,750,l)
);
},
{
closed = 1;
nodes = (
(94,0,l),
(524,0,l),
(524,78,l),
(178,78,l),
(178,312,l),
(512,312,l),
(512,390,l),
(178,390,l),
(178,622,l),
(518,622,l),
(518,700,l),
(94,700,l)
);
}
);
};
guides = (
{
pos = (0,774);
},
{
angle = 90;
pos = (309,0);
}
);
layerId = "F786B9CF-2625-4E74-A523-7F1B392BEC63";
shapes = (
{
ref = E;
},
{
pos = (41,204);
ref = hookabovecomb;
}
);
width = 612;
}
);
unicode = 7866;
},
{
color = 4;
glyphname = Emacron;
lastChange = "2024-08-29 02:47:14 +0000";
layers = (
{
associatedMasterId = "F786B9CF-2625-4E74-A523-7F1B392BEC63";
layerId = "60B433FB-7962-4D91-9D7B-25075E58E57A";
name = img;
width = 612;
},
{
background = {
shapes = (
{
closed = 1;
nodes = (
(94,0,l),
(524,0,l),
(524,78,l),
(178,78,l),
(178,312,l),
(512,312,l),
(512,390,l),
(178,390,l),
(178,622,l),
(518,622,l),
(518,700,l),
(94,700,l)
);
},
{
closed = 1;
nodes = (
(456,774,l),
(456,840,l),
(174,840,l),
(174,774,l)
);
}
);
};
layerId = "F786B9CF-2625-4E74-A523-7F1B392BEC63";
shapes = (
{
ref = E;
},
{
pos = (115,204);
ref = macroncomb;
}
);
width = 612;
}
);
unicode = 274;
},
{
color = 3;
glyphname = Eogonek;
lastChange = "2024-08-29 03:02:44 +0000";
layers = (
{
associatedMasterId = "F786B9CF-2625-4E74-A523-7F1B392BEC63";
layerId = "60B433FB-7962-4D91-9D7B-25075E58E57A";
name = img;
width = 612;
},
{
background = {
shapes = (
{
closed = 1;
nodes = (
(94,0,l),
(455,0,l),
(441,-66,ls),
(439,-76,o),
(438,-83,o),
(438,-90,cs),
(438,-139,o),
(476,-164,o),
(516,-164,cs),
(572,-164,l),
(572,-98,l),
(530,-98,ls),
(516,-98,o),
(507,-90,o),
(507,-76,cs),
(507,-75,o),
(507,-73,o),
(508,-68,cs),
(524,0,l),
(524,78,l),
(178,78,l),
(178,312,l),
(512,312,l),
(512,390,l),
(178,390,l),
(178,622,l),
(518,622,l),
(518,700,l),
(94,700,l)
);
}
);
};
guides = (
{
angle = 90;
pos = (309,0);
}
);
layerId = "F786B9CF-2625-4E74-A523-7F1B392BEC63";
shapes = (
{
closed = 1;
nodes = (
(572,-164,l),
(572,-98,l),
(530,-98,ls),
(516,-98,o),
(507,-90,o),
(507,-76,cs),
(507,-75,o),
(507,-73,o),
(508,-68,cs),
(524,0,l),
(524,78,l),
(178,78,l),
(178,312,l),
(512,312,l),
(512,390,l),
(178,390,l),
(178,622,l),
(518,622,l),
(518,700,l),
(94,700,l),
(94,0,l),
(455,0,l),
(441,-66,ls),
(439,-76,o),
(438,-83,o),
(438,-90,cs),
(438,-139,o),
(476,-164,o),
(516,-164,cs)
);
}
);
width = 612;
}
);
unicode = 280;
},
{
color = 4;
glyphname = Etilde;
lastChange = "2024-08-29 03:20:44 +0000";
layers = (
{
background = {
shapes = (
{
closed = 1;
nodes = (
(94,0,l),
(524,0,l),
(524,78,l),
(178,78,l),
(178,312,l),
(512,312,l),
(512,390,l),
(178,390,l),
(178,622,l),
(518,622,l),
(518,700,l),
(94,700,l)
);
},
{
closed = 1;
nodes = (
(329,889,o),
(311,907,o),
(272,907,cs),
(236,907,o),
(212,888,o),
(193,865,cs),
(152,816,l),
(201,774,l),
(247,827,ls),
(255,836,o),
(261,839,o),
(269,839,cs),
(280,839,o),
(284,833,o),
(293,817,cs),
(315,776,o),
(333,758,o),
(374,758,cs),
(409,758,o),
(433,777,o),
(452,800,cs),
(493,849,l),
(444,891,l),
(396,836,ls),
(390,829,o),
(384,826,o),
(377,826,cs),
(365,826,o),
(360,833,o),
(353,846,cs)
);
}
);
};
layerId = "F786B9CF-2625-4E74-A523-7F1B392BEC63";
shapes = (
{
ref = E;
},
{
pos = (85,204);
ref = tildecomb;
}
);
width = 612;
}
);
unicode = 7868;
},
{
color = 3;
glyphname = Schwa;
lastChange = "2024-08-29 02:59:32 +0000";
layers = (
{
background = {
shapes = (
{
closed = 1;
nodes = (
(60,240,ls),
(60,98,o),
(146,-14,o),
(306,-14,cs),
(460,-14,o),
(552,86,o),
(552,272,cs),
(552,428,ls),
(552,608,o),
(460,714,o),
(306,714,cs),
(146,714,o),
(60,602,o),
(60,460,cs),
(60,448,l),
(144,448,l),
(144,460,l),
(146,552,o),
(192,638,o),
(306,638,cs),
(414,638,o),
(468,550,o),
(468,422,cs),
(468,362,l),
(60,362,l)
);
},
{
closed = 1;
nodes = (
(192,62,o),
(144,148,o),
(144,240,cs),
(144,284,l),
(468,284,l),
(468,278,ls),
(468,142,o),
(414,62,o),
(306,62,cs)
);
}
);
};
guides = (
{
pos = (0,284);
},
{
pos = (0,384);
},
{
pos = (0,470);
},
{
pos = (0,498);
}
);
layerId = "F786B9CF-2625-4E74-A523-7F1B392BEC63";
shapes = (
{
closed = 1;
nodes = (
(460,-14,o),
(552,86,o),
(552,272,cs),
(552,428,ls),
(552,608,o),
(460,714,o),
(306,714,cs),
(146,714,o),
(60,602,o),
(60,460,cs),
(60,448,l),
(144,448,l),
(144,460,l),
(146,552,o),
(192,638,o),
(306,638,cs),
(414,638,o),
(468,550,o),
(468,422,cs),
(468,362,l),
(60,362,l),
(60,240,ls),
(60,98,o),
(146,-14,o),
(306,-14,cs)
);
},
{
closed = 1;
nodes = (
(192,62,o),
(144,148,o),
(144,240,cs),
(144,284,l),
(468,284,l),
(468,278,ls),
(468,142,o),
(414,62,o),
(306,62,cs)
);
}
);
width = 612;
}
);
unicode = 399;
},
{
glyphname = F;
lastChange = "2024-08-29 00:27:31 +0000";
layers = (
{
anchors = (
{
name = bottom;
pos = (306,0);
},
{
name = top;
pos = (306,700);
}
);
background = {
shapes = (
{
closed = 1;
nodes = (
(95,0,l),
(179,0,l),
(179,312,l),
(519,312,l),
(519,390,l),
(179,390,l),
(179,622,l),
(525,622,l),
(525,700,l),
(95,700,l)
);
}
);
};
layerId = "F786B9CF-2625-4E74-A523-7F1B392BEC63";
shapes = (
{
closed = 1;
nodes = (
(179,0,l),
(179,312,l),
(519,312,l),
(519,390,l),
(179,390,l),
(179,622,l),
(525,622,l),
(525,700,l),
(95,700,l),
(95,0,l)
);
}
);
width = 612;
}
);
unicode = 70;
},
{
color = 3;
glyphname = G;
lastChange = "2024-08-29 02:59:26 +0000";
layers = (
{
anchors = (
{
name = bottom;
pos = (304,0);
},
{
name = top;
pos = (306,700);
}
);
background = {
shapes = (
{
closed = 1;
nodes = (
(239,258,l),
(467,258,l),
(467,246,ls),
(467,132,o),
(406,64,o),
(307,64,cs),
(197,64,o),
(143,142,o),
(143,278,cs),
(143,422,ls),
(143,550,o),
(197,636,o),
(305,636,cs),
(419,636,o),
(467,552,o),
(467,460,cs),
(467,448,l),
(551,448,l),
(551,460,ls),
(551,602,o),
(465,714,o),
(305,714,cs),
(151,714,o),
(59,608,o),
(59,428,cs),
(59,272,ls),
(59,86,o),
(151,-14,o),
(301,-14,cs),
(377,-14,o),
(439,26,o),
(461,84,c),
(473,84,l),
(473,0,l),
(551,0,l),
(551,336,l),
(239,336,l)
);
}
);
};
layerId = "F786B9CF-2625-4E74-A523-7F1B392BEC63";
shapes = (
{
closed = 1;
nodes = (
(377,-14,o),
(439,26,o),
(461,84,c),
(473,84,l),
(473,0,l),
(551,0,l),
(551,336,l),
(239,336,l),
(239,258,l),
(467,258,l),
(467,246,ls),
(467,132,o),
(406,64,o),
(307,64,cs),
(197,64,o),
(143,142,o),
(143,278,cs),
(143,422,ls),
(143,550,o),
(197,636,o),
(305,636,cs),
(419,636,o),
(467,552,o),
(467,460,cs),
(467,448,l),
(551,448,l),
(551,460,ls),
(551,602,o),
(465,714,o),
(305,714,cs),
(151,714,o),
(59,608,o),
(59,428,cs),
(59,272,ls),
(59,86,o),
(151,-14,o),
(301,-14,cs)
);
}
);
width = 612;
}
);
unicode = 71;
},
{
color = 4;
glyphname = Gbreve;
lastChange = "2024-08-29 01:45:04 +0000";
layers = (
{
associatedMasterId = "F786B9CF-2625-4E74-A523-7F1B392BEC63";
layerId = "60B433FB-7962-4D91-9D7B-25075E58E57A";
name = img;
width = 612;
},
{
background = {
shapes = (
{
closed = 1;
nodes = (
(239,258,l),
(467,258,l),
(467,246,ls),
(467,132,o),
(406,64,o),
(307,64,cs),
(197,64,o),
(143,142,o),
(143,278,cs),
(143,422,ls),
(143,550,o),
(197,636,o),
(305,636,cs),
(419,636,o),
(467,552,o),
(467,460,cs),
(467,448,l),
(551,448,l),
(551,460,ls),
(551,602,o),
(465,714,o),
(305,714,cs),
(151,714,o),
(59,608,o),
(59,428,cs),
(59,272,ls),
(59,86,o),
(151,-14,o),
(301,-14,cs),
(377,-14,o),
(439,26,o),
(461,84,c),
(473,84,l),
(473,0,l),
(551,0,l),
(551,336,l),
(239,336,l)
);
},
{
closed = 1;
nodes = (
(344,892,l),
(344,880,l),
(344,859,o),
(330,841,o),
(305,841,cs),
(280,841,o),
(266,859,o),
(266,880,c),
(266,892,l),
(197,892,l),
(197,882,l),
(197,818,o),
(239,774,o),
(305,774,cs),
(371,774,o),
(413,818,o),
(413,882,c),
(413,892,l)
);
}
);
};
guides = (
{
pos = (0,774);
},
{
angle = 90;
pos = (305,0);
}
);
layerId = "F786B9CF-2625-4E74-A523-7F1B392BEC63";
shapes = (
{
ref = G;
},
{
pos = (148,204);
ref = brevecomb;
}
);
width = 612;
}
);
unicode = 286;
},
{
color = 4;
glyphname = Gcaron;
lastChange = "2024-08-29 02:16:24 +0000";
layers = (
{
background = {
shapes = (
{
closed = 1;
nodes = (
(239,258,l),
(467,258,l),
(467,246,ls),
(467,132,o),
(406,64,o),
(307,64,cs),
(197,64,o),
(143,142,o),
(143,278,cs),
(143,422,ls),
(143,550,o),
(197,636,o),
(305,636,cs),
(419,636,o),
(467,552,o),
(467,460,cs),
(467,448,l),
(551,448,l),
(551,460,ls),
(551,602,o),
(465,714,o),
(305,714,cs),
(151,714,o),
(59,608,o),
(59,428,cs),
(59,272,ls),
(59,86,o),
(151,-14,o),
(301,-14,cs),
(377,-14,o),
(439,26,o),
(461,84,c),
(473,84,l),
(473,0,l),
(551,0,l),
(551,336,l),
(239,336,l)
);
},
{
closed = 1;
nodes = (
(363,892,l),
(311,804,l),
(299,804,l),
(247,892,l),
(163,892,l),
(243,774,l),
(367,774,l),
(447,892,l)
);
}
);
};
layerId = "F786B9CF-2625-4E74-A523-7F1B392BEC63";
shapes = (
{
ref = G;
},
{
pos = (0,204);
ref = caroncomb;
}
);
width = 612;
}
);
unicode = 486;
},
{
color = 4;
glyphname = Gcircumflex;
lastChange = "2024-08-29 02:31:04 +0000";
layers = (
{
associatedMasterId = "F786B9CF-2625-4E74-A523-7F1B392BEC63";
layerId = "60B433FB-7962-4D91-9D7B-25075E58E57A";
name = img;
width = 612;
},
{
background = {
shapes = (
{
closed = 1;
nodes = (
(239,258,l),
(467,258,l),
(467,246,ls),
(467,132,o),
(406,64,o),
(307,64,cs),
(197,64,o),
(143,142,o),
(143,278,cs),
(143,422,ls),
(143,550,o),
(197,636,o),
(305,636,cs),
(419,636,o),
(467,552,o),
(467,460,cs),
(467,448,l),
(551,448,l),
(551,460,ls),
(551,602,o),
(465,714,o),
(305,714,cs),
(151,714,o),
(59,608,o),
(59,428,cs),
(59,272,ls),
(59,86,o),
(151,-14,o),
(301,-14,cs),
(377,-14,o),
(439,26,o),
(461,84,c),
(473,84,l),
(473,0,l),
(551,0,l),
(551,336,l),
(239,336,l)
);
},
{
closed = 1;
nodes = (
(447,774,l),
(367,892,l),
(243,892,l),
(163,774,l),
(247,774,l),
(299,862,l),
(311,862,l),
(363,774,l)
);
}
);
};
guides = (
{
angle = 90;
pos = (305,0);
}
);
layerId = "F786B9CF-2625-4E74-A523-7F1B392BEC63";
shapes = (
{
ref = G;
},
{
pos = (0,204);
ref = circumflexcomb;
}
);
width = 612;
}
);
unicode = 284;
},
{
color = 4;
glyphname = Gcommaaccent;
lastChange = "2024-08-29 02:51:55 +0000";
layers = (
{
associatedMasterId = "F786B9CF-2625-4E74-A523-7F1B392BEC63";
layerId = "60B433FB-7962-4D91-9D7B-25075E58E57A";
name = img;
width = 612;
},
{
background = {
shapes = (
{
closed = 1;
nodes = (
(239,258,l),
(467,258,l),
(467,246,ls),
(467,132,o),
(406,64,o),
(307,64,cs),
(197,64,o),
(143,142,o),
(143,278,cs),
(143,422,ls),
(143,550,o),
(197,636,o),
(305,636,cs),
(419,636,o),
(467,552,o),
(467,460,cs),
(467,448,l),
(551,448,l),
(551,460,ls),
(551,602,o),
(465,714,o),
(305,714,cs),
(151,714,o),
(59,608,o),
(59,428,cs),
(59,272,ls),
(59,86,o),
(151,-14,o),
(301,-14,cs),
(377,-14,o),
(439,26,o),
(461,84,c),
(473,84,l),
(473,0,l),
(551,0,l),
(551,336,l),
(239,336,l)
);
},
{
closed = 1;
nodes = (
(231,-152,o),
(263,-184,o),
(300,-184,cs),
(306,-184,o),
(312,-183,o),
(317,-181,c),
(317,-206,ls),
(317,-225,o),
(309,-236,o),
(290,-236,cs),
(243,-236,l),
(243,-290,l),
(294,-290,ls),
(339,-290,o),
(371,-257,o),
(371,-212,cs),
(371,-114,ls),
(371,-76,o),
(339,-44,o),
(301,-44,cs),
(263,-44,o),
(231,-76,o),
(231,-114,cs)
);
}
);
};
guides = (
{
pos = (0,-44);
},
{
angle = 90;
pos = (301,0);
}
);
layerId = "F786B9CF-2625-4E74-A523-7F1B392BEC63";
shapes = (
{
ref = G;
},
{
pos = (184,0);
ref = commaaccentcomb;
}
);
width = 612;
}
);
unicode = 290;
},
{
color = 4;
glyphname = Gdotaccent;
lastChange = "2024-08-29 02:44:02 +0000";
layers = (
{
associatedMasterId = "F786B9CF-2625-4E74-A523-7F1B392BEC63";
layerId = "60B433FB-7962-4D91-9D7B-25075E58E57A";
name = img;
width = 612;
},
{
background = {
shapes = (
{
closed = 1;
nodes = (
(239,258,l),
(467,258,l),
(467,246,ls),
(467,132,o),
(406,64,o),
(307,64,cs),
(197,64,o),
(143,142,o),
(143,278,cs),
(143,422,ls),
(143,550,o),
(197,636,o),
(305,636,cs),
(419,636,o),
(467,552,o),
(467,460,cs),
(467,448,l),
(551,448,l),
(551,460,ls),
(551,602,o),
(465,714,o),
(305,714,cs),
(151,714,o),
(59,608,o),
(59,428,cs),
(59,272,ls),
(59,86,o),
(151,-14,o),
(301,-14,cs),
(377,-14,o),
(439,26,o),
(461,84,c),
(473,84,l),
(473,0,l),
(551,0,l),
(551,336,l),
(239,336,l)
);
},
{
closed = 1;
nodes = (
(235,810,o),
(267,778,o),
(305,778,cs),
(343,778,o),
(375,810,o),
(375,848,cs),
(375,886,o),
(343,918,o),
(305,918,cs),
(267,918,o),
(235,886,o),
(235,848,cs)
);
}
);
};
guides = (
{
angle = 90;
pos = (305,0);
}
);
layerId = "F786B9CF-2625-4E74-A523-7F1B392BEC63";
shapes = (
{
ref = G;
},
{
pos = (0,204);
ref = dotaccentcomb;
}
);
width = 612;
}
);
unicode = 288;
},
{
color = 4;
glyphname = Gmacron;
lastChange = "2024-08-29 02:47:14 +0000";
layers = (
{
background = {
shapes = (
{
closed = 1;
nodes = (
(239,258,l),
(467,258,l),
(467,246,ls),
(467,132,o),
(406,64,o),
(307,64,cs),
(197,64,o),
(143,142,o),
(143,278,cs),
(143,422,ls),
(143,550,o),
(197,636,o),
(305,636,cs),
(419,636,o),
(467,552,o),
(467,460,cs),
(467,448,l),
(551,448,l),
(551,460,ls),
(551,602,o),
(465,714,o),
(305,714,cs),
(151,714,o),
(59,608,o),
(59,428,cs),
(59,272,ls),
(59,86,o),
(151,-14,o),
(301,-14,cs),
(377,-14,o),
(439,26,o),
(461,84,c),
(473,84,l),
(473,0,l),
(551,0,l),
(551,336,l),
(239,336,l)
);
},
{
closed = 1;
nodes = (
(446,774,l),
(446,840,l),
(164,840,l),
(164,774,l)
);
}
);
};
guides = (
{
angle = 90;
pos = (305,0);
}
);
layerId = "F786B9CF-2625-4E74-A523-7F1B392BEC63";
shapes = (
{
ref = G;
},
{
pos = (115,204);
ref = macroncomb;
}
);
width = 612;
}
);
unicode = 7712;
},
{
glyphname = H;
lastChange = "2024-08-29 00:27:42 +0000";
layers = (
{
anchors = (
{
name = bottom;
pos = (306,0);
},
{
name = center;
pos = (306,525);
},
{
name = top;
pos = (306,700);
},
{
name = topleft;
pos = (20,700);
}
);
background = {
shapes = (
{
closed = 1;
nodes = (
(73,0,l),
(157,0,l),
(157,312,l),
(455,312,l),
(455,0,l),
(539,0,l),
(539,700,l),
(455,700,l),
(455,390,l),
(157,390,l),
(157,700,l),
(73,700,l)
);
}
);
};
guides = (
{
pos = (0,350);
}
);
layerId = "F786B9CF-2625-4E74-A523-7F1B392BEC63";
shapes = (
{
closed = 1;
nodes = (
(157,0,l),
(157,312,l),
(455,312,l),
(455,0,l),
(539,0,l),
(539,700,l),
(455,700,l),
(455,390,l),
(157,390,l),
(157,700,l),
(73,700,l),
(73,0,l)
);
}
);
width = 612;
}
);
unicode = 72;
},
{
glyphname = Hbar;
lastChange = "2024-08-29 00:25:29 +0000";
layers = (
{
associatedMasterId = "F786B9CF-2625-4E74-A523-7F1B392BEC63";
layerId = "60B433FB-7962-4D91-9D7B-25075E58E57A";
name = img;
width = 612;
},
{
background = {
shapes = (
{
closed = 1;
nodes = (
(73,0,l),
(157,0,l),
(157,312,l),
(455,312,l),
(455,0,l),
(539,0,l),
(539,496,l),
(599,496,l),
(599,574,l),
(539,574,l),
(539,700,l),
(455,700,l),
(455,574,l),
(157,574,l),
(157,700,l),
(73,700,l),
(73,574,l),
(13,574,l),
(13,496,l),
(73,496,l)
);
},
{
closed = 1;
nodes = (
(157,390,l),
(157,496,l),
(455,496,l),
(455,390,l)
);
}
);
};
layerId = "F786B9CF-2625-4E74-A523-7F1B392BEC63";
shapes = (
{
closed = 1;
nodes = (
(73,0,l),
(157,0,l),
(157,312,l),
(455,312,l),
(455,0,l),
(539,0,l),
(539,496,l),
(599,496,l),
(599,574,l),
(539,574,l),
(539,700,l),
(455,700,l),
(455,574,l),
(157,574,l),
(157,700,l),
(73,700,l),
(73,574,l),
(13,574,l),
(13,496,l),
(73,496,l)
);
},
{
closed = 1;
nodes = (
(157,390,l),
(157,496,l),
(455,496,l),
(455,390,l)
);
}
);
width = 612;
}
);
unicode = 294;
},
{
color = 4;
glyphname = Hbrevebelow;
lastChange = "2024-08-29 01:45:04 +0000";
layers = (
{
background = {
shapes = (
{
closed = 1;
nodes = (
(73,0,l),
(157,0,l),
(157,312,l),
(455,312,l),
(455,0,l),
(539,0,l),
(539,700,l),
(455,700,l),
(455,390,l),
(157,390,l),
(157,700,l),
(73,700,l)
);
},
{
closed = 1;
nodes = (
(345,-64,l),
(345,-76,l),
(345,-97,o),
(331,-115,o),
(306,-115,cs),
(281,-115,o),
(267,-97,o),
(267,-76,c),
(267,-64,l),
(198,-64,l),
(198,-74,l),
(198,-138,o),
(240,-182,o),
(306,-182,cs),
(372,-182,o),
(414,-138,o),
(414,-74,c),
(414,-64,l)
);
}
);
};
guides = (
{
pos = (0,-64);
}
);
layerId = "F786B9CF-2625-4E74-A523-7F1B392BEC63";
shapes = (
{
ref = H;
},
{
ref = brevebelowcomb;
}
);
width = 612;
}
);
unicode = 7722;
},
{
color = 4;
glyphname = Hcircumflex;
lastChange = "2024-08-29 02:31:04 +0000";
layers = (
{
associatedMasterId = "F786B9CF-2625-4E74-A523-7F1B392BEC63";
layerId = "60B433FB-7962-4D91-9D7B-25075E58E57A";
name = img;
width = 612;
},
{
background = {
shapes = (
{
closed = 1;
nodes = (
(73,0,l),
(157,0,l),
(157,312,l),
(455,312,l),
(455,0,l),
(539,0,l),
(539,700,l),
(455,700,l),
(455,390,l),
(157,390,l),
(157,700,l),
(73,700,l)
);
},
{
closed = 1;
nodes = (
(448,774,l),
(368,892,l),
(244,892,l),
(164,774,l),
(248,774,l),
(300,862,l),
(312,862,l),
(364,774,l)
);
}
);
};
layerId = "F786B9CF-2625-4E74-A523-7F1B392BEC63";
shapes = (
{
ref = H;
},
{
pos = (0,204);
ref = circumflexcomb;
}
);
width = 612;
}
);
unicode = 292;
},
{
color = 4;
glyphname = Hdotbelow;
lastChange = "2024-08-29 02:44:02 +0000";
layers = (
{
background = {
shapes = (
{
closed = 1;
nodes = (
(73,0,l),
(157,0,l),
(157,312,l),
(455,312,l),
(455,0,l),
(539,0,l),
(539,700,l),
(455,700,l),
(455,390,l),
(157,390,l),
(157,700,l),
(73,700,l)
);
},
{
closed = 1;
nodes = (
(236,-172,o),
(268,-204,o),
(306,-204,cs),
(344,-204,o),
(376,-172,o),
(376,-134,cs),
(376,-96,o),
(344,-64,o),
(306,-64,cs),
(268,-64,o),
(236,-96,o),
(236,-134,cs)
);
}
);
};
guides = (
{
pos = (0,-64);
}
);
layerId = "F786B9CF-2625-4E74-A523-7F1B392BEC63";
shapes = (
{
ref = H;
},
{
ref = dotbelowcomb;
}
);
width = 612;
}
);
unicode = 7716;
},
{
glyphname = I;
lastChange = "2024-08-29 02:24:15 +0000";
layers = (
{
anchors = (
{
name = bottom;
pos = (306,0);
},
{
name = ogonek;
pos = (551,10);
},
{
name = top;
pos = (308,700);
},
{
name = topleft;
pos = (20,700);
}
);
background = {
shapes = (
{
closed = 1;
nodes = (
(84,622,l),
(264,622,l),
(264,78,l),
(84,78,l),
(84,0,l),
(528,0,l),
(528,78,l),
(348,78,l),
(348,622,l),
(528,622,l),
(528,700,l),
(84,700,l)
);
}
);
};
layerId = "F786B9CF-2625-4E74-A523-7F1B392BEC63";
shapes = (
{
closed = 1;
nodes = (
(528,0,l),
(528,78,l),
(348,78,l),
(348,622,l),
(528,622,l),
(528,700,l),
(84,700,l),
(84,622,l),
(264,622,l),
(264,78,l),
(84,78,l),
(84,0,l)
);
}
);
width = 612;
}
);
unicode = 73;
},
{
glyphname = IJ;
lastChange = "2024-08-29 00:25:29 +0000";
layers = (
{
background = {
shapes = (
{
closed = 1;
nodes = (
(73,342,l),
(157,342,l),
(157,700,l),
(73,700,l)
);
},
{
closed = 1;
nodes = (
(505,622,l),
(565,622,l),
(565,700,l),
(349,700,l),
(349,622,l),
(421,622,l),
(421,210,ls),
(421,122,o),
(388,64,o),
(295,64,cs),
(202,64,o),
(157,122,o),
(157,210,cs),
(157,264,l),
(73,264,l),
(73,210,ls),
(73,66,o),
(159,-14,o),
(295,-14,cs),
(431,-14,o),
(505,66,o),
(505,210,c)
);
}
);
};
layerId = "F786B9CF-2625-4E74-A523-7F1B392BEC63";
shapes = (
{
closed = 1;
nodes = (
(73,342,l),
(157,342,l),
(157,700,l),
(73,700,l)
);
},
{
closed = 1;
nodes = (
(505,622,l),
(565,622,l),
(565,700,l),
(349,700,l),
(349,622,l),
(421,622,l),
(421,210,ls),
(421,122,o),
(388,64,o),
(295,64,cs),
(202,64,o),
(157,122,o),
(157,210,cs),
(157,264,l),
(73,264,l),
(73,210,ls),
(73,66,o),
(159,-14,o),
(295,-14,cs),
(431,-14,o),
(505,66,o),
(505,210,c)
);
}
);
width = 612;
}
);
unicode = 306;
},
{
color = 4;
glyphname = Iacute;
lastChange = "2024-08-29 02:02:39 +0000";
layers = (
{
background = {
shapes = (
{
closed = 1;
nodes = (
(84,622,l),
(264,622,l),
(264,78,l),
(84,78,l),
(84,0,l),
(528,0,l),
(528,78,l),
(348,78,l),
(348,622,l),
(528,622,l),
(528,700,l),
(84,700,l)
);
},
{
closed = 1;
nodes = (
(336,892,l),
(270,774,l),
(342,774,l),
(426,892,l)
);
}
);
};
guides = (
{
angle = 90;
pos = (306,0);
}
);
layerId = "F786B9CF-2625-4E74-A523-7F1B392BEC63";
shapes = (
{
ref = I;
},
{
pos = (229,204);
ref = acutecomb;
}
);
width = 612;
}
);
unicode = 205;
},
{
color = 4;
glyphname = Ibreve;
lastChange = "2024-08-29 01:45:04 +0000";
layers = (
{
associatedMasterId = "F786B9CF-2625-4E74-A523-7F1B392BEC63";
layerId = "60B433FB-7962-4D91-9D7B-25075E58E57A";
name = img;
width = 612;
},
{
background = {
shapes = (
{
closed = 1;
nodes = (
(84,622,l),
(264,622,l),
(264,78,l),
(84,78,l),
(84,0,l),
(528,0,l),
(528,78,l),
(348,78,l),
(348,622,l),
(528,622,l),
(528,700,l),
(84,700,l)
);
},
{
closed = 1;
nodes = (
(345,892,l),
(345,880,l),
(345,859,o),
(331,841,o),
(306,841,cs),
(281,841,o),
(267,859,o),
(267,880,c),
(267,892,l),
(198,892,l),
(198,882,l),
(198,818,o),
(240,774,o),
(306,774,cs),
(372,774,o),
(414,818,o),
(414,882,c),
(414,892,l)
);
}
);
};
layerId = "F786B9CF-2625-4E74-A523-7F1B392BEC63";
shapes = (
{
ref = I;
},
{
pos = (150,204);
ref = brevecomb;
}
);
width = 612;
}
);
unicode = 300;
},
{
color = 4;
glyphname = Icaron;
lastChange = "2024-08-29 02:16:24 +0000";
layers = (
{
background = {
shapes = (
{
closed = 1;
nodes = (
(84,622,l),
(264,622,l),
(264,78,l),
(84,78,l),
(84,0,l),
(528,0,l),
(528,78,l),
(348,78,l),
(348,622,l),
(528,622,l),
(528,700,l),
(84,700,l)
);
},
{
closed = 1;
nodes = (
(364,892,l),
(312,804,l),
(300,804,l),
(248,892,l),
(164,892,l),
(244,774,l),
(368,774,l),
(448,892,l)
);
}
);
};
layerId = "F786B9CF-2625-4E74-A523-7F1B392BEC63";
shapes = (
{
ref = I;
},
{
pos = (2,204);
ref = caroncomb;
}
);
width = 612;
}
);
unicode = 463;
},
{
color = 4;
glyphname = Icircumflex;
lastChange = "2024-08-29 02:31:04 +0000";
layers = (
{
background = {
shapes = (
{
closed = 1;
nodes = (
(84,622,l),
(264,622,l),
(264,78,l),
(84,78,l),
(84,0,l),
(528,0,l),
(528,78,l),
(348,78,l),
(348,622,l),
(528,622,l),
(528,700,l),
(84,700,l)
);
},
{
closed = 1;
nodes = (
(448,774,l),
(368,892,l),
(244,892,l),
(164,774,l),
(248,774,l),
(300,862,l),
(312,862,l),
(364,774,l)
);
}
);
};
layerId = "F786B9CF-2625-4E74-A523-7F1B392BEC63";
shapes = (
{
ref = I;
},
{
pos = (2,204);
ref = circumflexcomb;
}
);
width = 612;
}
);
unicode = 206;
},
{
color = 4;
glyphname = Idieresis;
lastChange = "2024-08-29 02:59:17 +0000";
layers = (
{
background = {
shapes = (
{
closed = 1;
nodes = (
(84,622,l),
(264,622,l),
(264,78,l),
(84,78,l),
(84,0,l),
(528,0,l),
(528,78,l),
(348,78,l),
(348,622,l),
(528,622,l),
(528,700,l),
(84,700,l)
);
},
{
closed = 1;
nodes = (
(136,810,o),
(168,778,o),
(206,778,cs),
(244,778,o),
(276,810,o),
(276,848,cs),
(276,886,o),
(244,918,o),
(206,918,cs),
(168,918,o),
(136,886,o),
(136,848,cs)
);
},
{
closed = 1;
nodes = (
(336,810,o),
(368,778,o),
(406,778,cs),
(444,778,o),
(476,810,o),
(476,848,cs),
(476,886,o),
(444,918,o),
(406,918,cs),
(368,918,o),
(336,886,o),
(336,848,cs)
);
}
);
};
guides = (
{
pos = (0,778);
}
);
layerId = "F786B9CF-2625-4E74-A523-7F1B392BEC63";
shapes = (
{
ref = I;
},
{
pos = (88,0);
ref = dieresiscomb.case;
}
);
width = 612;
}
);
unicode = 207;
},
{
color = 4;
glyphname = Idotaccent;
lastChange = "2024-08-29 02:44:02 +0000";
layers = (
{
associatedMasterId = "F786B9CF-2625-4E74-A523-7F1B392BEC63";
layerId = "60B433FB-7962-4D91-9D7B-25075E58E57A";
name = img;
width = 612;
},
{
background = {
shapes = (
{
closed = 1;
nodes = (
(84,622,l),
(264,622,l),
(264,78,l),
(84,78,l),
(84,0,l),
(528,0,l),
(528,78,l),
(348,78,l),
(348,622,l),
(528,622,l),
(528,700,l),
(84,700,l)
);
},
{
closed = 1;
nodes = (
(236,810,o),
(268,778,o),
(306,778,cs),
(344,778,o),
(376,810,o),
(376,848,cs),
(376,886,o),
(344,918,o),
(306,918,cs),
(268,918,o),
(236,886,o),
(236,848,cs)
);
}
);
};
guides = (
{
pos = (0,778);
}
);
layerId = "F786B9CF-2625-4E74-A523-7F1B392BEC63";
shapes = (
{
ref = I;
},
{
pos = (2,204);
ref = dotaccentcomb;
}
);
width = 612;
}
);
unicode = 304;
},
{
color = 4;
glyphname = Idotbelow;
lastChange = "2024-08-29 02:44:02 +0000";
layers = (
{
background = {
shapes = (
{
closed = 1;
nodes = (
(84,622,l),
(264,622,l),
(264,78,l),
(84,78,l),
(84,0,l),
(528,0,l),
(528,78,l),
(348,78,l),
(348,622,l),
(528,622,l),
(528,700,l),
(84,700,l)
);
},
{
closed = 1;
nodes = (
(236,-172,o),
(268,-204,o),
(306,-204,cs),
(344,-204,o),
(376,-172,o),
(376,-134,cs),
(376,-96,o),
(344,-64,o),
(306,-64,cs),
(268,-64,o),
(236,-96,o),
(236,-134,cs)
);
}
);
};
layerId = "F786B9CF-2625-4E74-A523-7F1B392BEC63";
shapes = (
{
ref = I;
},
{
ref = dotbelowcomb;
}
);
width = 612;
}
);
unicode = 7882;
},
{
color = 4;
glyphname = Igrave;
lastChange = "2024-08-29 03:04:57 +0000";
layers = (
{
background = {
shapes = (
{
closed = 1;
nodes = (
(84,622,l),
(264,622,l),
(264,78,l),
(84,78,l),
(84,0,l),
(528,0,l),
(528,78,l),
(348,78,l),
(348,622,l),
(528,622,l),
(528,700,l),
(84,700,l)
);
},
{
closed = 1;
nodes = (
(184,892,l),
(268,774,l),
(340,774,l),
(274,892,l)
);
}
);
};
layerId = "F786B9CF-2625-4E74-A523-7F1B392BEC63";
shapes = (
{
ref = I;
},
{
pos = (140,204);
ref = gravecomb;
}
);
width = 612;
}
);
unicode = 204;
},
{
color = 4;
glyphname = Ihookabove;
lastChange = "2024-08-29 02:34:06 +0000";
layers = (
{
background = {
shapes = (
{
closed = 1;
nodes = (
(84,622,l),
(264,622,l),
(264,78,l),
(84,78,l),
(84,0,l),
(528,0,l),
(528,78,l),
(348,78,l),
(348,622,l),
(528,622,l),
(528,700,l),
(84,700,l)
);
},
{
closed = 1;
nodes = (
(306,818,l),
(312,818,l),
(320,798,o),
(338,786,o),
(366,786,cs),
(412,786,o),
(442,825,o),
(442,871,cs),
(442,926,o),
(401,962,o),
(349,962,cs),
(292,962,o),
(262,932,o),
(252,892,c),
(300,874,l),
(304,894,o),
(319,914,o),
(348,914,cs),
(368,914,o),
(388,901,o),
(388,872,cs),
(388,848,o),
(372,834,o),
(353,834,cs),
(341,834,o),
(332,840,o),
(328,848,c),
(252,848,l),
(252,842,l),
(272,750,l),
(321,750,l)
);
}
);
};
guides = (
{
pos = (0,774);
},
{
angle = 90;
pos = (306,0);
}
);
layerId = "F786B9CF-2625-4E74-A523-7F1B392BEC63";
shapes = (
{
ref = I;
},
{
pos = (43,204);
ref = hookabovecomb;
}
);
width = 612;
}
);
unicode = 7880;
},
{
color = 4;
glyphname = Imacron;
lastChange = "2024-08-29 02:47:14 +0000";
layers = (
{
associatedMasterId = "F786B9CF-2625-4E74-A523-7F1B392BEC63";
layerId = "60B433FB-7962-4D91-9D7B-25075E58E57A";
name = img;
width = 612;
},
{
background = {
shapes = (
{
closed = 1;
nodes = (
(84,622,l),
(264,622,l),
(264,78,l),
(84,78,l),
(84,0,l),
(528,0,l),
(528,78,l),
(348,78,l),
(348,622,l),
(528,622,l),
(528,700,l),
(84,700,l)
);
},
{
closed = 1;
nodes = (
(447,774,l),
(447,840,l),
(165,840,l),
(165,774,l)
);
}
);
};
layerId = "F786B9CF-2625-4E74-A523-7F1B392BEC63";
shapes = (
{
ref = I;
},
{
pos = (117,204);
ref = macroncomb;
}
);
width = 612;
}
);
unicode = 298;
},
{
color = 3;
glyphname = Iogonek;
lastChange = "2024-08-29 03:02:47 +0000";
layers = (
{
associatedMasterId = "F786B9CF-2625-4E74-A523-7F1B392BEC63";
layerId = "60B433FB-7962-4D91-9D7B-25075E58E57A";
name = img;
width = 612;
},
{
background = {
shapes = (
{
closed = 1;
nodes = (
(84,622,l),
(264,622,l),
(264,78,l),
(84,78,l),
(84,0,l),
(459,0,l),
(445,-66,ls),
(443,-76,o),
(442,-83,o),
(442,-90,cs),
(442,-139,o),
(480,-164,o),
(520,-164,cs),
(576,-164,l),
(576,-98,l),
(534,-98,ls),
(520,-98,o),
(511,-90,o),
(511,-76,cs),
(511,-75,o),
(511,-73,o),
(512,-68,cs),
(528,0,l),
(528,78,l),
(348,78,l),
(348,622,l),
(528,622,l),
(528,700,l),
(84,700,l)
);
}
);
};
guides = (
{
angle = 90;
pos = (306,0);
}
);
layerId = "F786B9CF-2625-4E74-A523-7F1B392BEC63";
shapes = (
{
closed = 1;
nodes = (
(576,-164,l),
(576,-98,l),
(534,-98,ls),
(520,-98,o),
(511,-90,o),
(511,-76,cs),
(511,-75,o),
(511,-73,o),
(512,-68,cs),
(528,0,l),
(528,78,l),
(348,78,l),
(348,622,l),
(528,622,l),
(528,700,l),
(84,700,l),
(84,622,l),
(264,622,l),
(264,78,l),
(84,78,l),
(84,0,l),
(459,0,l),
(445,-66,ls),
(443,-76,o),
(442,-83,o),
(442,-90,cs),
(442,-139,o),
(480,-164,o),
(520,-164,cs)
);
}
);
width = 612;
}
);
unicode = 302;
},
{
color = 4;
glyphname = Itilde;
lastChange = "2024-08-29 03:20:44 +0000";
layers = (
{
associatedMasterId = "F786B9CF-2625-4E74-A523-7F1B392BEC63";
layerId = "60B433FB-7962-4D91-9D7B-25075E58E57A";
name = img;
width = 612;
},
{
background = {
shapes = (
{
closed = 1;
nodes = (
(84,622,l),
(264,622,l),
(264,78,l),
(84,78,l),
(84,0,l),
(528,0,l),
(528,78,l),
(348,78,l),
(348,622,l),
(528,622,l),
(528,700,l),
(84,700,l)
);
},
{
closed = 1;
nodes = (
(313,889,o),
(295,907,o),
(256,907,cs),
(220,907,o),
(196,888,o),
(177,865,cs),
(136,816,l),
(185,774,l),
(231,827,ls),
(239,836,o),
(245,839,o),
(253,839,cs),
(264,839,o),
(268,833,o),
(277,817,cs),
(299,776,o),
(317,758,o),
(358,758,cs),
(393,758,o),
(417,777,o),
(436,800,cs),
(477,849,l),
(428,891,l),
(380,836,ls),
(374,829,o),
(368,826,o),
(361,826,cs),
(349,826,o),
(344,833,o),
(337,846,cs)
);
}
);
};
guides = (
{
pos = (0,774);
}
);
layerId = "F786B9CF-2625-4E74-A523-7F1B392BEC63";
shapes = (
{
ref = I;
},
{
pos = (87,204);
ref = tildecomb;
}
);
width = 612;
}
);
unicode = 296;
},
{
glyphname = J;
lastChange = "2024-08-29 02:24:36 +0000";
layers = (
{
anchors = (
{
name = bottom;
pos = (306,0);
},
{
name = top;
pos = (457,700);
}
);
background = {
shapes = (
{
closed = 1;
nodes = (
(505,622,l),
(565,622,l),
(565,700,l),
(349,700,l),
(349,622,l),
(421,622,l),
(421,210,ls),
(421,122,o),
(388,64,o),
(295,64,cs),
(202,64,o),
(157,122,o),
(157,210,cs),
(157,264,l),
(73,264,l),
(73,210,ls),
(73,66,o),
(159,-14,o),
(295,-14,cs),
(431,-14,o),
(505,66,o),
(505,210,c)
);
}
);
};
layerId = "F786B9CF-2625-4E74-A523-7F1B392BEC63";
shapes = (
{
closed = 1;
nodes = (
(431,-14,o),
(505,66,o),
(505,210,c),
(505,622,l),
(565,622,l),
(565,700,l),
(349,700,l),
(349,622,l),
(421,622,l),
(421,210,ls),
(421,122,o),
(388,64,o),
(295,64,cs),
(202,64,o),
(157,122,o),
(157,210,cs),
(157,264,l),
(73,264,l),
(73,210,ls),
(73,66,o),
(159,-14,o),
(295,-14,cs)
);
}
);
width = 612;
}
);
unicode = 74;
},
{
color = 4;
glyphname = Jcircumflex;
lastChange = "2024-08-29 02:31:04 +0000";
layers = (
{
associatedMasterId = "F786B9CF-2625-4E74-A523-7F1B392BEC63";
layerId = "60B433FB-7962-4D91-9D7B-25075E58E57A";
name = img;
width = 612;
},
{
background = {
shapes = (
{
closed = 1;
nodes = (
(599,774,l),
(519,892,l),
(395,892,l),
(315,774,l),
(399,774,l),
(451,862,l),
(463,862,l),
(515,774,l)
);
},
{
closed = 1;
nodes = (
(505,622,l),
(565,622,l),
(565,700,l),
(349,700,l),
(349,622,l),
(421,622,l),
(421,210,ls),
(421,122,o),
(388,64,o),
(295,64,cs),
(202,64,o),
(157,122,o),
(157,210,cs),
(157,264,l),
(73,264,l),
(73,210,ls),
(73,66,o),
(159,-14,o),
(295,-14,cs),
(431,-14,o),
(505,66,o),
(505,210,c)
);
}
);
};
guides = (
{
angle = 90;
pos = (349,0);
},
{
angle = 90;
pos = (565,0);
}
);
layerId = "F786B9CF-2625-4E74-A523-7F1B392BEC63";
shapes = (
{
ref = J;
},
{
pos = (151,204);
ref = circumflexcomb;
}
);
width = 612;
}
);
unicode = 308;
},
{
glyphname = K;
lastChange = "2024-08-29 02:48:23 +0000";
layers = (
{
anchors = (
{
name = bottom;
pos = (316,0);
},
{
name = top;
pos = (306,700);
}
);
background = {
shapes = (
{
closed = 1;
nodes = (
(173,312,l),
(196,312,l),
(475,0,l),
(581,0,l),
(581,6,l),
(279,344,l),
(279,356,l),
(569,694,l),
(569,700,l),
(465,700,l),
(196,390,l),
(173,390,l),
(173,700,l),
(89,700,l),
(89,0,l),
(173,0,l)
);
}
);
};
guides = (
{
pos = (0,356);
},
{
pos = (0,344);
},
{
pos = (0,359);
},
{
pos = (0,341);
},
{
angle = 90;
pos = (185,0);
}
);
layerId = "F786B9CF-2625-4E74-A523-7F1B392BEC63";
shapes = (
{
closed = 1;
nodes = (
(173,0,l),
(173,312,l),
(196,312,l),
(475,0,l),
(581,0,l),
(581,6,l),
(279,344,l),
(279,356,l),
(569,694,l),
(569,700,l),
(465,700,l),
(196,390,l),
(173,390,l),
(173,700,l),
(89,700,l),
(89,0,l)
);
}
);
width = 612;
}
);
unicode = 75;
},
{
color = 4;
glyphname = Kcommaaccent;
lastChange = "2024-08-29 02:51:55 +0000";
layers = (
{
associatedMasterId = "F786B9CF-2625-4E74-A523-7F1B392BEC63";
layerId = "60B433FB-7962-4D91-9D7B-25075E58E57A";
name = img;
width = 612;
},
{
background = {
shapes = (
{
closed = 1;
nodes = (
(173,312,l),
(196,312,l),
(475,0,l),
(581,0,l),
(581,6,l),
(279,344,l),
(279,356,l),
(569,694,l),
(569,700,l),
(465,700,l),
(196,390,l),
(173,390,l),
(173,700,l),
(89,700,l),
(89,0,l),
(173,0,l)
);
},
{
closed = 1;
nodes = (
(247,-152,o),
(279,-184,o),
(316,-184,cs),
(322,-184,o),
(328,-183,o),
(333,-181,c),
(333,-206,ls),
(333,-225,o),
(325,-236,o),
(306,-236,cs),
(259,-236,l),
(259,-290,l),
(310,-290,ls),
(355,-290,o),
(387,-257,o),
(387,-212,cs),
(387,-114,ls),
(387,-76,o),
(355,-44,o),
(317,-44,cs),
(279,-44,o),
(247,-76,o),
(247,-114,cs)
);
}
);
};
guides = (
{
pos = (0,-44);
},
{
angle = 90;
pos = (196,0);
},
{
angle = 90;
pos = (279,0);
}
);
layerId = "F786B9CF-2625-4E74-A523-7F1B392BEC63";
shapes = (
{
ref = K;
},
{
pos = (196,0);
ref = commaaccentcomb;
}
);
width = 612;
}
);
unicode = 310;
},
{
glyphname = L;
lastChange = "2024-08-29 02:36:13 +0000";
layers = (
{
anchors = (
{
name = bottom;
pos = (313,0);
},
{
name = center;
pos = (306,350);
},
{
name = top;
pos = (124,700);
},
{
name = topright;
pos = (386,700);
}
);
background = {
shapes = (
{
closed = 1;
nodes = (
(87,0,l),
(537,0,l),
(537,78,l),
(171,78,l),
(171,700,l),
(87,700,l)
);
}
);
};
layerId = "F786B9CF-2625-4E74-A523-7F1B392BEC63";
shapes = (
{
closed = 1;
nodes = (
(537,0,l),
(537,78,l),
(171,78,l),
(171,700,l),
(87,700,l),
(87,0,l)
);
}
);
width = 612;
}
);
unicode = 76;
},
{
color = 4;
glyphname = Lacute;
lastChange = "2024-08-29 02:02:39 +0000";
layers = (
{
associatedMasterId = "F786B9CF-2625-4E74-A523-7F1B392BEC63";
layerId = "60B433FB-7962-4D91-9D7B-25075E58E57A";
name = img;
width = 612;
},
{
background = {
shapes = (
{
closed = 1;
nodes = (
(87,0,l),
(537,0,l),
(537,78,l),
(171,78,l),
(171,700,l),
(87,700,l)
);
},
{
closed = 1;
nodes = (
(161,892,l),
(95,774,l),
(167,774,l),
(251,892,l)
);
}
);
};
layerId = "F786B9CF-2625-4E74-A523-7F1B392BEC63";
shapes = (
{
ref = L;
},
{
pos = (45,204);
ref = acutecomb;
}
);
width = 612;
}
);
unicode = 313;
},
{
color = 4;
glyphname = Lcaron;
lastChange = "2024-08-29 02:16:24 +0000";
layers = (
{
associatedMasterId = "F786B9CF-2625-4E74-A523-7F1B392BEC63";
layerId = "60B433FB-7962-4D91-9D7B-25075E58E57A";
name = img;
width = 612;
},
{
background = {
shapes = (
{
closed = 1;
nodes = (
(87,0,l),
(537,0,l),
(537,78,l),
(171,78,l),
(171,700,l),
(87,700,l)
);
},
{
closed = 1;
nodes = (
(397,592,o),
(429,560,o),
(466,560,cs),
(472,560,o),
(478,561,o),
(483,563,c),
(483,538,ls),
(483,519,o),
(475,508,o),
(456,508,cs),
(409,508,l),
(409,454,l),
(460,454,ls),
(505,454,o),
(537,487,o),
(537,532,cs),
(537,630,ls),
(537,668,o),
(505,700,o),
(467,700,cs),
(429,700,o),
(397,668,o),
(397,630,cs)
);
}
);
};
guides = (
{
angle = 90;
pos = (537,0);
}
);
layerId = "F786B9CF-2625-4E74-A523-7F1B392BEC63";
shapes = (
{
ref = L;
},
{
pos = (318,0);
ref = caroncomb.alt;
}
);
width = 612;
}
);
unicode = 317;
},
{
color = 4;
glyphname = Lcommaaccent;
lastChange = "2024-08-29 02:51:55 +0000";
layers = (
{
associatedMasterId = "F786B9CF-2625-4E74-A523-7F1B392BEC63";
layerId = "60B433FB-7962-4D91-9D7B-25075E58E57A";
name = img;
width = 612;
},
{
background = {
shapes = (
{
closed = 1;
nodes = (
(87,0,l),
(537,0,l),
(537,78,l),
(171,78,l),
(171,700,l),
(87,700,l)
);
},
{
closed = 1;
nodes = (
(243,-152,o),
(275,-184,o),
(312,-184,cs),
(318,-184,o),
(324,-183,o),
(329,-181,c),
(329,-206,ls),
(329,-225,o),
(321,-236,o),
(302,-236,cs),
(255,-236,l),
(255,-290,l),
(306,-290,ls),
(351,-290,o),
(383,-257,o),
(383,-212,cs),
(383,-114,ls),
(383,-76,o),
(351,-44,o),
(313,-44,cs),
(275,-44,o),
(243,-76,o),
(243,-114,cs)
);
}
);
};
layerId = "F786B9CF-2625-4E74-A523-7F1B392BEC63";
shapes = (
{
ref = L;
},
{
pos = (193,0);
ref = commaaccentcomb;
}
);
width = 612;
}
);
unicode = 315;
},
{
color = 4;
glyphname = Ldot;
lastChange = "2024-08-29 02:44:02 +0000";
layers = (
{
associatedMasterId = "F786B9CF-2625-4E74-A523-7F1B392BEC63";
layerId = "60B433FB-7962-4D91-9D7B-25075E58E57A";
name = img;
width = 612;
},
{
background = {
shapes = (
{
closed = 1;
nodes = (
(87,0,l),
(537,0,l),
(537,78,l),
(171,78,l),
(171,700,l),
(87,700,l)
);
},
{
closed = 1;
nodes = (
(397,312,o),
(429,280,o),
(467,280,cs),
(505,280,o),
(537,312,o),
(537,350,cs),
(537,388,o),
(505,420,o),
(467,420,cs),
(429,420,o),
(397,388,o),
(397,350,cs)
);
}
);
};
guides = (
{
angle = 90;
pos = (537,0);
}
);
layerId = "F786B9CF-2625-4E74-A523-7F1B392BEC63";
shapes = (
{
ref = L;
},
{
pos = (160,0);
ref = periodcentered;
}
);
width = 612;
}
);
unicode = 319;
},
{
color = 4;
glyphname = Ldotbelow;
lastChange = "2024-08-29 02:44:02 +0000";
layers = (
{
background = {
shapes = (
{
closed = 1;
nodes = (
(87,0,l),
(537,0,l),
(537,78,l),
(171,78,l),
(171,700,l),
(87,700,l)
);
},
{
closed = 1;
nodes = (
(243,-172,o),
(275,-204,o),
(313,-204,cs),
(351,-204,o),
(383,-172,o),
(383,-134,cs),
(383,-96,o),
(351,-64,o),
(313,-64,cs),
(275,-64,o),
(243,-96,o),
(243,-134,cs)
);
}
);
};
guides = (
{
pos = (0,-64);
},
{
angle = 90;
pos = (312,0);
}
);
layerId = "F786B9CF-2625-4E74-A523-7F1B392BEC63";
shapes = (
{
ref = L;
},
{
pos = (7,0);
ref = dotbelowcomb;
}
);
width = 612;
}
);
unicode = 7734;
},
{
color = 4;
glyphname = Ldotbelowmacron;
lastChange = "2024-08-29 02:44:02 +0000";
layers = (
{
background = {
shapes = (
{
closed = 1;
nodes = (
(87,0,l),
(537,0,l),
(537,78,l),
(171,78,l),
(171,700,l),
(87,700,l)
);
},
{
closed = 1;
nodes = (
(453,774,l),
(453,840,l),
(171,840,l),
(171,774,l)
);
},
{
closed = 1;
nodes = (
(243,-172,o),
(275,-204,o),
(313,-204,cs),
(351,-204,o),
(383,-172,o),
(383,-134,cs),
(383,-96,o),
(351,-64,o),
(313,-64,cs),
(275,-64,o),
(243,-96,o),
(243,-134,cs)
);
}
);
};
guides = (
{
pos = (0,-64);
},
{
pos = (0,774);
},
{
angle = 90;
pos = (171,0);
},
{
angle = 90;
pos = (537,0);
}
);
layerId = "F786B9CF-2625-4E74-A523-7F1B392BEC63";
shapes = (
{
ref = L;
},
{
pos = (7,0);
ref = dotbelowcomb;
},
{
alignment = -1;
pos = (6,204);
ref = macroncomb;
}
);
width = 612;
}
);
unicode = 7736;
},
{
color = 4;
glyphname = Lmacronbelow;
lastChange = "2024-08-29 02:47:14 +0000";
layers = (
{
background = {
shapes = (
{
closed = 1;
nodes = (
(87,0,l),
(537,0,l),
(537,78,l),
(171,78,l),
(171,700,l),
(87,700,l)
);
},
{
closed = 1;
nodes = (
(453,-130,l),
(453,-64,l),
(171,-64,l),
(171,-130,l)
);
}
);
};
guides = (
{
pos = (0,-64);
}
);
layerId = "F786B9CF-2625-4E74-A523-7F1B392BEC63";
shapes = (
{
ref = L;
},
{
pos = (7,0);
ref = macronbelowcomb;
}
);
width = 612;
}
);
unicode = 7738;
},
{
glyphname = Lslash;
lastChange = "2024-08-29 00:25:29 +0000";
layers = (
{
background = {
shapes = (
{
closed = 1;
nodes = (
(24,311,l),
(59,243,l),
(120,274,l),
(120,0,l),
(552,0,l),
(552,78,l),
(204,78,l),
(204,317,l),
(299,366,l),
(265,433,l),
(204,402,l),
(204,700,l),
(120,700,l),
(120,359,l)
);
}
);
};
guides = (
{
pos = (0,350);
}
);
layerId = "F786B9CF-2625-4E74-A523-7F1B392BEC63";
shapes = (
{
closed = 1;
nodes = (
(24,311,l),
(59,243,l),
(120,274,l),
(120,0,l),
(552,0,l),
(552,78,l),
(204,78,l),
(204,317,l),
(299,366,l),
(265,433,l),
(204,402,l),
(204,700,l),
(120,700,l),
(120,359,l)
);
}
);
width = 612;
}
);
unicode = 321;
},
{
glyphname = M;
lastChange = "2024-08-29 00:28:13 +0000";
layers = (
{
anchors = (
{
name = bottom;
pos = (306,0);
},
{
name = top;
pos = (306,700);
}
);
background = {
shapes = (
{
closed = 1;
nodes = (
(46,0,l),
(124,0,l),
(124,664,l),
(136,664,l),
(230,0,l),
(382,0,l),
(476,664,l),
(488,664,l),
(488,0,l),
(566,0,l),
(566,700,l),
(406,700,l),
(312,36,l),
(300,36,l),
(206,700,l),
(46,700,l)
);
}
);
};
layerId = "F786B9CF-2625-4E74-A523-7F1B392BEC63";
shapes = (
{
closed = 1;
nodes = (
(124,0,l),
(124,664,l),
(136,664,l),
(230,0,l),
(382,0,l),
(476,664,l),
(488,664,l),
(488,0,l),
(566,0,l),
(566,700,l),
(406,700,l),
(312,36,l),
(300,36,l),
(206,700,l),
(46,700,l),
(46,0,l)
);
}
);
width = 612;
}
);
unicode = 77;
},
{
color = 4;
glyphname = Mdotbelow;
lastChange = "2024-08-29 02:44:02 +0000";
layers = (
{
background = {
shapes = (
{
closed = 1;
nodes = (
(46,0,l),
(124,0,l),
(124,664,l),
(136,664,l),
(230,0,l),
(382,0,l),
(476,664,l),
(488,664,l),
(488,0,l),
(566,0,l),
(566,700,l),
(406,700,l),
(312,36,l),
(300,36,l),
(206,700,l),
(46,700,l)
);
},
{
closed = 1;
nodes = (
(236,-172,o),
(268,-204,o),
(306,-204,cs),
(344,-204,o),
(376,-172,o),
(376,-134,cs),
(376,-96,o),
(344,-64,o),
(306,-64,cs),
(268,-64,o),
(236,-96,o),
(236,-134,cs)
);
}
);
};
guides = (
{
pos = (0,-64);
}
);
layerId = "F786B9CF-2625-4E74-A523-7F1B392BEC63";
shapes = (
{
ref = M;
},
{
ref = dotbelowcomb;
}
);
width = 612;
}
);
unicode = 7746;
},
{
glyphname = N;
lastChange = "2024-08-29 01:52:03 +0000";
layers = (
{
anchors = (
{
name = bottom;
pos = (306,0);
},
{
name = top;
pos = (324,700);
}
);
background = {
shapes = (
{
closed = 1;
nodes = (
(241,700,l),
(73,700,l),
(73,0,l),
(157,0,l),
(157,664,l),
(169,664,l),
(371,0,l),
(539,0,l),
(539,700,l),
(455,700,l),
(455,36,l),
(443,36,l)
);
}
);
};
layerId = "F786B9CF-2625-4E74-A523-7F1B392BEC63";
shapes = (
{
closed = 1;
nodes = (
(157,0,l),
(157,664,l),
(169,664,l),
(371,0,l),
(539,0,l),
(539,700,l),
(455,700,l),
(455,36,l),
(443,36,l),
(241,700,l),
(73,700,l),
(73,0,l)
);
}
);
width = 612;
}
);
unicode = 78;
},
{
color = 4;
glyphname = Nacute;
lastChange = "2024-08-29 02:02:39 +0000";
layers = (
{
associatedMasterId = "F786B9CF-2625-4E74-A523-7F1B392BEC63";
layerId = "60B433FB-7962-4D91-9D7B-25075E58E57A";
name = img;
width = 612;
},
{
background = {
shapes = (
{
closed = 1;
nodes = (
(241,700,l),
(73,700,l),
(73,0,l),
(157,0,l),
(157,664,l),
(169,664,l),
(371,0,l),
(539,0,l),
(539,700,l),
(455,700,l),
(455,36,l),
(443,36,l)
);
},
{
closed = 1;
nodes = (
(382,892,l),
(316,774,l),
(388,774,l),
(472,892,l)
);
}
);
};
layerId = "F786B9CF-2625-4E74-A523-7F1B392BEC63";
shapes = (
{
ref = N;
},
{
pos = (245,204);
ref = acutecomb;
}
);
width = 612;
}
);
unicode = 323;
},
{
color = 4;
glyphname = Ncaron;
lastChange = "2024-08-29 02:16:24 +0000";
layers = (
{
associatedMasterId = "F786B9CF-2625-4E74-A523-7F1B392BEC63";
layerId = "60B433FB-7962-4D91-9D7B-25075E58E57A";
name = img;
width = 612;
},
{
background = {
shapes = (
{
closed = 1;
nodes = (
(241,700,l),
(73,700,l),
(73,0,l),
(157,0,l),
(157,664,l),
(169,664,l),
(371,0,l),
(539,0,l),
(539,700,l),
(455,700,l),
(455,36,l),
(443,36,l)
);
},
{
closed = 1;
nodes = (
(404,892,l),
(352,804,l),
(340,804,l),
(288,892,l),
(204,892,l),
(284,774,l),
(408,774,l),
(488,892,l)
);
}
);
};
layerId = "F786B9CF-2625-4E74-A523-7F1B392BEC63";
shapes = (
{
ref = N;
},
{
pos = (18,204);
ref = caroncomb;
}
);
width = 612;
}
);
unicode = 327;
},
{
color = 4;
glyphname = Ncommaaccent;
lastChange = "2024-08-29 02:51:55 +0000";
layers = (
{
associatedMasterId = "F786B9CF-2625-4E74-A523-7F1B392BEC63";
layerId = "60B433FB-7962-4D91-9D7B-25075E58E57A";
name = img;
width = 612;
},
{
background = {
shapes = (
{
closed = 1;
nodes = (
(241,700,l),
(73,700,l),
(73,0,l),
(157,0,l),
(157,664,l),
(169,664,l),
(371,0,l),
(539,0,l),
(539,700,l),
(455,700,l),
(455,36,l),
(443,36,l)
);
},
{
closed = 1;
nodes = (
(196,-152,o),
(228,-184,o),
(265,-184,cs),
(271,-184,o),
(277,-183,o),
(282,-181,c),
(282,-206,ls),
(282,-225,o),
(274,-236,o),
(255,-236,cs),
(208,-236,l),
(208,-290,l),
(259,-290,ls),
(304,-290,o),
(336,-257,o),
(336,-212,cs),
(336,-114,ls),
(336,-76,o),
(304,-44,o),
(266,-44,cs),
(228,-44,o),
(196,-76,o),
(196,-114,cs)
);
}
);
};
guides = (
{
pos = (0,-44);
},
{
angle = 90;
pos = (169,0);
},
{
angle = 90;
pos = (241,0);
}
);
layerId = "F786B9CF-2625-4E74-A523-7F1B392BEC63";
shapes = (
{
ref = N;
},
{
pos = (186,0);
ref = commaaccentcomb;
}
);
width = 612;
}
);
unicode = 325;
},
{
color = 4;
glyphname = Ndotaccent;
lastChange = "2024-08-29 02:44:02 +0000";
layers = (
{
background = {
shapes = (
{
closed = 1;
nodes = (
(241,700,l),
(73,700,l),
(73,0,l),
(157,0,l),
(157,664,l),
(169,664,l),
(371,0,l),
(539,0,l),
(539,700,l),
(455,700,l),
(455,36,l),
(443,36,l)
);
},
{
closed = 1;
nodes = (
(278,810,o),
(310,778,o),
(348,778,cs),
(386,778,o),
(418,810,o),
(418,848,cs),
(418,886,o),
(386,918,o),
(348,918,cs),
(310,918,o),
(278,886,o),
(278,848,cs)
);
}
);
};
guides = (
{
pos = (0,774);
}
);
layerId = "F786B9CF-2625-4E74-A523-7F1B392BEC63";
shapes = (
{
ref = N;
},
{
pos = (18,204);
ref = dotaccentcomb;
}
);
width = 612;
}
);
unicode = 7748;
},
{
color = 4;
glyphname = Ndotbelow;
lastChange = "2024-08-29 02:44:02 +0000";
layers = (
{
background = {
shapes = (
{
closed = 1;
nodes = (
(241,700,l),
(73,700,l),
(73,0,l),
(157,0,l),
(157,664,l),
(169,664,l),
(371,0,l),
(539,0,l),
(539,700,l),
(455,700,l),
(455,36,l),
(443,36,l)
);
},
{
closed = 1;
nodes = (
(236,-172,o),
(268,-204,o),
(306,-204,cs),
(344,-204,o),
(376,-172,o),
(376,-134,cs),
(376,-96,o),
(344,-64,o),
(306,-64,cs),
(268,-64,o),
(236,-96,o),
(236,-134,cs)
);
}
);
};
guides = (
{
pos = (0,-64);
}
);
layerId = "F786B9CF-2625-4E74-A523-7F1B392BEC63";
shapes = (
{
ref = N;
},
{
ref = dotbelowcomb;
}
);
width = 612;
}
);
unicode = 7750;
},
{
color = 4;
glyphname = Nmacronbelow;
lastChange = "2024-08-29 02:47:14 +0000";
layers = (
{
background = {
shapes = (
{
closed = 1;
nodes = (
(241,700,l),
(73,700,l),
(73,0,l),
(157,0,l),
(157,664,l),
(169,664,l),
(371,0,l),
(539,0,l),
(539,700,l),
(455,700,l),
(455,36,l),
(443,36,l)
);
},
{
closed = 1;
nodes = (
(447,-130,l),
(447,-64,l),
(165,-64,l),
(165,-130,l)
);
}
);
};
guides = (
{
pos = (0,-64);
}
);
layerId = "F786B9CF-2625-4E74-A523-7F1B392BEC63";
shapes = (
{
ref = N;
},
{
ref = macronbelowcomb;
}
);
width = 612;
}
);
unicode = 7752;
},
{
color = 4;
glyphname = Ntilde;
lastChange = "2024-08-29 03:20:44 +0000";
layers = (
{
background = {
shapes = (
{
closed = 1;
nodes = (
(241,700,l),
(73,700,l),
(73,0,l),
(157,0,l),
(157,664,l),
(169,664,l),
(371,0,l),
(539,0,l),
(539,700,l),
(455,700,l),
(455,36,l),
(443,36,l)
);
},
{
closed = 1;
nodes = (
(320,889,o),
(302,907,o),
(263,907,cs),
(227,907,o),
(203,888,o),
(184,865,cs),
(143,816,l),
(192,774,l),
(238,827,ls),
(246,836,o),
(252,839,o),
(260,839,cs),
(271,839,o),
(275,833,o),
(284,817,cs),
(306,776,o),
(324,758,o),
(365,758,cs),
(400,758,o),
(424,777,o),
(443,800,cs),
(484,849,l),
(435,891,l),
(387,836,ls),
(381,829,o),
(375,826,o),
(368,826,cs),
(356,826,o),
(351,833,o),
(344,846,cs)
);
}
);
};
guides = (
{
pos = (0,774);
},
{
angle = 90;
pos = (157,0);
},
{
angle = 90;
pos = (169,0);
},
{
angle = 90;
pos = (241,0);
},
{
angle = 90;
pos = (371,0);
},
{
angle = 90;
pos = (443,0);
},
{
angle = 90;
pos = (455,0);
}
);
layerId = "F786B9CF-2625-4E74-A523-7F1B392BEC63";
shapes = (
{
ref = N;
},
{
pos = (103,204);
ref = tildecomb;
}
);
width = 612;
}
);
unicode = 209;
},
{
glyphname = Eng;
lastChange = "2024-08-29 00:25:29 +0000";
layers = (
{
associatedMasterId = "F786B9CF-2625-4E74-A523-7F1B392BEC63";
layerId = "60B433FB-7962-4D91-9D7B-25075E58E57A";
name = img;
width = 612;
},
{
background = {
shapes = (
{
closed = 1;
nodes = (
(241,700,l),
(73,700,l),
(73,0,l),
(157,0,l),
(157,664,l),
(169,664,l),
(371,0,l),
(455,0,l),
(455,-68,ls),
(455,-102,o),
(441,-122,o),
(401,-122,cs),
(241,-122,l),
(241,-200,l),
(419,-200,ls),
(497,-200,o),
(539,-158,o),
(539,-80,cs),
(539,700,l),
(455,700,l),
(455,36,l),
(443,36,l)
);
}
);
};
guides = (
{
angle = 90;
pos = (241,0);
}
);
layerId = "F786B9CF-2625-4E74-A523-7F1B392BEC63";
shapes = (
{
closed = 1;
nodes = (
(241,700,l),
(73,700,l),
(73,0,l),
(157,0,l),
(157,664,l),
(169,664,l),
(371,0,l),
(455,0,l),
(455,-68,ls),
(455,-102,o),
(441,-122,o),
(401,-122,cs),
(241,-122,l),
(241,-200,l),
(419,-200,ls),
(497,-200,o),
(539,-158,o),
(539,-80,cs),
(539,700,l),
(455,700,l),
(455,36,l),
(443,36,l)
);
}
);
width = 612;
}
);
unicode = 330;
},
{
glyphname = O;
lastChange = "2024-08-29 00:28:22 +0000";
layers = (
{
anchors = (
{
name = bottom;
pos = (306,0);
},
{
name = center;
pos = (306,350);
},
{
name = ogonek;
pos = (551,10);
},
{
name = top;
pos = (306,700);
},
{
name = topleft;
pos = (20,700);
},
{
name = topright;
pos = (592,700);
}
);
background = {
shapes = (
{
closed = 1;
nodes = (
(60,272,ls),
(60,86,o),
(152,-14,o),
(306,-14,cs),
(460,-14,o),
(552,86,o),
(552,272,cs),
(552,428,ls),
(552,608,o),
(460,714,o),
(306,714,cs),
(152,714,o),
(60,608,o),
(60,428,cs)
);
},
{
closed = 1;
nodes = (
(198,64,o),
(144,142,o),
(144,278,cs),
(144,422,ls),
(144,550,o),
(198,636,o),
(306,636,cs),
(414,636,o),
(468,550,o),
(468,422,cs),
(468,278,ls),
(468,142,o),
(414,64,o),
(306,64,cs)
);
}
);
};
layerId = "F786B9CF-2625-4E74-A523-7F1B392BEC63";
shapes = (
{
closed = 1;
nodes = (
(460,-14,o),
(552,86,o),
(552,272,cs),
(552,428,ls),
(552,608,o),
(460,714,o),
(306,714,cs),
(152,714,o),
(60,608,o),
(60,428,cs),
(60,272,ls),
(60,86,o),
(152,-14,o),
(306,-14,cs)
);
},
{
closed = 1;
nodes = (
(198,64,o),
(144,142,o),
(144,278,cs),
(144,422,ls),
(144,550,o),
(198,636,o),
(306,636,cs),
(414,636,o),
(468,550,o),
(468,422,cs),
(468,278,ls),
(468,142,o),
(414,64,o),
(306,64,cs)
);
}
);
width = 612;
}
);
unicode = 79;
},
{
color = 4;
glyphname = Oacute;
lastChange = "2024-08-29 02:02:39 +0000";
layers = (
{
background = {
shapes = (
{
closed = 1;
nodes = (
(60,272,ls),
(60,86,o),
(152,-14,o),
(306,-14,cs),
(460,-14,o),
(552,86,o),
(552,272,cs),
(552,428,ls),
(552,608,o),
(460,714,o),
(306,714,cs),
(152,714,o),
(60,608,o),
(60,428,cs)
);
},
{
closed = 1;
nodes = (
(198,64,o),
(144,142,o),
(144,278,cs),
(144,422,ls),
(144,550,o),
(198,636,o),
(306,636,cs),
(414,636,o),
(468,550,o),
(468,422,cs),
(468,278,ls),
(468,142,o),
(414,64,o),
(306,64,cs)
);
},
{
closed = 1;
nodes = (
(340,892,l),
(274,774,l),
(346,774,l),
(430,892,l)
);
}
);
};
layerId = "F786B9CF-2625-4E74-A523-7F1B392BEC63";
shapes = (
{
ref = O;
},
{
pos = (227,204);
ref = acutecomb;
}
);
width = 612;
}
);
unicode = 211;
},
{
color = 4;
glyphname = Obreve;
lastChange = "2024-08-29 01:45:04 +0000";
layers = (
{
associatedMasterId = "F786B9CF-2625-4E74-A523-7F1B392BEC63";
layerId = "60B433FB-7962-4D91-9D7B-25075E58E57A";
name = img;
width = 612;
},
{
background = {
shapes = (
{
closed = 1;
nodes = (
(60,272,ls),
(60,86,o),
(152,-14,o),
(306,-14,cs),
(460,-14,o),
(552,86,o),
(552,272,cs),
(552,428,ls),
(552,608,o),
(460,714,o),
(306,714,cs),
(152,714,o),
(60,608,o),
(60,428,cs)
);
},
{
closed = 1;
nodes = (
(198,64,o),
(144,142,o),
(144,278,cs),
(144,422,ls),
(144,550,o),
(198,636,o),
(306,636,cs),
(414,636,o),
(468,550,o),
(468,422,cs),
(468,278,ls),
(468,142,o),
(414,64,o),
(306,64,cs)
);
},
{
closed = 1;
nodes = (
(345,892,l),
(345,880,l),
(345,859,o),
(331,841,o),
(306,841,cs),
(281,841,o),
(267,859,o),
(267,880,c),
(267,892,l),
(198,892,l),
(198,882,l),
(198,818,o),
(240,774,o),
(306,774,cs),
(372,774,o),
(414,818,o),
(414,882,c),
(414,892,l)
);
}
);
};
guides = (
{
pos = (0,774);
}
);
layerId = "F786B9CF-2625-4E74-A523-7F1B392BEC63";
shapes = (
{
ref = O;
},
{
pos = (148,204);
ref = brevecomb;
}
);
width = 612;
}
);
unicode = 334;
},
{
color = 4;
glyphname = Ocaron;
lastChange = "2024-08-29 02:16:24 +0000";
layers = (
{
background = {
shapes = (
{
closed = 1;
nodes = (
(60,272,ls),
(60,86,o),
(152,-14,o),
(306,-14,cs),
(460,-14,o),
(552,86,o),
(552,272,cs),
(552,428,ls),
(552,608,o),
(460,714,o),
(306,714,cs),
(152,714,o),
(60,608,o),
(60,428,cs)
);
},
{
closed = 1;
nodes = (
(198,64,o),
(144,142,o),
(144,278,cs),
(144,422,ls),
(144,550,o),
(198,636,o),
(306,636,cs),
(414,636,o),
(468,550,o),
(468,422,cs),
(468,278,ls),
(468,142,o),
(414,64,o),
(306,64,cs)
);
},
{
closed = 1;
nodes = (
(364,892,l),
(312,804,l),
(300,804,l),
(248,892,l),
(164,892,l),
(244,774,l),
(368,774,l),
(448,892,l)
);
}
);
};
layerId = "F786B9CF-2625-4E74-A523-7F1B392BEC63";
shapes = (
{
ref = O;
},
{
pos = (0,204);
ref = caroncomb;
}
);
width = 612;
}
);
unicode = 465;
},
{
color = 4;
glyphname = Ocircumflex;
lastChange = "2024-08-29 02:31:04 +0000";
layers = (
{
background = {
shapes = (
{
closed = 1;
nodes = (
(60,272,ls),
(60,86,o),
(152,-14,o),
(306,-14,cs),
(460,-14,o),
(552,86,o),
(552,272,cs),
(552,428,ls),
(552,608,o),
(460,714,o),
(306,714,cs),
(152,714,o),
(60,608,o),
(60,428,cs)
);
},
{
closed = 1;
nodes = (
(198,64,o),
(144,142,o),
(144,278,cs),
(144,422,ls),
(144,550,o),
(198,636,o),
(306,636,cs),
(414,636,o),
(468,550,o),
(468,422,cs),
(468,278,ls),
(468,142,o),
(414,64,o),
(306,64,cs)
);
},
{
closed = 1;
nodes = (
(448,774,l),
(368,892,l),
(244,892,l),
(164,774,l),
(248,774,l),
(300,862,l),
(312,862,l),
(364,774,l)
);
}
);
};
layerId = "F786B9CF-2625-4E74-A523-7F1B392BEC63";
shapes = (
{
ref = O;
},
{
pos = (0,204);
ref = circumflexcomb;
}
);
width = 612;
}
);
unicode = 212;
},
{
color = 4;
glyphname = Ocircumflexacute;
lastChange = "2024-08-29 02:19:06 +0000";
layers = (
{
background = {
shapes = (
{
closed = 1;
nodes = (
(60,272,ls),
(60,86,o),
(152,-14,o),
(306,-14,cs),
(460,-14,o),
(552,86,o),
(552,272,cs),
(552,428,ls),
(552,608,o),
(460,714,o),
(306,714,cs),
(152,714,o),
(60,608,o),
(60,428,cs)
);
},
{
closed = 1;
nodes = (
(198,64,o),
(144,142,o),
(144,278,cs),
(144,422,ls),
(144,550,o),
(198,636,o),
(306,636,cs),
(414,636,o),
(468,550,o),
(468,422,cs),
(468,278,ls),
(468,142,o),
(414,64,o),
(306,64,cs)
);
},
{
closed = 1;
nodes = (
(448,774,l),
(368,892,l),
(244,892,l),
(164,774,l),
(248,774,l),
(300,862,l),
(312,862,l),
(364,774,l)
);
},
{
closed = 1;
nodes = (
(490,980,l),
(424,862,l),
(496,862,l),
(580,980,l)
);
}
);
};
layerId = "F786B9CF-2625-4E74-A523-7F1B392BEC63";
shapes = (
{
ref = O;
},
{
pos = (0,204);
ref = circumflexcomb;
},
{
anchor = topviet;
pos = (376,292);
ref = acutecomb;
}
);
width = 612;
}
);
unicode = 7888;
},
{
color = 4;
glyphname = Ocircumflexdotbelow;
lastChange = "2024-08-29 02:31:04 +0000";
layers = (
{
background = {
shapes = (
{
closed = 1;
nodes = (
(60,272,ls),
(60,86,o),
(152,-14,o),
(306,-14,cs),
(460,-14,o),
(552,86,o),
(552,272,cs),
(552,428,ls),
(552,608,o),
(460,714,o),
(306,714,cs),
(152,714,o),
(60,608,o),
(60,428,cs)
);
},
{
closed = 1;
nodes = (
(198,64,o),
(144,142,o),
(144,278,cs),
(144,422,ls),
(144,550,o),
(198,636,o),
(306,636,cs),
(414,636,o),
(468,550,o),
(468,422,cs),
(468,278,ls),
(468,142,o),
(414,64,o),
(306,64,cs)
);
},
{
closed = 1;
nodes = (
(448,774,l),
(368,892,l),
(244,892,l),
(164,774,l),
(248,774,l),
(300,862,l),
(312,862,l),
(364,774,l)
);
},
{
closed = 1;
nodes = (
(236,-172,o),
(268,-204,o),
(306,-204,cs),
(344,-204,o),
(376,-172,o),
(376,-134,cs),
(376,-96,o),
(344,-64,o),
(306,-64,cs),
(268,-64,o),
(236,-96,o),
(236,-134,cs)
);
}
);
};
layerId = "F786B9CF-2625-4E74-A523-7F1B392BEC63";
shapes = (
{
ref = O;
},
{
ref = dotbelowcomb;
},
{
pos = (0,204);
ref = circumflexcomb;
}
);
width = 612;
}
);
unicode = 7896;
},
{
color = 4;
glyphname = Ocircumflexgrave;
lastChange = "2024-08-29 02:31:04 +0000";
layers = (
{
background = {
shapes = (
{
closed = 1;
nodes = (
(60,272,ls),
(60,86,o),
(152,-14,o),
(306,-14,cs),
(460,-14,o),
(552,86,o),
(552,272,cs),
(552,428,ls),
(552,608,o),
(460,714,o),
(306,714,cs),
(152,714,o),
(60,608,o),
(60,428,cs)
);
},
{
closed = 1;
nodes = (
(198,64,o),
(144,142,o),
(144,278,cs),
(144,422,ls),
(144,550,o),
(198,636,o),
(306,636,cs),
(414,636,o),
(468,550,o),
(468,422,cs),
(468,278,ls),
(468,142,o),
(414,64,o),
(306,64,cs)
);
},
{
closed = 1;
nodes = (
(448,774,l),
(368,892,l),
(244,892,l),
(164,774,l),
(248,774,l),
(300,862,l),
(312,862,l),
(364,774,l)
);
},
{
closed = 1;
nodes = (
(29,980,l),
(113,862,l),
(185,862,l),
(119,980,l)
);
}
);
};
guides = (
{
angle = 90;
pos = (306,0);
}
);
layerId = "F786B9CF-2625-4E74-A523-7F1B392BEC63";
shapes = (
{
ref = O;
},
{
pos = (0,204);
ref = circumflexcomb;
},
{
anchor = topviet;
pos = (-16,292);
ref = gravecomb;
}
);
width = 612;
}
);
unicode = 7890;
},
{
color = 4;
glyphname = Ocircumflexhookabove;
lastChange = "2024-08-29 02:31:04 +0000";
layers = (
{
background = {
shapes = (
{
closed = 1;
nodes = (
(60,272,ls),
(60,86,o),
(152,-14,o),
(306,-14,cs),
(460,-14,o),
(552,86,o),
(552,272,cs),
(552,428,ls),
(552,608,o),
(460,714,o),
(306,714,cs),
(152,714,o),
(60,608,o),
(60,428,cs)
);
},
{
closed = 1;
nodes = (
(198,64,o),
(144,142,o),
(144,278,cs),
(144,422,ls),
(144,550,o),
(198,636,o),
(306,636,cs),
(414,636,o),
(468,550,o),
(468,422,cs),
(468,278,ls),
(468,142,o),
(414,64,o),
(306,64,cs)
);
},
{
closed = 1;
nodes = (
(448,774,l),
(368,892,l),
(244,892,l),
(164,774,l),
(248,774,l),
(300,862,l),
(312,862,l),
(364,774,l)
);
},
{
closed = 1;
nodes = (
(461,926,l),
(467,926,l),
(475,906,o),
(493,894,o),
(521,894,cs),
(567,894,o),
(597,933,o),
(597,979,cs),
(597,1034,o),
(556,1070,o),
(504,1070,cs),
(447,1070,o),
(417,1040,o),
(407,1000,c),
(455,982,l),
(459,1002,o),
(474,1022,o),
(503,1022,cs),
(523,1022,o),
(543,1009,o),
(543,980,cs),
(543,956,o),
(527,942,o),
(508,942,cs),
(496,942,o),
(487,948,o),
(483,956,c),
(407,956,l),
(407,950,l),
(427,858,l),
(476,858,l)
);
}
);
};
guides = (
{
angle = 90;
pos = (306,0);
}
);
layerId = "F786B9CF-2625-4E74-A523-7F1B392BEC63";
shapes = (
{
ref = O;
},
{
pos = (0,204);
ref = circumflexcomb;
},
{
anchor = topviet;
pos = (194,312);
ref = hookabovecomb;
}
);
width = 612;
}
);
unicode = 7892;
},
{
color = 4;
glyphname = Ocircumflextilde;
lastChange = "2024-08-29 02:31:04 +0000";
layers = (
{
background = {
shapes = (
{
closed = 1;
nodes = (
(60,272,ls),
(60,86,o),
(152,-14,o),
(306,-14,cs),
(460,-14,o),
(552,86,o),
(552,272,cs),
(552,428,ls),
(552,608,o),
(460,714,o),
(306,714,cs),
(152,714,o),
(60,608,o),
(60,428,cs)
);
},
{
closed = 1;
nodes = (
(198,64,o),
(144,142,o),
(144,278,cs),
(144,422,ls),
(144,550,o),
(198,636,o),
(306,636,cs),
(414,636,o),
(468,550,o),
(468,422,cs),
(468,278,ls),
(468,142,o),
(414,64,o),
(306,64,cs)
);
},
{
closed = 1;
nodes = (
(448,730,l),
(368,848,l),
(244,848,l),
(164,730,l),
(248,730,l),
(300,818,l),
(312,818,l),
(364,730,l)
);
},
{
closed = 1;
nodes = (
(313,1009,o),
(295,1027,o),
(256,1027,cs),
(220,1027,o),
(196,1008,o),
(177,985,cs),
(136,936,l),
(185,894,l),
(231,947,ls),
(239,956,o),
(245,959,o),
(253,959,cs),
(264,959,o),
(268,953,o),
(277,937,cs),
(299,896,o),
(317,878,o),
(358,878,cs),
(393,878,o),
(417,897,o),
(436,920,cs),
(477,969,l),
(428,1011,l),
(380,956,ls),
(374,949,o),
(368,946,o),
(361,946,cs),
(349,946,o),
(344,953,o),
(337,966,cs)
);
}
);
};
layerId = "F786B9CF-2625-4E74-A523-7F1B392BEC63";
shapes = (
{
ref = O;
},
{
alignment = -1;
pos = (0,159);
ref = circumflexcomb;
},
{
pos = (89,321);
ref = tildecomb;
}
);
width = 612;
}
);
unicode = 7894;
},
{
color = 4;
glyphname = Odieresis;
lastChange = "2024-08-29 02:59:17 +0000";
layers = (
{
background = {
shapes = (
{
closed = 1;
nodes = (
(60,272,ls),
(60,86,o),
(152,-14,o),
(306,-14,cs),
(460,-14,o),
(552,86,o),
(552,272,cs),
(552,428,ls),
(552,608,o),
(460,714,o),
(306,714,cs),
(152,714,o),
(60,608,o),
(60,428,cs)
);
},
{
closed = 1;
nodes = (
(198,64,o),
(144,142,o),
(144,278,cs),
(144,422,ls),
(144,550,o),
(198,636,o),
(306,636,cs),
(414,636,o),
(468,550,o),
(468,422,cs),
(468,278,ls),
(468,142,o),
(414,64,o),
(306,64,cs)
);
},
{
closed = 1;
nodes = (
(136,810,o),
(168,778,o),
(206,778,cs),
(244,778,o),
(276,810,o),
(276,848,cs),
(276,886,o),
(244,918,o),
(206,918,cs),
(168,918,o),
(136,886,o),
(136,848,cs)
);
},
{
closed = 1;
nodes = (
(336,810,o),
(368,778,o),
(406,778,cs),
(444,778,o),
(476,810,o),
(476,848,cs),
(476,886,o),
(444,918,o),
(406,918,cs),
(368,918,o),
(336,886,o),
(336,848,cs)
);
}
);
};
guides = (
{
pos = (0,778);
}
);
layerId = "F786B9CF-2625-4E74-A523-7F1B392BEC63";
shapes = (
{
ref = O;
},
{
pos = (86,0);
ref = dieresiscomb.case;
}
);
width = 612;
}
);
unicode = 214;
},
{
color = 4;
glyphname = Odotbelow;
lastChange = "2024-08-29 02:44:02 +0000";
layers = (
{
background = {
shapes = (
{
closed = 1;
nodes = (
(60,272,ls),
(60,86,o),
(152,-14,o),
(306,-14,cs),
(460,-14,o),
(552,86,o),
(552,272,cs),
(552,428,ls),
(552,608,o),
(460,714,o),
(306,714,cs),
(152,714,o),
(60,608,o),
(60,428,cs)
);
},
{
closed = 1;
nodes = (
(198,64,o),
(144,142,o),
(144,278,cs),
(144,422,ls),
(144,550,o),
(198,636,o),
(306,636,cs),
(414,636,o),
(468,550,o),
(468,422,cs),
(468,278,ls),
(468,142,o),
(414,64,o),
(306,64,cs)
);
},
{
closed = 1;
nodes = (
(236,-172,o),
(268,-204,o),
(306,-204,cs),
(344,-204,o),
(376,-172,o),
(376,-134,cs),
(376,-96,o),
(344,-64,o),
(306,-64,cs),
(268,-64,o),
(236,-96,o),
(236,-134,cs)
);
}
);
};
layerId = "F786B9CF-2625-4E74-A523-7F1B392BEC63";
shapes = (
{
ref = O;
},
{
ref = dotbelowcomb;
}
);
width = 612;
}
);
unicode = 7884;
},
{
color = 4;
glyphname = Ograve;
lastChange = "2024-08-29 03:04:57 +0000";
layers = (
{
background = {
shapes = (
{
closed = 1;
nodes = (
(60,272,ls),
(60,86,o),
(152,-14,o),
(306,-14,cs),
(460,-14,o),
(552,86,o),
(552,272,cs),
(552,428,ls),
(552,608,o),
(460,714,o),
(306,714,cs),
(152,714,o),
(60,608,o),
(60,428,cs)
);
},
{
closed = 1;
nodes = (
(198,64,o),
(144,142,o),
(144,278,cs),
(144,422,ls),
(144,550,o),
(198,636,o),
(306,636,cs),
(414,636,o),
(468,550,o),
(468,422,cs),
(468,278,ls),
(468,142,o),
(414,64,o),
(306,64,cs)
);
},
{
closed = 1;
nodes = (
(188,892,l),
(272,774,l),
(344,774,l),
(278,892,l)
);
}
);
};
layerId = "F786B9CF-2625-4E74-A523-7F1B392BEC63";
shapes = (
{
ref = O;
},
{
pos = (138,204);
ref = gravecomb;
}
);
width = 612;
}
);
unicode = 210;
},
{
color = 4;
glyphname = Ohookabove;
lastChange = "2024-08-29 02:34:06 +0000";
layers = (
{
background = {
shapes = (
{
closed = 1;
nodes = (
(272,750,l),
(252,842,l),
(252,848,l),
(328,848,l),
(332,840,o),
(341,834,o),
(353,834,cs),
(372,834,o),
(388,848,o),
(388,872,cs),
(388,901,o),
(368,914,o),
(348,914,cs),
(319,914,o),
(304,894,o),
(300,874,c),
(252,892,l),
(262,932,o),
(292,962,o),
(349,962,cs),
(401,962,o),
(442,926,o),
(442,871,cs),
(442,825,o),
(412,786,o),
(366,786,cs),
(338,786,o),
(320,798,o),
(312,818,c),
(306,818,l),
(321,750,l)
);
},
{
closed = 1;
nodes = (
(60,272,ls),
(60,86,o),
(152,-14,o),
(306,-14,cs),
(460,-14,o),
(552,86,o),
(552,272,cs),
(552,428,ls),
(552,608,o),
(460,714,o),
(306,714,cs),
(152,714,o),
(60,608,o),
(60,428,cs)
);
},
{
closed = 1;
nodes = (
(198,64,o),
(144,142,o),
(144,278,cs),
(144,422,ls),
(144,550,o),
(198,636,o),
(306,636,cs),
(414,636,o),
(468,550,o),
(468,422,cs),
(468,278,ls),
(468,142,o),
(414,64,o),
(306,64,cs)
);
}
);
};
layerId = "F786B9CF-2625-4E74-A523-7F1B392BEC63";
shapes = (
{
ref = O;
},
{
pos = (41,204);
ref = hookabovecomb;
}
);
width = 612;
}
);
unicode = 7886;
},
{
color = 3;
glyphname = Ohorn;
lastChange = "2024-08-29 03:00:54 +0000";
layers = (
{
anchors = (
{
name = bottom;
pos = (243,0);
},
{
name = top;
pos = (242,700);
}
);
background = {
shapes = (
{
closed = 1;
nodes = (
(38,218,ls),
(38,64,o),
(114,-14,o),
(242,-14,cs),
(370,-14,o),
(446,64,o),
(446,218,cs),
(446,454,l),
(516,454,ls),
(561,454,o),
(593,487,o),
(593,532,cs),
(593,630,ls),
(593,668,o),
(561,700,o),
(523,700,cs),
(485,700,o),
(453,668,o),
(453,630,cs),
(453,592,o),
(485,560,o),
(522,560,cs),
(528,560,o),
(534,561,o),
(539,563,c),
(539,538,ls),
(539,519,o),
(531,508,o),
(512,508,cs),
(445,508,l),
(435,638,o),
(362,714,o),
(242,714,cs),
(112,714,o),
(38,626,o),
(38,476,cs)
);
},
{
closed = 1;
nodes = (
(160,62,o),
(122,114,o),
(122,224,cs),
(122,476,ls),
(122,578,o),
(158,638,o),
(242,638,cs),
(326,638,o),
(362,578,o),
(362,476,cs),
(362,224,ls),
(362,114,o),
(324,62,o),
(242,62,cs)
);
}
);
};
layerId = "F786B9CF-2625-4E74-A523-7F1B392BEC63";
shapes = (
{
closed = 1;
nodes = (
(370,-14,o),
(446,64,o),
(446,218,cs),
(446,454,l),
(516,454,ls),
(561,454,o),
(593,487,o),
(593,532,cs),
(593,630,ls),
(593,668,o),
(561,700,o),
(523,700,cs),
(485,700,o),
(453,668,o),
(453,630,cs),
(453,592,o),
(485,560,o),
(522,560,cs),
(528,560,o),
(534,561,o),
(539,563,c),
(539,538,ls),
(539,519,o),
(531,508,o),
(512,508,cs),
(445,508,l),
(435,638,o),
(362,714,o),
(242,714,cs),
(112,714,o),
(38,626,o),
(38,476,cs),
(38,218,ls),
(38,64,o),
(114,-14,o),
(242,-14,cs)
);
},
{
closed = 1;
nodes = (
(160,62,o),
(122,114,o),
(122,224,cs),
(122,476,ls),
(122,578,o),
(158,638,o),
(242,638,cs),
(326,638,o),
(362,578,o),
(362,476,cs),
(362,224,ls),
(362,114,o),
(324,62,o),
(242,62,cs)
);
}
);
width = 612;
}
);
unicode = 416;
},
{
color = 4;
glyphname = Ohornacute;
lastChange = "2024-08-29 02:02:39 +0000";
layers = (
{
background = {
shapes = (
{
closed = 1;
nodes = (
(269,892,l),
(203,774,l),
(275,774,l),
(359,892,l)
);
},
{
closed = 1;
nodes = (
(38,218,ls),
(38,64,o),
(114,-14,o),
(242,-14,cs),
(370,-14,o),
(446,64,o),
(446,218,cs),
(446,454,l),
(516,454,ls),
(561,454,o),
(593,487,o),
(593,532,cs),
(593,630,ls),
(593,668,o),
(561,700,o),
(523,700,cs),
(485,700,o),
(453,668,o),
(453,630,cs),
(453,592,o),
(485,560,o),
(522,560,cs),
(528,560,o),
(534,561,o),
(539,563,c),
(539,538,ls),
(539,519,o),
(531,508,o),
(512,508,cs),
(445,508,l),
(435,638,o),
(362,714,o),
(242,714,cs),
(112,714,o),
(38,626,o),
(38,476,cs)
);
},
{
closed = 1;
nodes = (
(160,62,o),
(122,114,o),
(122,224,cs),
(122,476,ls),
(122,578,o),
(158,638,o),
(242,638,cs),
(326,638,o),
(362,578,o),
(362,476,cs),
(362,224,ls),
(362,114,o),
(324,62,o),
(242,62,cs)
);
}
);
};
guides = (
{
pos = (0,774);
},
{
angle = 90;
pos = (252,0);
}
);
layerId = "F786B9CF-2625-4E74-A523-7F1B392BEC63";
shapes = (
{
ref = Ohorn;
},
{
pos = (163,204);
ref = acutecomb;
}
);
width = 612;
}
);
unicode = 7898;
},
{
color = 4;
glyphname = Ohorndotbelow;
lastChange = "2024-08-29 02:44:02 +0000";
layers = (
{
background = {
shapes = (
{
closed = 1;
nodes = (
(38,218,ls),
(38,64,o),
(114,-14,o),
(242,-14,cs),
(370,-14,o),
(446,64,o),
(446,218,cs),
(446,454,l),
(516,454,ls),
(561,454,o),
(593,487,o),
(593,532,cs),
(593,630,ls),
(593,668,o),
(561,700,o),
(523,700,cs),
(485,700,o),
(453,668,o),
(453,630,cs),
(453,592,o),
(485,560,o),
(522,560,cs),
(528,560,o),
(534,561,o),
(539,563,c),
(539,538,ls),
(539,519,o),
(531,508,o),
(512,508,cs),
(445,508,l),
(435,638,o),
(362,714,o),
(242,714,cs),
(112,714,o),
(38,626,o),
(38,476,cs)
);
},
{
closed = 1;
nodes = (
(160,62,o),
(122,114,o),
(122,224,cs),
(122,476,ls),
(122,578,o),
(158,638,o),
(242,638,cs),
(326,638,o),
(362,578,o),
(362,476,cs),
(362,224,ls),
(362,114,o),
(324,62,o),
(242,62,cs)
);
},
{
closed = 1;
nodes = (
(172,-172,o),
(204,-204,o),
(242,-204,cs),
(280,-204,o),
(312,-172,o),
(312,-134,cs),
(312,-96,o),
(280,-64,o),
(242,-64,cs),
(204,-64,o),
(172,-96,o),
(172,-134,cs)
);
}
);
};
guides = (
{
angle = 90;
pos = (252,0);
}
);
layerId = "F786B9CF-2625-4E74-A523-7F1B392BEC63";
shapes = (
{
ref = Ohorn;
},
{
pos = (-63,0);
ref = dotbelowcomb;
}
);
width = 612;
}
);
unicode = 7906;
},
{
color = 4;
glyphname = Ohorngrave;
lastChange = "2024-08-29 03:02:23 +0000";
layers = (
{
background = {
shapes = (
{
closed = 1;
nodes = (
(122,892,l),
(206,774,l),
(278,774,l),
(212,892,l)
);
},
{
closed = 1;
nodes = (
(38,218,ls),
(38,64,o),
(114,-14,o),
(242,-14,cs),
(370,-14,o),
(446,64,o),
(446,218,cs),
(446,454,l),
(516,454,ls),
(561,454,o),
(593,487,o),
(593,532,cs),
(593,630,ls),
(593,668,o),
(561,700,o),
(523,700,cs),
(485,700,o),
(453,668,o),
(453,630,cs),
(453,592,o),
(485,560,o),
(522,560,cs),
(528,560,o),
(534,561,o),
(539,563,c),
(539,538,ls),
(539,519,o),
(531,508,o),
(512,508,cs),
(445,508,l),
(435,638,o),
(362,714,o),
(242,714,cs),
(112,714,o),
(38,626,o),
(38,476,cs)
);
},
{
closed = 1;
nodes = (
(160,62,o),
(122,114,o),
(122,224,cs),
(122,476,ls),
(122,578,o),
(158,638,o),
(242,638,cs),
(326,638,o),
(362,578,o),
(362,476,cs),
(362,224,ls),
(362,114,o),
(324,62,o),
(242,62,cs)
);
}
);
};
guides = (
{
angle = 90;
pos = (252,0);
}
);
layerId = "F786B9CF-2625-4E74-A523-7F1B392BEC63";
shapes = (
{
ref = Ohorn;
},
{
pos = (74,204);
ref = gravecomb;
}
);
width = 612;
}
);
unicode = 7900;
},
{
color = 4;
glyphname = Ohornhookabove;
lastChange = "2024-08-29 02:34:06 +0000";
layers = (
{
background = {
shapes = (
{
closed = 1;
nodes = (
(38,218,ls),
(38,64,o),
(114,-14,o),
(242,-14,cs),
(370,-14,o),
(446,64,o),
(446,218,cs),
(446,454,l),
(516,454,ls),
(561,454,o),
(593,487,o),
(593,532,cs),
(593,630,ls),
(593,668,o),
(561,700,o),
(523,700,cs),
(485,700,o),
(453,668,o),
(453,630,cs),
(453,592,o),
(485,560,o),
(522,560,cs),
(528,560,o),
(534,561,o),
(539,563,c),
(539,538,ls),
(539,519,o),
(531,508,o),
(512,508,cs),
(445,508,l),
(435,638,o),
(362,714,o),
(242,714,cs),
(112,714,o),
(38,626,o),
(38,476,cs)
);
},
{
closed = 1;
nodes = (
(160,62,o),
(122,114,o),
(122,224,cs),
(122,476,ls),
(122,578,o),
(158,638,o),
(242,638,cs),
(326,638,o),
(362,578,o),
(362,476,cs),
(362,224,ls),
(362,114,o),
(324,62,o),
(242,62,cs)
);
},
{
closed = 1;
nodes = (
(242,818,l),
(248,818,l),
(256,798,o),
(274,786,o),
(302,786,cs),
(348,786,o),
(378,825,o),
(378,871,cs),
(378,926,o),
(337,962,o),
(285,962,cs),
(228,962,o),
(198,932,o),
(188,892,c),
(236,874,l),
(240,894,o),
(255,914,o),
(284,914,cs),
(304,914,o),
(324,901,o),
(324,872,cs),
(324,848,o),
(308,834,o),
(289,834,cs),
(277,834,o),
(268,840,o),
(264,848,c),
(188,848,l),
(188,842,l),
(208,750,l),
(257,750,l)
);
}
);
};
guides = (
{
angle = 90;
pos = (252,0);
}
);
layerId = "F786B9CF-2625-4E74-A523-7F1B392BEC63";
shapes = (
{
ref = Ohorn;
},
{
pos = (-23,204);
ref = hookabovecomb;
}
);
width = 612;
}
);
unicode = 7902;
},
{
color = 4;
glyphname = Ohorntilde;
lastChange = "2024-08-29 03:02:23 +0000";
layers = (
{
background = {
shapes = (
{
closed = 1;
nodes = (
(38,218,ls),
(38,64,o),
(114,-14,o),
(242,-14,cs),
(370,-14,o),
(446,64,o),
(446,218,cs),
(446,454,l),
(516,454,ls),
(561,454,o),
(593,487,o),
(593,532,cs),
(593,630,ls),
(593,668,o),
(561,700,o),
(523,700,cs),
(485,700,o),
(453,668,o),
(453,630,cs),
(453,592,o),
(485,560,o),
(522,560,cs),
(528,560,o),
(534,561,o),
(539,563,c),
(539,538,ls),
(539,519,o),
(531,508,o),
(512,508,cs),
(445,508,l),
(435,638,o),
(362,714,o),
(242,714,cs),
(112,714,o),
(38,626,o),
(38,476,cs)
);
},
{
closed = 1;
nodes = (
(160,62,o),
(122,114,o),
(122,224,cs),
(122,476,ls),
(122,578,o),
(158,638,o),
(242,638,cs),
(326,638,o),
(362,578,o),
(362,476,cs),
(362,224,ls),
(362,114,o),
(324,62,o),
(242,62,cs)
);
},
{
closed = 1;
nodes = (
(249,889,o),
(231,907,o),
(192,907,cs),
(156,907,o),
(132,888,o),
(113,865,cs),
(72,816,l),
(121,774,l),
(167,827,ls),
(175,836,o),
(181,839,o),
(189,839,cs),
(200,839,o),
(204,833,o),
(213,817,cs),
(235,776,o),
(253,758,o),
(294,758,cs),
(329,758,o),
(353,777,o),
(372,800,cs),
(413,849,l),
(364,891,l),
(316,836,ls),
(310,829,o),
(304,826,o),
(297,826,cs),
(285,826,o),
(280,833,o),
(273,846,cs)
);
}
);
};
guides = (
{
pos = (0,774);
},
{
angle = 90;
pos = (252,0);
}
);
layerId = "F786B9CF-2625-4E74-A523-7F1B392BEC63";
shapes = (
{
ref = Ohorn;
},
{
pos = (21,204);
ref = tildecomb;
}
);
width = 612;
}
);
unicode = 7904;
},
{
color = 4;
glyphname = Ohungarumlaut;
lastChange = "2024-08-29 03:06:19 +0000";
layers = (
{
associatedMasterId = "F786B9CF-2625-4E74-A523-7F1B392BEC63";
layerId = "60B433FB-7962-4D91-9D7B-25075E58E57A";
name = img;
width = 612;
},
{
background = {
shapes = (
{
closed = 1;
nodes = (
(60,272,ls),
(60,86,o),
(152,-14,o),
(306,-14,cs),
(460,-14,o),
(552,86,o),
(552,272,cs),
(552,428,ls),
(552,608,o),
(460,714,o),
(306,714,cs),
(152,714,o),
(60,608,o),
(60,428,cs)
);
},
{
closed = 1;
nodes = (
(198,64,o),
(144,142,o),
(144,278,cs),
(144,422,ls),
(144,550,o),
(198,636,o),
(306,636,cs),
(414,636,o),
(468,550,o),
(468,422,cs),
(468,278,ls),
(468,142,o),
(414,64,o),
(306,64,cs)
);
},
{
closed = 1;
nodes = (
(258,892,l),
(192,774,l),
(264,774,l),
(348,892,l)
);
},
{
closed = 1;
nodes = (
(402,892,l),
(336,774,l),
(408,774,l),
(492,892,l)
);
}
);
};
guides = (
{
pos = (0,774);
},
{
angle = 90;
pos = (306,0);
}
);
layerId = "F786B9CF-2625-4E74-A523-7F1B392BEC63";
shapes = (
{
ref = O;
},
{
pos = (142,204);
ref = hungarumlautcomb;
}
);
width = 612;
}
);
unicode = 336;
},
{
color = 4;
glyphname = Omacron;
lastChange = "2024-08-29 02:47:14 +0000";
layers = (
{
associatedMasterId = "F786B9CF-2625-4E74-A523-7F1B392BEC63";
layerId = "60B433FB-7962-4D91-9D7B-25075E58E57A";
name = img;
width = 612;
},
{
background = {
shapes = (
{
closed = 1;
nodes = (
(60,272,ls),
(60,86,o),
(152,-14,o),
(306,-14,cs),
(460,-14,o),
(552,86,o),
(552,272,cs),
(552,428,ls),
(552,608,o),
(460,714,o),
(306,714,cs),
(152,714,o),
(60,608,o),
(60,428,cs)
);
},
{
closed = 1;
nodes = (
(198,64,o),
(144,142,o),
(144,278,cs),
(144,422,ls),
(144,550,o),
(198,636,o),
(306,636,cs),
(414,636,o),
(468,550,o),
(468,422,cs),
(468,278,ls),
(468,142,o),
(414,64,o),
(306,64,cs)
);
},
{
closed = 1;
nodes = (
(447,774,l),
(447,840,l),
(165,840,l),
(165,774,l)
);
}
);
};
layerId = "F786B9CF-2625-4E74-A523-7F1B392BEC63";
shapes = (
{
ref = O;
},
{
pos = (115,204);
ref = macroncomb;
}
);
width = 612;
}
);
unicode = 332;
},
{
color = 3;
glyphname = Oogonek;
lastChange = "2024-08-29 03:02:51 +0000";
layers = (
{
background = {
shapes = (
{
closed = 1;
nodes = (
(60,272,ls),
(60,101,o),
(138,3,o),
(270,-12,c),
(258,-66,ls),
(256,-76,o),
(255,-83,o),
(255,-90,cs),
(255,-139,o),
(294,-164,o),
(333,-164,cs),
(389,-164,l),
(389,-98,l),
(347,-98,ls),
(333,-98,o),
(324,-90,o),
(324,-76,cs),
(324,-75,o),
(324,-73,o),
(325,-68,cs),
(338,-12,l),
(472,0,o),
(552,99,o),
(552,272,cs),
(552,428,ls),
(552,608,o),
(460,714,o),
(306,714,cs),
(152,714,o),
(60,608,o),
(60,428,cs)
);
},
{
closed = 1;
nodes = (
(198,64,o),
(144,142,o),
(144,278,cs),
(144,422,ls),
(144,550,o),
(198,636,o),
(306,636,cs),
(414,636,o),
(468,550,o),
(468,422,cs),
(468,278,ls),
(468,142,o),
(414,64,o),
(306,64,cs)
);
}
);
};
guides = (
{
angle = 90;
pos = (306,0);
}
);
layerId = "F786B9CF-2625-4E74-A523-7F1B392BEC63";
shapes = (
{
closed = 1;
nodes = (
(389,-164,l),
(389,-98,l),
(347,-98,ls),
(333,-98,o),
(324,-90,o),
(324,-76,cs),
(324,-75,o),
(324,-73,o),
(325,-68,cs),
(338,-12,l),
(472,0,o),
(552,99,o),
(552,272,cs),
(552,428,ls),
(552,608,o),
(460,714,o),
(306,714,cs),
(152,714,o),
(60,608,o),
(60,428,cs),
(60,272,ls),
(60,101,o),
(138,3,o),
(270,-12,c),
(258,-66,ls),
(256,-76,o),
(255,-83,o),
(255,-90,cs),
(255,-139,o),
(294,-164,o),
(333,-164,cs)
);
},
{
closed = 1;
nodes = (
(198,64,o),
(144,142,o),
(144,278,cs),
(144,422,ls),
(144,550,o),
(198,636,o),
(306,636,cs),
(414,636,o),
(468,550,o),
(468,422,cs),
(468,278,ls),
(468,142,o),
(414,64,o),
(306,64,cs)
);
}
);
width = 612;
}
);
unicode = 490;
},
{
glyphname = Oslash;
lastChange = "2024-08-29 00:25:29 +0000";
layers = (
{
background = {
shapes = (
{
closed = 1;
nodes = (
(131,-64,l),
(202,-86,l),
(229,-4,l),
(252,-11,o),
(278,-14,o),
(306,-14,cs),
(460,-14,o),
(552,86,o),
(552,272,cs),
(552,428,ls),
(552,541,o),
(515,624,o),
(450,671,c),
(477,752,l),
(407,774,l),
(384,703,l),
(360,710,o),
(334,714,o),
(306,714,cs),
(152,714,o),
(60,608,o),
(60,428,cs),
(60,272,ls),
(60,155,o),
(96,72,o),
(161,27,c)
);
},
{
closed = 1;
nodes = (
(144,422,ls),
(144,550,o),
(198,636,o),
(306,636,cs),
(325,636,o),
(343,633,o),
(359,628,c),
(189,113,l),
(159,150,o),
(144,206,o),
(144,278,c)
);
},
{
closed = 1;
nodes = (
(287,64,o),
(269,66,o),
(254,71,c),
(422,584,l),
(452,546,o),
(468,490,o),
(468,422,cs),
(468,278,ls),
(468,142,o),
(414,64,o),
(306,64,cs)
);
}
);
};
guides = (
{
angle = 90;
pos = (306,0);
}
);
layerId = "F786B9CF-2625-4E74-A523-7F1B392BEC63";
shapes = (
{
closed = 1;
nodes = (
(131,-64,l),
(202,-86,l),
(229,-4,l),
(252,-11,o),
(278,-14,o),
(306,-14,cs),
(460,-14,o),
(552,86,o),
(552,272,cs),
(552,428,ls),
(552,541,o),
(515,624,o),
(450,671,c),
(477,752,l),
(407,774,l),
(384,703,l),
(360,710,o),
(334,714,o),
(306,714,cs),
(152,714,o),
(60,608,o),
(60,428,cs),
(60,272,ls),
(60,155,o),
(96,72,o),
(161,27,c)
);
},
{
closed = 1;
nodes = (
(144,422,ls),
(144,550,o),
(198,636,o),
(306,636,cs),
(325,636,o),
(343,633,o),
(359,628,c),
(189,113,l),
(159,150,o),
(144,206,o),
(144,278,c)
);
},
{
closed = 1;
nodes = (
(287,64,o),
(269,66,o),
(254,71,c),
(422,584,l),
(452,546,o),
(468,490,o),
(468,422,cs),
(468,278,ls),
(468,142,o),
(414,64,o),
(306,64,cs)
);
}
);
width = 612;
}
);
unicode = 216;
},
{
color = 4;
glyphname = Otilde;
lastChange = "2024-08-29 03:20:44 +0000";
layers = (
{
background = {
shapes = (
{
closed = 1;
nodes = (
(60,272,ls),
(60,86,o),
(152,-14,o),
(306,-14,cs),
(460,-14,o),
(552,86,o),
(552,272,cs),
(552,428,ls),
(552,608,o),
(460,714,o),
(306,714,cs),
(152,714,o),
(60,608,o),
(60,428,cs)
);
},
{
closed = 1;
nodes = (
(198,64,o),
(144,142,o),
(144,278,cs),
(144,422,ls),
(144,550,o),
(198,636,o),
(306,636,cs),
(414,636,o),
(468,550,o),
(468,422,cs),
(468,278,ls),
(468,142,o),
(414,64,o),
(306,64,cs)
);
},
{
closed = 1;
nodes = (
(313,889,o),
(295,907,o),
(256,907,cs),
(220,907,o),
(196,888,o),
(177,865,cs),
(136,816,l),
(185,774,l),
(231,827,ls),
(239,836,o),
(245,839,o),
(253,839,cs),
(264,839,o),
(268,833,o),
(277,817,cs),
(299,776,o),
(317,758,o),
(358,758,cs),
(393,758,o),
(417,777,o),
(436,800,cs),
(477,849,l),
(428,891,l),
(380,836,ls),
(374,829,o),
(368,826,o),
(361,826,cs),
(349,826,o),
(344,833,o),
(337,846,cs)
);
}
);
};
guides = (
{
pos = (0,774);
},
{
angle = 90;
pos = (306,0);
}
);
layerId = "F786B9CF-2625-4E74-A523-7F1B392BEC63";
shapes = (
{
ref = O;
},
{
pos = (85,204);
ref = tildecomb;
}
);
width = 612;
}
);
unicode = 213;
},
{
glyphname = OE;
lastChange = "2024-08-29 00:25:29 +0000";
layers = (
{
background = {
shapes = (
{
closed = 1;
nodes = (
(546,0,l),
(546,78,l),
(384,78,l),
(384,312,l),
(534,312,l),
(534,390,l),
(384,390,l),
(384,622,l),
(540,622,l),
(540,700,l),
(300,700,ls),
(146,700,o),
(54,594,o),
(54,414,cs),
(54,286,ls),
(54,100,o),
(146,0,o),
(300,0,c)
);
},
{
closed = 1;
nodes = (
(300,78,l),
(192,78,o),
(138,156,o),
(138,292,cs),
(138,408,ls),
(138,536,o),
(192,622,o),
(300,622,c)
);
}
);
};
layerId = "F786B9CF-2625-4E74-A523-7F1B392BEC63";
shapes = (
{
closed = 1;
nodes = (
(546,0,l),
(546,78,l),
(384,78,l),
(384,312,l),
(534,312,l),
(534,390,l),
(384,390,l),
(384,622,l),
(540,622,l),
(540,700,l),
(300,700,ls),
(146,700,o),
(54,594,o),
(54,414,cs),
(54,286,ls),
(54,100,o),
(146,0,o),
(300,0,c)
);
},
{
closed = 1;
nodes = (
(300,78,l),
(192,78,o),
(138,156,o),
(138,292,cs),
(138,408,ls),
(138,536,o),
(192,622,o),
(300,622,c)
);
}
);
width = 612;
}
);
unicode = 338;
},
{
glyphname = P;
lastChange = "2024-08-29 00:28:26 +0000";
layers = (
{
anchors = (
{
name = bottom;
pos = (306,0);
},
{
name = top;
pos = (306,700);
}
);
background = {
shapes = (
{
closed = 1;
nodes = (
(335,288,ls),
(477,288,o),
(549,378,o),
(549,480,cs),
(549,510,ls),
(549,611,o),
(478,700,o),
(335,700,cs),
(85,700,l),
(85,0,l),
(169,0,l),
(169,288,l)
);
},
{
closed = 1;
nodes = (
(169,622,l),
(325,622,ls),
(419,622,o),
(465,574,o),
(465,504,cs),
(465,486,ls),
(465,406,o),
(419,366,o),
(325,366,cs),
(169,366,l)
);
}
);
};
layerId = "F786B9CF-2625-4E74-A523-7F1B392BEC63";
shapes = (
{
closed = 1;
nodes = (
(169,0,l),
(169,288,l),
(335,288,ls),
(477,288,o),
(549,378,o),
(549,480,cs),
(549,510,ls),
(549,611,o),
(478,700,o),
(335,700,cs),
(85,700,l),
(85,0,l)
);
},
{
closed = 1;
nodes = (
(169,622,l),
(325,622,ls),
(419,622,o),
(465,574,o),
(465,504,cs),
(465,486,ls),
(465,406,o),
(419,366,o),
(325,366,cs),
(169,366,l)
);
}
);
width = 612;
}
);
unicode = 80;
},
{
color = 4;
glyphname = Thorn;
lastChange = "2024-08-29 03:02:23 +0000";
layers = (
{
background = {
shapes = (
{
closed = 1;
nodes = (
(335,150,ls),
(477,150,o),
(549,240,o),
(549,342,cs),
(549,372,ls),
(549,473,o),
(478,562,o),
(335,562,cs),
(169,562,l),
(169,700,l),
(85,700,l),
(85,0,l),
(169,0,l),
(169,150,l)
);
},
{
closed = 1;
nodes = (
(169,484,l),
(325,484,ls),
(419,484,o),
(465,436,o),
(465,366,cs),
(465,348,ls),
(465,268,o),
(419,228,o),
(325,228,cs),
(169,228,l)
);
}
);
};
layerId = "F786B9CF-2625-4E74-A523-7F1B392BEC63";
shapes = (
{
closed = 1;
nodes = (
(335,150,ls),
(477,150,o),
(549,240,o),
(549,342,cs),
(549,372,ls),
(549,473,o),
(478,562,o),
(335,562,cs),
(169,562,l),
(169,700,l),
(85,700,l),
(85,0,l),
(169,0,l),
(169,150,l)
);
},
{
closed = 1;
nodes = (
(169,484,l),
(325,484,ls),
(419,484,o),
(465,436,o),
(465,366,cs),
(465,348,ls),
(465,268,o),
(419,228,o),
(325,228,cs),
(169,228,l)
);
}
);
width = 612;
}
);
unicode = 222;
},
{
glyphname = Q;
lastChange = "2024-08-29 00:28:32 +0000";
layers = (
{
anchors = (
{
name = bottom;
pos = (306,0);
},
{
name = top;
pos = (306,700);
}
);
background = {
shapes = (
{
closed = 1;
nodes = (
(60,272,ls),
(60,102,o),
(136,4,o),
(267,-12,c),
(267,-78,ls),
(267,-123,o),
(299,-156,o),
(344,-156,cs),
(456,-156,l),
(456,-84,l),
(372,-84,ls),
(353,-84,o),
(345,-73,o),
(345,-54,cs),
(345,-12,l),
(475,3,o),
(552,102,o),
(552,272,cs),
(552,428,ls),
(552,608,o),
(460,714,o),
(306,714,cs),
(152,714,o),
(60,608,o),
(60,428,cs)
);
},
{
closed = 1;
nodes = (
(198,64,o),
(144,142,o),
(144,278,cs),
(144,422,ls),
(144,550,o),
(198,636,o),
(306,636,cs),
(414,636,o),
(468,550,o),
(468,422,cs),
(468,278,ls),
(468,142,o),
(414,64,o),
(306,64,cs)
);
}
);
};
layerId = "F786B9CF-2625-4E74-A523-7F1B392BEC63";
shapes = (
{
closed = 1;
nodes = (
(456,-156,l),
(456,-84,l),
(372,-84,ls),
(353,-84,o),
(345,-73,o),
(345,-54,cs),
(345,-12,l),
(475,3,o),
(552,102,o),
(552,272,cs),
(552,428,ls),
(552,608,o),
(460,714,o),
(306,714,cs),
(152,714,o),
(60,608,o),
(60,428,cs),
(60,272,ls),
(60,102,o),
(136,4,o),
(267,-12,c),
(267,-78,ls),
(267,-123,o),
(299,-156,o),
(344,-156,cs)
);
},
{
closed = 1;
nodes = (
(198,64,o),
(144,142,o),
(144,278,cs),
(144,422,ls),
(144,550,o),
(198,636,o),
(306,636,cs),
(414,636,o),
(468,550,o),
(468,422,cs),
(468,278,ls),
(468,142,o),
(414,64,o),
(306,64,cs)
);
}
);
width = 612;
}
);
unicode = 81;
},
{
glyphname = R;
lastChange = "2024-08-29 01:53:43 +0000";
layers = (
{
anchors = (
{
name = bottom;
pos = (306,0);
},
{
name = top;
pos = (283,700);
}
);
background = {
shapes = (
{
closed = 1;
nodes = (
(525,252,ls),
(525,298,o),
(501,324,o),
(461,330,c),
(461,342,l),
(521,370,o),
(549,428,o),
(549,480,cs),
(549,510,ls),
(549,611,o),
(478,700,o),
(335,700,cs),
(85,700,l),
(85,0,l),
(169,0,l),
(169,288,l),
(387,288,ls),
(427,288,o),
(441,268,o),
(441,234,cs),
(441,0,l),
(525,0,l)
);
},
{
closed = 1;
nodes = (
(169,622,l),
(325,622,ls),
(419,622,o),
(465,574,o),
(465,504,cs),
(465,486,ls),
(465,408,o),
(419,366,o),
(325,366,cs),
(169,366,l)
);
}
);
};
layerId = "F786B9CF-2625-4E74-A523-7F1B392BEC63";
shapes = (
{
closed = 1;
nodes = (
(169,0,l),
(169,288,l),
(387,288,ls),
(427,288,o),
(441,268,o),
(441,234,cs),
(441,0,l),
(525,0,l),
(525,252,ls),
(525,298,o),
(501,324,o),
(461,330,c),
(461,342,l),
(521,370,o),
(549,428,o),
(549,480,cs),
(549,510,ls),
(549,611,o),
(478,700,o),
(335,700,cs),
(85,700,l),
(85,0,l)
);
},
{
closed = 1;
nodes = (
(169,622,l),
(325,622,ls),
(419,622,o),
(465,574,o),
(465,504,cs),
(465,486,ls),
(465,408,o),
(419,366,o),
(325,366,cs),
(169,366,l)
);
}
);
width = 612;
}
);
unicode = 82;
},
{
color = 4;
glyphname = Racute;
lastChange = "2024-08-29 02:02:39 +0000";
layers = (
{
associatedMasterId = "F786B9CF-2625-4E74-A523-7F1B392BEC63";
layerId = "60B433FB-7962-4D91-9D7B-25075E58E57A";
name = img;
width = 612;
},
{
background = {
shapes = (
{
closed = 1;
nodes = (
(525,252,ls),
(525,298,o),
(501,324,o),
(461,330,c),
(461,342,l),
(521,370,o),
(549,428,o),
(549,480,cs),
(549,510,ls),
(549,611,o),
(478,700,o),
(335,700,cs),
(85,700,l),
(85,0,l),
(169,0,l),
(169,288,l),
(387,288,ls),
(427,288,o),
(441,268,o),
(441,234,cs),
(441,0,l),
(525,0,l)
);
},
{
closed = 1;
nodes = (
(169,622,l),
(325,622,ls),
(419,622,o),
(465,574,o),
(465,504,cs),
(465,486,ls),
(465,408,o),
(419,366,o),
(325,366,cs),
(169,366,l)
);
},
{
closed = 1;
nodes = (
(318,892,l),
(252,774,l),
(324,774,l),
(408,892,l)
);
}
);
};
guides = (
{
angle = 90;
pos = (335,0);
},
{
angle = 90;
pos = (325,0);
}
);
layerId = "F786B9CF-2625-4E74-A523-7F1B392BEC63";
shapes = (
{
ref = R;
},
{
pos = (204,204);
ref = acutecomb;
}
);
width = 612;
}
);
unicode = 340;
},
{
color = 4;
glyphname = Rcaron;
lastChange = "2024-08-29 02:16:24 +0000";
layers = (
{
associatedMasterId = "F786B9CF-2625-4E74-A523-7F1B392BEC63";
layerId = "60B433FB-7962-4D91-9D7B-25075E58E57A";
name = img;
width = 612;
},
{
background = {
shapes = (
{
closed = 1;
nodes = (
(525,252,ls),
(525,298,o),
(501,324,o),
(461,330,c),
(461,342,l),
(521,370,o),
(549,428,o),
(549,480,cs),
(549,510,ls),
(549,611,o),
(478,700,o),
(335,700,cs),
(85,700,l),
(85,0,l),
(169,0,l),
(169,288,l),
(387,288,ls),
(427,288,o),
(441,268,o),
(441,234,cs),
(441,0,l),
(525,0,l)
);
},
{
closed = 1;
nodes = (
(169,622,l),
(325,622,ls),
(419,622,o),
(465,574,o),
(465,504,cs),
(465,486,ls),
(465,408,o),
(419,366,o),
(325,366,cs),
(169,366,l)
);
},
{
closed = 1;
nodes = (
(335,892,l),
(283,804,l),
(271,804,l),
(219,892,l),
(135,892,l),
(215,774,l),
(339,774,l),
(419,892,l)
);
}
);
};
guides = (
{
angle = 90;
pos = (335,0);
}
);
layerId = "F786B9CF-2625-4E74-A523-7F1B392BEC63";
shapes = (
{
ref = R;
},
{
pos = (-23,204);
ref = caroncomb;
}
);
width = 612;
}
);
unicode = 344;
},
{
color = 4;
glyphname = Rcommaaccent;
lastChange = "2024-08-29 02:51:55 +0000";
layers = (
{
associatedMasterId = "F786B9CF-2625-4E74-A523-7F1B392BEC63";
layerId = "60B433FB-7962-4D91-9D7B-25075E58E57A";
name = img;
width = 612;
},
{
background = {
shapes = (
{
closed = 1;
nodes = (
(525,252,ls),
(525,298,o),
(501,324,o),
(461,330,c),
(461,342,l),
(521,370,o),
(549,428,o),
(549,480,cs),
(549,510,ls),
(549,611,o),
(478,700,o),
(335,700,cs),
(85,700,l),
(85,0,l),
(169,0,l),
(169,288,l),
(387,288,ls),
(427,288,o),
(441,268,o),
(441,234,cs),
(441,0,l),
(525,0,l)
);
},
{
closed = 1;
nodes = (
(169,622,l),
(325,622,ls),
(419,622,o),
(465,574,o),
(465,504,cs),
(465,486,ls),
(465,408,o),
(419,366,o),
(325,366,cs),
(169,366,l)
);
},
{
closed = 1;
nodes = (
(241,-152,o),
(273,-184,o),
(310,-184,cs),
(316,-184,o),
(322,-183,o),
(327,-181,c),
(327,-206,ls),
(327,-225,o),
(319,-236,o),
(300,-236,cs),
(253,-236,l),
(253,-290,l),
(304,-290,ls),
(349,-290,o),
(381,-257,o),
(381,-212,cs),
(381,-114,ls),
(381,-76,o),
(349,-44,o),
(311,-44,cs),
(273,-44,o),
(241,-76,o),
(241,-114,cs)
);
}
);
};
guides = (
{
angle = 90;
pos = (169,0);
},
{
angle = 90;
pos = (441,0);
}
);
layerId = "F786B9CF-2625-4E74-A523-7F1B392BEC63";
shapes = (
{
ref = R;
},
{
pos = (186,0);
ref = commaaccentcomb;
}
);
width = 612;
}
);
unicode = 342;
},
{
color = 4;
glyphname = Rdotbelow;
lastChange = "2024-08-29 02:44:02 +0000";
layers = (
{
background = {
shapes = (
{
closed = 1;
nodes = (
(525,252,ls),
(525,298,o),
(501,324,o),
(461,330,c),
(461,342,l),
(521,370,o),
(549,428,o),
(549,480,cs),
(549,510,ls),
(549,611,o),
(478,700,o),
(335,700,cs),
(85,700,l),
(85,0,l),
(169,0,l),
(169,288,l),
(387,288,ls),
(427,288,o),
(441,268,o),
(441,234,cs),
(441,0,l),
(525,0,l)
);
},
{
closed = 1;
nodes = (
(169,622,l),
(325,622,ls),
(419,622,o),
(465,574,o),
(465,504,cs),
(465,486,ls),
(465,408,o),
(419,366,o),
(325,366,cs),
(169,366,l)
);
},
{
closed = 1;
nodes = (
(235,-172,o),
(267,-204,o),
(305,-204,cs),
(343,-204,o),
(375,-172,o),
(375,-134,cs),
(375,-96,o),
(343,-64,o),
(305,-64,cs),
(267,-64,o),
(235,-96,o),
(235,-134,cs)
);
}
);
};
guides = (
{
pos = (0,-64);
},
{
angle = 90;
pos = (169,0);
},
{
angle = 90;
pos = (441,0);
},
{
angle = 90;
pos = (305,0);
}
);
layerId = "F786B9CF-2625-4E74-A523-7F1B392BEC63";
shapes = (
{
ref = R;
},
{
ref = dotbelowcomb;
}
);
width = 612;
}
);
unicode = 7770;
},
{
color = 4;
glyphname = Rdotbelowmacron;
lastChange = "2024-08-29 02:44:02 +0000";
layers = (
{
background = {
shapes = (
{
closed = 1;
nodes = (
(525,252,ls),
(525,298,o),
(501,324,o),
(461,330,c),
(461,342,l),
(521,370,o),
(549,428,o),
(549,480,cs),
(549,510,ls),
(549,611,o),
(478,700,o),
(335,700,cs),
(85,700,l),
(85,0,l),
(169,0,l),
(169,288,l),
(387,288,ls),
(427,288,o),
(441,268,o),
(441,234,cs),
(441,0,l),
(525,0,l)
);
},
{
closed = 1;
nodes = (
(169,622,l),
(325,622,ls),
(419,622,o),
(465,574,o),
(465,504,cs),
(465,486,ls),
(465,408,o),
(419,366,o),
(325,366,cs),
(169,366,l)
);
},
{
closed = 1;
nodes = (
(451,774,l),
(451,840,l),
(169,840,l),
(169,774,l)
);
},
{
closed = 1;
nodes = (
(235,-172,o),
(267,-204,o),
(305,-204,cs),
(343,-204,o),
(375,-172,o),
(375,-134,cs),
(375,-96,o),
(343,-64,o),
(305,-64,cs),
(267,-64,o),
(235,-96,o),
(235,-134,cs)
);
}
);
};
guides = (
{
pos = (0,774);
},
{
angle = 90;
pos = (169,0);
}
);
layerId = "F786B9CF-2625-4E74-A523-7F1B392BEC63";
shapes = (
{
ref = R;
},
{
ref = dotbelowcomb;
},
{
pos = (92,204);
ref = macroncomb;
}
);
width = 612;
}
);
unicode = 7772;
},
{
color = 4;
glyphname = Rmacronbelow;
lastChange = "2024-08-29 02:47:14 +0000";
layers = (
{
background = {
shapes = (
{
closed = 1;
nodes = (
(525,252,ls),
(525,298,o),
(501,324,o),
(461,330,c),
(461,342,l),
(521,370,o),
(549,428,o),
(549,480,cs),
(549,510,ls),
(549,611,o),
(478,700,o),
(335,700,cs),
(85,700,l),
(85,0,l),
(169,0,l),
(169,288,l),
(387,288,ls),
(427,288,o),
(441,268,o),
(441,234,cs),
(441,0,l),
(525,0,l)
);
},
{
closed = 1;
nodes = (
(169,622,l),
(325,622,ls),
(419,622,o),
(465,574,o),
(465,504,cs),
(465,486,ls),
(465,408,o),
(419,366,o),
(325,366,cs),
(169,366,l)
);
},
{
closed = 1;
nodes = (
(446,-130,l),
(446,-64,l),
(164,-64,l),
(164,-130,l)
);
}
);
};
guides = (
{
pos = (0,-64);
},
{
angle = 90;
pos = (169,0);
},
{
angle = 90;
pos = (441,0);
}
);
layerId = "F786B9CF-2625-4E74-A523-7F1B392BEC63";
shapes = (
{
ref = R;
},
{
ref = macronbelowcomb;
}
);
width = 612;
}
);
unicode = 7774;
},
{
color = 3;
glyphname = S;
lastChange = "2024-08-29 02:48:55 +0000";
layers = (
{
anchors = (
{
name = bottom;
pos = (319,0);
},
{
name = top;
pos = (302,700);
}
);
background = {
shapes = (
{
closed = 1;
nodes = (
(471,462,l),
(555,462,l),
(555,504,ls),
(555,617,o),
(464,714,o),
(306,714,cs),
(170,714,o),
(75,637,o),
(75,528,cs),
(75,516,ls),
(75,396,o),
(165,342,o),
(305,322,cs),
(426,305,o),
(477,269,o),
(477,196,cs),
(477,190,ls),
(477,115,o),
(424,64,o),
(320,64,cs),
(201,64,o),
(129,126,o),
(129,248,cs),
(129,272,l),
(45,272,l),
(45,242,ls),
(45,96,o),
(141,-14,o),
(320,-14,cs),
(477,-14,o),
(561,69,o),
(561,190,cs),
(561,202,ls),
(561,308,o),
(493,372,o),
(347,394,cs),
(222,413,o),
(159,442,o),
(159,519,cs),
(159,525,ls),
(159,596,o),
(229,636,o),
(305,636,cs),
(393,636,o),
(471,589,o),
(471,498,cs)
);
}
);
};
layerId = "F786B9CF-2625-4E74-A523-7F1B392BEC63";
shapes = (
{
closed = 1;
nodes = (
(477,-14,o),
(561,69,o),
(561,190,cs),
(561,202,ls),
(561,308,o),
(493,372,o),
(347,394,cs),
(222,413,o),
(159,442,o),
(159,519,cs),
(159,525,ls),
(159,596,o),
(229,636,o),
(305,636,cs),
(393,636,o),
(471,589,o),
(471,498,cs),
(471,462,l),
(555,462,l),
(555,504,ls),
(555,617,o),
(464,714,o),
(306,714,cs),
(170,714,o),
(75,637,o),
(75,528,cs),
(75,516,ls),
(75,396,o),
(165,342,o),
(305,322,cs),
(426,305,o),
(477,269,o),
(477,196,cs),
(477,190,ls),
(477,115,o),
(424,64,o),
(320,64,cs),
(201,64,o),
(129,126,o),
(129,248,cs),
(129,272,l),
(45,272,l),
(45,242,ls),
(45,96,o),
(141,-14,o),
(320,-14,cs)
);
}
);
width = 612;
}
);
unicode = 83;
},
{
color = 4;
glyphname = Sacute;
lastChange = "2024-08-29 02:02:39 +0000";
layers = (
{
associatedMasterId = "F786B9CF-2625-4E74-A523-7F1B392BEC63";
layerId = "60B433FB-7962-4D91-9D7B-25075E58E57A";
name = img;
width = 612;
},
{
background = {
shapes = (
{
closed = 1;
nodes = (
(471,462,l),
(555,462,l),
(555,504,ls),
(555,617,o),
(464,714,o),
(306,714,cs),
(170,714,o),
(75,637,o),
(75,528,cs),
(75,516,ls),
(75,396,o),
(165,342,o),
(305,322,cs),
(426,305,o),
(477,269,o),
(477,196,cs),
(477,190,ls),
(477,115,o),
(424,64,o),
(320,64,cs),
(201,64,o),
(129,126,o),
(129,248,cs),
(129,272,l),
(45,272,l),
(45,242,ls),
(45,96,o),
(141,-14,o),
(320,-14,cs),
(477,-14,o),
(561,69,o),
(561,190,cs),
(561,202,ls),
(561,308,o),
(493,372,o),
(347,394,cs),
(222,413,o),
(159,442,o),
(159,519,cs),
(159,525,ls),
(159,596,o),
(229,636,o),
(305,636,cs),
(393,636,o),
(471,589,o),
(471,498,cs)
);
},
{
closed = 1;
nodes = (
(324,892,l),
(258,774,l),
(330,774,l),
(414,892,l)
);
}
);
};
guides = (
{
angle = 90;
pos = (306,0);
}
);
layerId = "F786B9CF-2625-4E74-A523-7F1B392BEC63";
shapes = (
{
ref = S;
},
{
pos = (223,204);
ref = acutecomb;
}
);
width = 612;
}
);
unicode = 346;
},
{
color = 4;
glyphname = Scaron;
lastChange = "2024-08-29 02:16:24 +0000";
layers = (
{
background = {
shapes = (
{
closed = 1;
nodes = (
(471,462,l),
(555,462,l),
(555,504,ls),
(555,617,o),
(464,714,o),
(306,714,cs),
(170,714,o),
(75,637,o),
(75,528,cs),
(75,516,ls),
(75,396,o),
(165,342,o),
(305,322,cs),
(426,305,o),
(477,269,o),
(477,196,cs),
(477,190,ls),
(477,115,o),
(424,64,o),
(320,64,cs),
(201,64,o),
(129,126,o),
(129,248,cs),
(129,272,l),
(45,272,l),
(45,242,ls),
(45,96,o),
(141,-14,o),
(320,-14,cs),
(477,-14,o),
(561,69,o),
(561,190,cs),
(561,202,ls),
(561,308,o),
(493,372,o),
(347,394,cs),
(222,413,o),
(159,442,o),
(159,519,cs),
(159,525,ls),
(159,596,o),
(229,636,o),
(305,636,cs),
(393,636,o),
(471,589,o),
(471,498,cs)
);
},
{
closed = 1;
nodes = (
(366,892,l),
(314,804,l),
(302,804,l),
(250,892,l),
(166,892,l),
(246,774,l),
(370,774,l),
(450,892,l)
);
}
);
};
guides = (
{
pos = (0,774);
}
);
layerId = "F786B9CF-2625-4E74-A523-7F1B392BEC63";
shapes = (
{
ref = S;
},
{
pos = (-4,204);
ref = caroncomb;
}
);
width = 612;
}
);
unicode = 352;
},
{
color = 3;
glyphname = Scedilla;
lastChange = "2024-08-29 02:32:04 +0000";
layers = (
{
associatedMasterId = "F786B9CF-2625-4E74-A523-7F1B392BEC63";
layerId = "60B433FB-7962-4D91-9D7B-25075E58E57A";
name = img;
width = 612;
},
{
background = {
shapes = (
{
closed = 1;
nodes = (
(471,462,l),
(555,462,l),
(555,504,ls),
(555,617,o),
(464,714,o),
(306,714,cs),
(170,714,o),
(75,637,o),
(75,528,cs),
(75,516,ls),
(75,396,o),
(165,342,o),
(305,322,cs),
(426,305,o),
(477,269,o),
(477,196,cs),
(477,190,ls),
(477,115,o),
(424,64,o),
(320,64,cs),
(201,64,o),
(129,126,o),
(129,248,cs),
(129,272,l),
(45,272,l),
(45,242,ls),
(45,112,o),
(121,11,o),
(264,-10,c),
(246,-92,l),
(246,-98,l),
(322,-98,l),
(326,-90,o),
(335,-84,o),
(347,-84,cs),
(366,-84,o),
(382,-98,o),
(382,-122,cs),
(382,-151,o),
(362,-164,o),
(342,-164,cs),
(313,-164,o),
(298,-144,o),
(294,-124,c),
(246,-142,l),
(256,-182,o),
(286,-212,o),
(343,-212,cs),
(395,-212,o),
(436,-176,o),
(436,-121,cs),
(436,-75,o),
(406,-36,o),
(360,-36,cs),
(332,-36,o),
(314,-48,o),
(306,-68,c),
(300,-68,l),
(312,-14,l),
(320,-14,ls),
(477,-14,o),
(561,69,o),
(561,190,cs),
(561,202,ls),
(561,308,o),
(493,372,o),
(347,394,cs),
(222,413,o),
(159,442,o),
(159,519,cs),
(159,525,ls),
(159,596,o),
(229,636,o),
(305,636,cs),
(393,636,o),
(471,589,o),
(471,498,cs)
);
}
);
};
guides = (
{
angle = 90;
pos = (320,0);
}
);
layerId = "F786B9CF-2625-4E74-A523-7F1B392BEC63";
shapes = (
{
closed = 1;
nodes = (
(395,-212,o),
(436,-176,o),
(436,-121,cs),
(436,-75,o),
(406,-36,o),
(360,-36,cs),
(332,-36,o),
(314,-48,o),
(306,-68,c),
(300,-68,l),
(312,-14,l),
(320,-14,ls),
(477,-14,o),
(561,69,o),
(561,190,cs),
(561,202,ls),
(561,308,o),
(493,372,o),
(347,394,cs),
(222,413,o),
(159,442,o),
(159,519,cs),
(159,525,ls),
(159,596,o),
(229,636,o),
(305,636,cs),
(393,636,o),
(471,589,o),
(471,498,cs),
(471,462,l),
(555,462,l),
(555,504,ls),
(555,617,o),
(464,714,o),
(306,714,cs),
(170,714,o),
(75,637,o),
(75,528,cs),
(75,516,ls),
(75,396,o),
(165,342,o),
(305,322,cs),
(426,305,o),
(477,269,o),
(477,196,cs),
(477,190,ls),
(477,115,o),
(424,64,o),
(320,64,cs),
(201,64,o),
(129,126,o),
(129,248,cs),
(129,272,l),
(45,272,l),
(45,242,ls),
(45,112,o),
(121,11,o),
(264,-10,c),
(246,-92,l),
(246,-98,l),
(322,-98,l),
(326,-90,o),
(335,-84,o),
(347,-84,cs),
(366,-84,o),
(382,-98,o),
(382,-122,cs),
(382,-151,o),
(362,-164,o),
(342,-164,cs),
(313,-164,o),
(298,-144,o),
(294,-124,c),
(246,-142,l),
(256,-182,o),
(286,-212,o),
(343,-212,cs)
);
}
);
width = 612;
}
);
unicode = 350;
},
{
color = 4;
glyphname = Scircumflex;
lastChange = "2024-08-29 02:31:04 +0000";
layers = (
{
associatedMasterId = "F786B9CF-2625-4E74-A523-7F1B392BEC63";
layerId = "60B433FB-7962-4D91-9D7B-25075E58E57A";
name = img;
width = 612;
},
{
background = {
shapes = (
{
closed = 1;
nodes = (
(471,462,l),
(555,462,l),
(555,504,ls),
(555,617,o),
(464,714,o),
(306,714,cs),
(170,714,o),
(75,637,o),
(75,528,cs),
(75,516,ls),
(75,396,o),
(165,342,o),
(305,322,cs),
(426,305,o),
(477,269,o),
(477,196,cs),
(477,190,ls),
(477,115,o),
(424,64,o),
(320,64,cs),
(201,64,o),
(129,126,o),
(129,248,cs),
(129,272,l),
(45,272,l),
(45,242,ls),
(45,96,o),
(141,-14,o),
(320,-14,cs),
(477,-14,o),
(561,69,o),
(561,190,cs),
(561,202,ls),
(561,308,o),
(493,372,o),
(347,394,cs),
(222,413,o),
(159,442,o),
(159,519,cs),
(159,525,ls),
(159,596,o),
(229,636,o),
(305,636,cs),
(393,636,o),
(471,589,o),
(471,498,cs)
);
},
{
closed = 1;
nodes = (
(448,774,l),
(368,892,l),
(244,892,l),
(164,774,l),
(248,774,l),
(300,862,l),
(312,862,l),
(364,774,l)
);
}
);
};
guides = (
{
angle = 90;
pos = (306,0);
}
);
layerId = "F786B9CF-2625-4E74-A523-7F1B392BEC63";
shapes = (
{
ref = S;
},
{
pos = (-4,204);
ref = circumflexcomb;
}
);
width = 612;
}
);
unicode = 348;
},
{
color = 4;
glyphname = Scommaaccent;
lastChange = "2024-08-29 02:51:55 +0000";
layers = (
{
background = {
shapes = (
{
closed = 1;
nodes = (
(471,462,l),
(555,462,l),
(555,504,ls),
(555,617,o),
(464,714,o),
(306,714,cs),
(170,714,o),
(75,637,o),
(75,528,cs),
(75,516,ls),
(75,396,o),
(165,342,o),
(305,322,cs),
(426,305,o),
(477,269,o),
(477,196,cs),
(477,190,ls),
(477,115,o),
(424,64,o),
(320,64,cs),
(201,64,o),
(129,126,o),
(129,248,cs),
(129,272,l),
(45,272,l),
(45,242,ls),
(45,96,o),
(141,-14,o),
(320,-14,cs),
(477,-14,o),
(561,69,o),
(561,190,cs),
(561,202,ls),
(561,308,o),
(493,372,o),
(347,394,cs),
(222,413,o),
(159,442,o),
(159,519,cs),
(159,525,ls),
(159,596,o),
(229,636,o),
(305,636,cs),
(393,636,o),
(471,589,o),
(471,498,cs)
);
},
{
closed = 1;
nodes = (
(250,-152,o),
(282,-184,o),
(319,-184,cs),
(325,-184,o),
(331,-183,o),
(336,-181,c),
(336,-206,ls),
(336,-225,o),
(328,-236,o),
(309,-236,cs),
(262,-236,l),
(262,-290,l),
(313,-290,ls),
(358,-290,o),
(390,-257,o),
(390,-212,cs),
(390,-114,ls),
(390,-76,o),
(358,-44,o),
(320,-44,cs),
(282,-44,o),
(250,-76,o),
(250,-114,cs)
);
}
);
};
guides = (
{
angle = 90;
pos = (320,0);
}
);
layerId = "F786B9CF-2625-4E74-A523-7F1B392BEC63";
shapes = (
{
ref = S;
},
{
pos = (199,0);
ref = commaaccentcomb;
}
);
width = 612;
}
);
unicode = 536;
},
{
color = 4;
glyphname = Sdotaccent;
lastChange = "2024-08-29 02:44:02 +0000";
layers = (
{
background = {
shapes = (
{
closed = 1;
nodes = (
(471,462,l),
(555,462,l),
(555,504,ls),
(555,617,o),
(464,714,o),
(306,714,cs),
(170,714,o),
(75,637,o),
(75,528,cs),
(75,516,ls),
(75,396,o),
(165,342,o),
(305,322,cs),
(426,305,o),
(477,269,o),
(477,196,cs),
(477,190,ls),
(477,115,o),
(424,64,o),
(320,64,cs),
(201,64,o),
(129,126,o),
(129,248,cs),
(129,272,l),
(45,272,l),
(45,242,ls),
(45,96,o),
(141,-14,o),
(320,-14,cs),
(477,-14,o),
(561,69,o),
(561,190,cs),
(561,202,ls),
(561,308,o),
(493,372,o),
(347,394,cs),
(222,413,o),
(159,442,o),
(159,519,cs),
(159,525,ls),
(159,596,o),
(229,636,o),
(305,636,cs),
(393,636,o),
(471,589,o),
(471,498,cs)
);
},
{
closed = 1;
nodes = (
(236,806,o),
(268,774,o),
(306,774,cs),
(344,774,o),
(376,806,o),
(376,844,cs),
(376,882,o),
(344,914,o),
(306,914,cs),
(268,914,o),
(236,882,o),
(236,844,cs)
);
}
);
};
guides = (
{
pos = (0,774);
},
{
angle = 90;
pos = (306,0);
}
);
layerId = "F786B9CF-2625-4E74-A523-7F1B392BEC63";
shapes = (
{
ref = S;
},
{
pos = (-4,204);
ref = dotaccentcomb;
}
);
width = 612;
}
);
unicode = 7776;
},
{
color = 4;
glyphname = Sdotbelow;
lastChange = "2024-08-29 02:44:02 +0000";
layers = (
{
background = {
shapes = (
{
closed = 1;
nodes = (
(471,462,l),
(555,462,l),
(555,504,ls),
(555,617,o),
(464,714,o),
(306,714,cs),
(170,714,o),
(75,637,o),
(75,528,cs),
(75,516,ls),
(75,396,o),
(165,342,o),
(305,322,cs),
(426,305,o),
(477,269,o),
(477,196,cs),
(477,190,ls),
(477,115,o),
(424,64,o),
(320,64,cs),
(201,64,o),
(129,126,o),
(129,248,cs),
(129,272,l),
(45,272,l),
(45,242,ls),
(45,96,o),
(141,-14,o),
(320,-14,cs),
(477,-14,o),
(561,69,o),
(561,190,cs),
(561,202,ls),
(561,308,o),
(493,372,o),
(347,394,cs),
(222,413,o),
(159,442,o),
(159,519,cs),
(159,525,ls),
(159,596,o),
(229,636,o),
(305,636,cs),
(393,636,o),
(471,589,o),
(471,498,cs)
);
},
{
closed = 1;
nodes = (
(250,-172,o),
(282,-204,o),
(320,-204,cs),
(358,-204,o),
(390,-172,o),
(390,-134,cs),
(390,-96,o),
(358,-64,o),
(320,-64,cs),
(282,-64,o),
(250,-96,o),
(250,-134,cs)
);
}
);
};
guides = (
{
pos = (0,-64);
},
{
angle = 90;
pos = (320,0);
}
);
layerId = "F786B9CF-2625-4E74-A523-7F1B392BEC63";
shapes = (
{
ref = S;
},
{
pos = (13,0);
ref = dotbelowcomb;
}
);
width = 612;
}
);
unicode = 7778;
},
{
glyphname = Germandbls;
lastChange = "2024-08-29 00:25:29 +0000";
layers = (
{
associatedMasterId = "F786B9CF-2625-4E74-A523-7F1B392BEC63";
layerId = "60B433FB-7962-4D91-9D7B-25075E58E57A";
name = img;
width = 612;
},
{
background = {
shapes = (
{
closed = 1;
nodes = (
(343,348,ls),
(423,348,o),
(483,300,o),
(483,221,cs),
(483,215,ls),
(483,136,o),
(415,78,o),
(327,78,cs),
(249,78,l),
(249,0,l),
(329,0,ls),
(465,0,o),
(567,94,o),
(567,210,cs),
(567,222,ls),
(567,346,o),
(470,414,o),
(361,414,cs),
(321,414,l),
(321,426,l),
(513,570,l),
(513,700,l),
(297,700,ls),
(178,700,o),
(96,628,o),
(96,496,c),
(36,496,l),
(36,418,l),
(96,418,l),
(96,0,l),
(180,0,l),
(180,496,ls),
(180,582,o),
(230,622,o),
(303,622,cs),
(441,622,l),
(441,610,l),
(249,466,l),
(249,348,l)
);
}
);
};
layerId = "F786B9CF-2625-4E74-A523-7F1B392BEC63";
shapes = (
{
closed = 1;
nodes = (
(343,348,ls),
(423,348,o),
(483,300,o),
(483,221,cs),
(483,215,ls),
(483,136,o),
(415,78,o),
(327,78,cs),
(249,78,l),
(249,0,l),
(329,0,ls),
(465,0,o),
(567,94,o),
(567,210,cs),
(567,222,ls),
(567,346,o),
(470,414,o),
(361,414,cs),
(321,414,l),
(321,426,l),
(513,570,l),
(513,700,l),
(297,700,ls),
(178,700,o),
(96,628,o),
(96,496,c),
(36,496,l),
(36,418,l),
(96,418,l),
(96,0,l),
(180,0,l),
(180,496,ls),
(180,582,o),
(230,622,o),
(303,622,cs),
(441,622,l),
(441,610,l),
(249,466,l),
(249,348,l)
);
}
);
width = 612;
}
);
unicode = 7838;
},
{
glyphname = T;
lastChange = "2024-08-29 00:28:47 +0000";
layers = (
{
anchors = (
{
name = bottom;
pos = (306,0);
},
{
name = center;
pos = (306,350);
},
{
name = top;
pos = (306,700);
}
);
background = {
shapes = (
{
closed = 1;
nodes = (
(60,622,l),
(264,622,l),
(264,0,l),
(348,0,l),
(348,622,l),
(552,622,l),
(552,700,l),
(60,700,l)
);
}
);
};
layerId = "F786B9CF-2625-4E74-A523-7F1B392BEC63";
shapes = (
{
closed = 1;
nodes = (
(348,0,l),
(348,622,l),
(552,622,l),
(552,700,l),
(60,700,l),
(60,622,l),
(264,622,l),
(264,0,l)
);
}
);
width = 612;
}
);
unicode = 84;
},
{
glyphname = Tbar;
lastChange = "2024-08-29 00:25:29 +0000";
layers = (
{
associatedMasterId = "F786B9CF-2625-4E74-A523-7F1B392BEC63";
layerId = "60B433FB-7962-4D91-9D7B-25075E58E57A";
name = img;
width = 612;
},
{
background = {
shapes = (
{
closed = 1;
nodes = (
(60,622,l),
(264,622,l),
(264,428,l),
(108,428,l),
(108,350,l),
(264,350,l),
(264,0,l),
(348,0,l),
(348,350,l),
(504,350,l),
(504,428,l),
(348,428,l),
(348,622,l),
(552,622,l),
(552,700,l),
(60,700,l)
);
}
);
};
guides = (
{
pos = (0,350);
}
);
layerId = "F786B9CF-2625-4E74-A523-7F1B392BEC63";
shapes = (
{
closed = 1;
nodes = (
(60,622,l),
(264,622,l),
(264,428,l),
(108,428,l),
(108,350,l),
(264,350,l),
(264,0,l),
(348,0,l),
(348,350,l),
(504,350,l),
(504,428,l),
(348,428,l),
(348,622,l),
(552,622,l),
(552,700,l),
(60,700,l)
);
}
);
width = 612;
}
);
unicode = 358;
},
{
color = 4;
glyphname = Tcaron;
lastChange = "2024-08-29 02:16:24 +0000";
layers = (
{
associatedMasterId = "F786B9CF-2625-4E74-A523-7F1B392BEC63";
layerId = "60B433FB-7962-4D91-9D7B-25075E58E57A";
name = img;
width = 612;
},
{
background = {
shapes = (
{
closed = 1;
nodes = (
(60,622,l),
(264,622,l),
(264,0,l),
(348,0,l),
(348,622,l),
(552,622,l),
(552,700,l),
(60,700,l)
);
},
{
closed = 1;
nodes = (
(364,892,l),
(312,804,l),
(300,804,l),
(248,892,l),
(164,892,l),
(244,774,l),
(368,774,l),
(448,892,l)
);
}
);
};
guides = (
{
pos = (0,774);
}
);
layerId = "F786B9CF-2625-4E74-A523-7F1B392BEC63";
shapes = (
{
ref = T;
},
{
pos = (0,204);
ref = caroncomb;
}
);
width = 612;
}
);
unicode = 356;
},
{
color = 3;
glyphname = Tcedilla;
lastChange = "2024-08-29 02:32:01 +0000";
layers = (
{
associatedMasterId = "F786B9CF-2625-4E74-A523-7F1B392BEC63";
layerId = "60B433FB-7962-4D91-9D7B-25075E58E57A";
name = img;
width = 612;
},
{
background = {
shapes = (
{
closed = 1;
nodes = (
(282,0,l),
(262,-92,l),
(262,-98,l),
(338,-98,l),
(342,-90,o),
(351,-84,o),
(363,-84,cs),
(382,-84,o),
(398,-98,o),
(398,-122,cs),
(398,-151,o),
(378,-164,o),
(358,-164,cs),
(329,-164,o),
(314,-144,o),
(310,-124,c),
(262,-142,l),
(272,-182,o),
(302,-212,o),
(359,-212,cs),
(411,-212,o),
(452,-176,o),
(452,-121,cs),
(452,-75,o),
(422,-36,o),
(376,-36,cs),
(348,-36,o),
(330,-48,o),
(322,-68,c),
(316,-68,l),
(331,0,l),
(348,0,l),
(348,622,l),
(552,622,l),
(552,700,l),
(60,700,l),
(60,622,l),
(264,622,l),
(264,0,l)
);
}
);
};
layerId = "F786B9CF-2625-4E74-A523-7F1B392BEC63";
shapes = (
{
closed = 1;
nodes = (
(411,-212,o),
(452,-176,o),
(452,-121,cs),
(452,-75,o),
(422,-36,o),
(376,-36,cs),
(348,-36,o),
(330,-48,o),
(322,-68,c),
(316,-68,l),
(331,0,l),
(348,0,l),
(348,622,l),
(552,622,l),
(552,700,l),
(60,700,l),
(60,622,l),
(264,622,l),
(264,0,l),
(282,0,l),
(262,-92,l),
(262,-98,l),
(338,-98,l),
(342,-90,o),
(351,-84,o),
(363,-84,cs),
(382,-84,o),
(398,-98,o),
(398,-122,cs),
(398,-151,o),
(378,-164,o),
(358,-164,cs),
(329,-164,o),
(314,-144,o),
(310,-124,c),
(262,-142,l),
(272,-182,o),
(302,-212,o),
(359,-212,cs)
);
}
);
width = 612;
}
);
unicode = 354;
},
{
color = 4;
glyphname = Tcommaaccent;
lastChange = "2024-08-29 02:51:55 +0000";
layers = (
{
background = {
shapes = (
{
closed = 1;
nodes = (
(60,622,l),
(264,622,l),
(264,0,l),
(348,0,l),
(348,622,l),
(552,622,l),
(552,700,l),
(60,700,l)
);
},
{
closed = 1;
nodes = (
(236,-152,o),
(268,-184,o),
(305,-184,cs),
(311,-184,o),
(317,-183,o),
(322,-181,c),
(322,-206,ls),
(322,-225,o),
(314,-236,o),
(295,-236,cs),
(248,-236,l),
(248,-290,l),
(299,-290,ls),
(344,-290,o),
(376,-257,o),
(376,-212,cs),
(376,-114,ls),
(376,-76,o),
(344,-44,o),
(306,-44,cs),
(268,-44,o),
(236,-76,o),
(236,-114,cs)
);
}
);
};
guides = (
{
angle = 90;
pos = (306,0);
}
);
layerId = "F786B9CF-2625-4E74-A523-7F1B392BEC63";
shapes = (
{
ref = T;
},
{
pos = (186,0);
ref = commaaccentcomb;
}
);
width = 612;
}
);
unicode = 538;
},
{
color = 4;
glyphname = Tdotbelow;
lastChange = "2024-08-29 02:44:02 +0000";
layers = (
{
background = {
shapes = (
{
closed = 1;
nodes = (
(60,622,l),
(264,622,l),
(264,0,l),
(348,0,l),
(348,622,l),
(552,622,l),
(552,700,l),
(60,700,l)
);
},
{
closed = 1;
nodes = (
(236,-172,o),
(268,-204,o),
(306,-204,cs),
(344,-204,o),
(376,-172,o),
(376,-134,cs),
(376,-96,o),
(344,-64,o),
(306,-64,cs),
(268,-64,o),
(236,-96,o),
(236,-134,cs)
);
}
);
};
guides = (
{
pos = (0,-64);
},
{
angle = 90;
pos = (306,0);
}
);
layerId = "F786B9CF-2625-4E74-A523-7F1B392BEC63";
shapes = (
{
ref = T;
},
{
ref = dotbelowcomb;
}
);
width = 612;
}
);
unicode = 7788;
},
{
color = 4;
glyphname = Tmacronbelow;
lastChange = "2024-08-29 02:47:14 +0000";
layers = (
{
background = {
shapes = (
{
closed = 1;
nodes = (
(60,622,l),
(264,622,l),
(264,0,l),
(348,0,l),
(348,622,l),
(552,622,l),
(552,700,l),
(60,700,l)
);
},
{
closed = 1;
nodes = (
(447,-130,l),
(447,-64,l),
(165,-64,l),
(165,-130,l)
);
}
);
};
guides = (
{
pos = (0,-64);
}
);
layerId = "F786B9CF-2625-4E74-A523-7F1B392BEC63";
shapes = (
{
ref = T;
},
{
ref = macronbelowcomb;
}
);
width = 612;
}
);
unicode = 7790;
},
{
glyphname = U;
lastChange = "2024-08-29 00:28:55 +0000";
layers = (
{
anchors = (
{
name = bottom;
pos = (306,0);
},
{
name = ogonek;
pos = (551,10);
},
{
name = top;
pos = (306,700);
},
{
name = topright;
pos = (592,700);
}
);
background = {
shapes = (
{
closed = 1;
nodes = (
(66,700,l),
(66,236,ls),
(66,74,o),
(158,-14,o),
(306,-14,cs),
(454,-14,o),
(546,74,o),
(546,236,cs),
(546,700,l),
(462,700,l),
(462,236,ls),
(462,124,o),
(408,64,o),
(306,64,cs),
(204,64,o),
(150,124,o),
(150,236,cs),
(150,700,l)
);
}
);
};
layerId = "F786B9CF-2625-4E74-A523-7F1B392BEC63";
shapes = (
{
closed = 1;
nodes = (
(454,-14,o),
(546,74,o),
(546,236,cs),
(546,700,l),
(462,700,l),
(462,236,ls),
(462,124,o),
(408,64,o),
(306,64,cs),
(204,64,o),
(150,124,o),
(150,236,cs),
(150,700,l),
(66,700,l),
(66,236,ls),
(66,74,o),
(158,-14,o),
(306,-14,cs)
);
}
);
width = 612;
}
);
unicode = 85;
},
{
color = 4;
glyphname = Uacute;
lastChange = "2024-08-29 02:02:39 +0000";
layers = (
{
background = {
shapes = (
{
closed = 1;
nodes = (
(66,700,l),
(66,236,ls),
(66,74,o),
(158,-14,o),
(306,-14,cs),
(454,-14,o),
(546,74,o),
(546,236,cs),
(546,700,l),
(462,700,l),
(462,236,ls),
(462,124,o),
(408,64,o),
(306,64,cs),
(204,64,o),
(150,124,o),
(150,236,cs),
(150,700,l)
);
},
{
closed = 1;
nodes = (
(341,892,l),
(275,774,l),
(347,774,l),
(431,892,l)
);
}
);
};
layerId = "F786B9CF-2625-4E74-A523-7F1B392BEC63";
shapes = (
{
ref = U;
},
{
pos = (227,204);
ref = acutecomb;
}
);
width = 612;
}
);
unicode = 218;
},
{
color = 4;
glyphname = Ubreve;
lastChange = "2024-08-29 01:45:04 +0000";
layers = (
{
associatedMasterId = "F786B9CF-2625-4E74-A523-7F1B392BEC63";
layerId = "60B433FB-7962-4D91-9D7B-25075E58E57A";
name = img;
width = 612;
},
{
background = {
shapes = (
{
closed = 1;
nodes = (
(66,700,l),
(66,236,ls),
(66,74,o),
(158,-14,o),
(306,-14,cs),
(454,-14,o),
(546,74,o),
(546,236,cs),
(546,700,l),
(462,700,l),
(462,236,ls),
(462,124,o),
(408,64,o),
(306,64,cs),
(204,64,o),
(150,124,o),
(150,236,cs),
(150,700,l)
);
},
{
closed = 1;
nodes = (
(345,892,l),
(345,880,l),
(345,859,o),
(331,841,o),
(306,841,cs),
(281,841,o),
(267,859,o),
(267,880,c),
(267,892,l),
(198,892,l),
(198,882,l),
(198,818,o),
(240,774,o),
(306,774,cs),
(372,774,o),
(414,818,o),
(414,882,c),
(414,892,l)
);
}
);
};
guides = (
{
pos = (0,774);
}
);
layerId = "F786B9CF-2625-4E74-A523-7F1B392BEC63";
shapes = (
{
ref = U;
},
{
pos = (148,204);
ref = brevecomb;
}
);
width = 612;
}
);
unicode = 364;
},
{
color = 4;
glyphname = Ucaron;
lastChange = "2024-08-29 02:16:24 +0000";
layers = (
{
background = {
shapes = (
{
closed = 1;
nodes = (
(66,700,l),
(66,236,ls),
(66,74,o),
(158,-14,o),
(306,-14,cs),
(454,-14,o),
(546,74,o),
(546,236,cs),
(546,700,l),
(462,700,l),
(462,236,ls),
(462,124,o),
(408,64,o),
(306,64,cs),
(204,64,o),
(150,124,o),
(150,236,cs),
(150,700,l)
);
},
{
closed = 1;
nodes = (
(364,892,l),
(312,804,l),
(300,804,l),
(248,892,l),
(164,892,l),
(244,774,l),
(368,774,l),
(448,892,l)
);
}
);
};
layerId = "F786B9CF-2625-4E74-A523-7F1B392BEC63";
shapes = (
{
ref = U;
},
{
pos = (0,204);
ref = caroncomb;
}
);
width = 612;
}
);
unicode = 467;
},
{
color = 4;
glyphname = Ucircumflex;
lastChange = "2024-08-29 02:31:04 +0000";
layers = (
{
background = {
shapes = (
{
closed = 1;
nodes = (
(66,700,l),
(66,236,ls),
(66,74,o),
(158,-14,o),
(306,-14,cs),
(454,-14,o),
(546,74,o),
(546,236,cs),
(546,700,l),
(462,700,l),
(462,236,ls),
(462,124,o),
(408,64,o),
(306,64,cs),
(204,64,o),
(150,124,o),
(150,236,cs),
(150,700,l)
);
},
{
closed = 1;
nodes = (
(448,774,l),
(368,892,l),
(244,892,l),
(164,774,l),
(248,774,l),
(300,862,l),
(312,862,l),
(364,774,l)
);
}
);
};
layerId = "F786B9CF-2625-4E74-A523-7F1B392BEC63";
shapes = (
{
ref = U;
},
{
pos = (0,204);
ref = circumflexcomb;
}
);
width = 612;
}
);
unicode = 219;
},
{
color = 4;
glyphname = Udieresis;
lastChange = "2024-08-29 02:59:17 +0000";
layers = (
{
background = {
shapes = (
{
closed = 1;
nodes = (
(66,700,l),
(66,236,ls),
(66,74,o),
(158,-14,o),
(306,-14,cs),
(454,-14,o),
(546,74,o),
(546,236,cs),
(546,700,l),
(462,700,l),
(462,236,ls),
(462,124,o),
(408,64,o),
(306,64,cs),
(204,64,o),
(150,124,o),
(150,236,cs),
(150,700,l)
);
},
{
closed = 1;
nodes = (
(136,810,o),
(168,778,o),
(206,778,cs),
(244,778,o),
(276,810,o),
(276,848,cs),
(276,886,o),
(244,918,o),
(206,918,cs),
(168,918,o),
(136,886,o),
(136,848,cs)
);
},
{
closed = 1;
nodes = (
(336,810,o),
(368,778,o),
(406,778,cs),
(444,778,o),
(476,810,o),
(476,848,cs),
(476,886,o),
(444,918,o),
(406,918,cs),
(368,918,o),
(336,886,o),
(336,848,cs)
);
}
);
};
guides = (
{
pos = (0,778);
}
);
layerId = "F786B9CF-2625-4E74-A523-7F1B392BEC63";
shapes = (
{
ref = U;
},
{
pos = (86,0);
ref = dieresiscomb.case;
}
);
width = 612;
}
);
unicode = 220;
},
{
color = 4;
glyphname = Udieresisacute;
lastChange = "2024-08-29 03:13:53 +0000";
layers = (
{
background = {
shapes = (
{
closed = 1;
nodes = (
(66,700,l),
(66,236,ls),
(66,74,o),
(158,-14,o),
(306,-14,cs),
(454,-14,o),
(546,74,o),
(546,236,cs),
(546,700,l),
(462,700,l),
(462,236,ls),
(462,124,o),
(408,64,o),
(306,64,cs),
(204,64,o),
(150,124,o),
(150,236,cs),
(150,700,l)
);
},
{
closed = 1;
nodes = (
(136,762,o),
(168,730,o),
(206,730,cs),
(244,730,o),
(276,762,o),
(276,800,cs),
(276,838,o),
(244,870,o),
(206,870,cs),
(168,870,o),
(136,838,o),
(136,800,cs)
);
},
{
closed = 1;
nodes = (
(336,762,o),
(368,730,o),
(406,730,cs),
(444,730,o),
(476,762,o),
(476,800,cs),
(476,838,o),
(444,870,o),
(406,870,cs),
(368,870,o),
(336,838,o),
(336,800,cs)
);
},
{
closed = 1;
nodes = (
(336,1018,l),
(270,900,l),
(342,900,l),
(426,1018,l)
);
}
);
};
guides = (
{
pos = (0,870);
},
{
angle = 90;
pos = (276,0);
},
{
angle = 90;
pos = (336,0);
}
);
layerId = "F786B9CF-2625-4E74-A523-7F1B392BEC63";
shapes = (
{
ref = U;
},
{
alignment = -1;
pos = (86,-50);
ref = dieresiscomb.case;
},
{
alignment = -1;
anchor = topabove;
pos = (221,331);
ref = acutecomb;
}
);
width = 612;
}
);
unicode = 471;
},
{
color = 4;
glyphname = Udieresiscaron;
lastChange = "2024-08-29 03:15:36 +0000";
layers = (
{
background = {
shapes = (
{
closed = 1;
nodes = (
(66,700,l),
(66,236,ls),
(66,74,o),
(158,-14,o),
(306,-14,cs),
(454,-14,o),
(546,74,o),
(546,236,cs),
(546,700,l),
(462,700,l),
(462,236,ls),
(462,124,o),
(408,64,o),
(306,64,cs),
(204,64,o),
(150,124,o),
(150,236,cs),
(150,700,l)
);
},
{
closed = 1;
nodes = (
(136,762,o),
(168,730,o),
(206,730,cs),
(244,730,o),
(276,762,o),
(276,800,cs),
(276,838,o),
(244,870,o),
(206,870,cs),
(168,870,o),
(136,838,o),
(136,800,cs)
);
},
{
closed = 1;
nodes = (
(336,762,o),
(368,730,o),
(406,730,cs),
(444,730,o),
(476,762,o),
(476,800,cs),
(476,838,o),
(444,870,o),
(406,870,cs),
(368,870,o),
(336,838,o),
(336,800,cs)
);
},
{
closed = 1;
nodes = (
(364,1018,l),
(312,930,l),
(300,930,l),
(248,1018,l),
(164,1018,l),
(244,900,l),
(368,900,l),
(448,1018,l)
);
}
);
};
layerId = "F786B9CF-2625-4E74-A523-7F1B392BEC63";
shapes = (
{
ref = U;
},
{
alignment = -1;
pos = (86,-44);
ref = dieresiscomb.case;
},
{
anchor = topabove;
pos = (4,332);
ref = caroncomb;
}
);
width = 612;
}
);
unicode = 473;
},
{
color = 4;
glyphname = Udieresisgrave;
lastChange = "2024-08-29 03:14:53 +0000";
layers = (
{
background = {
shapes = (
{
closed = 1;
nodes = (
(66,700,l),
(66,236,ls),
(66,74,o),
(158,-14,o),
(306,-14,cs),
(454,-14,o),
(546,74,o),
(546,236,cs),
(546,700,l),
(462,700,l),
(462,236,ls),
(462,124,o),
(408,64,o),
(306,64,cs),
(204,64,o),
(150,124,o),
(150,236,cs),
(150,700,l)
);
},
{
closed = 1;
nodes = (
(186,1018,l),
(270,900,l),
(342,900,l),
(276,1018,l)
);
},
{
closed = 1;
nodes = (
(136,762,o),
(168,730,o),
(206,730,cs),
(244,730,o),
(276,762,o),
(276,800,cs),
(276,838,o),
(244,870,o),
(206,870,cs),
(168,870,o),
(136,838,o),
(136,800,cs)
);
},
{
closed = 1;
nodes = (
(336,762,o),
(368,730,o),
(406,730,cs),
(444,730,o),
(476,762,o),
(476,800,cs),
(476,838,o),
(444,870,o),
(406,870,cs),
(368,870,o),
(336,838,o),
(336,800,cs)
);
}
);
};
guides = (
{
angle = 90;
pos = (276,0);
},
{
angle = 90;
pos = (336,0);
}
);
layerId = "F786B9CF-2625-4E74-A523-7F1B392BEC63";
shapes = (
{
ref = U;
},
{
alignment = -1;
pos = (86,-50);
ref = dieresiscomb.case;
},
{
pos = (138,281);
ref = gravecomb;
}
);
width = 612;
}
);
unicode = 475;
},
{
color = 4;
glyphname = Udieresismacron;
lastChange = "2024-08-29 03:15:36 +0000";
layers = (
{
background = {
shapes = (
{
closed = 1;
nodes = (
(476,966,l),
(136,966,l),
(136,900,l),
(476,900,l)
);
},
{
closed = 1;
nodes = (
(66,700,l),
(66,236,ls),
(66,74,o),
(158,-14,o),
(306,-14,cs),
(454,-14,o),
(546,74,o),
(546,236,cs),
(546,700,l),
(462,700,l),
(462,236,ls),
(462,124,o),
(408,64,o),
(306,64,cs),
(204,64,o),
(150,124,o),
(150,236,cs),
(150,700,l)
);
},
{
closed = 1;
nodes = (
(136,762,o),
(168,730,o),
(206,730,cs),
(244,730,o),
(276,762,o),
(276,800,cs),
(276,838,o),
(244,870,o),
(206,870,cs),
(168,870,o),
(136,838,o),
(136,800,cs)
);
},
{
closed = 1;
nodes = (
(336,762,o),
(368,730,o),
(406,730,cs),
(444,730,o),
(476,762,o),
(476,800,cs),
(476,838,o),
(444,870,o),
(406,870,cs),
(368,870,o),
(336,838,o),
(336,800,cs)
);
}
);
};
guides = (
{
angle = 90;
pos = (306,0);
},
{
angle = 90;
pos = (136,0);
},
{
angle = 90;
pos = (476,0);
}
);
layerId = "F786B9CF-2625-4E74-A523-7F1B392BEC63";
shapes = (
{
ref = U;
},
{
alignment = -1;
pos = (86,-50);
ref = dieresiscomb.case;
},
{
anchor = topabove;
pos = (118,333);
ref = macroncomb;
}
);
width = 612;
}
);
unicode = 469;
},
{
color = 4;
glyphname = Udotbelow;
lastChange = "2024-08-29 02:44:02 +0000";
layers = (
{
background = {
shapes = (
{
closed = 1;
nodes = (
(66,700,l),
(66,236,ls),
(66,74,o),
(158,-14,o),
(306,-14,cs),
(454,-14,o),
(546,74,o),
(546,236,cs),
(546,700,l),
(462,700,l),
(462,236,ls),
(462,124,o),
(408,64,o),
(306,64,cs),
(204,64,o),
(150,124,o),
(150,236,cs),
(150,700,l)
);
},
{
closed = 1;
nodes = (
(236,-172,o),
(268,-204,o),
(306,-204,cs),
(344,-204,o),
(376,-172,o),
(376,-134,cs),
(376,-96,o),
(344,-64,o),
(306,-64,cs),
(268,-64,o),
(236,-96,o),
(236,-134,cs)
);
}
);
};
layerId = "F786B9CF-2625-4E74-A523-7F1B392BEC63";
shapes = (
{
ref = U;
},
{
ref = dotbelowcomb;
}
);
width = 612;
}
);
unicode = 7908;
},
{
color = 4;
glyphname = Ugrave;
lastChange = "2024-08-29 03:04:57 +0000";
layers = (
{
background = {
shapes = (
{
closed = 1;
nodes = (
(66,700,l),
(66,236,ls),
(66,74,o),
(158,-14,o),
(306,-14,cs),
(454,-14,o),
(546,74,o),
(546,236,cs),
(546,700,l),
(462,700,l),
(462,236,ls),
(462,124,o),
(408,64,o),
(306,64,cs),
(204,64,o),
(150,124,o),
(150,236,cs),
(150,700,l)
);
},
{
closed = 1;
nodes = (
(196,892,l),
(280,774,l),
(352,774,l),
(286,892,l)
);
}
);
};
layerId = "F786B9CF-2625-4E74-A523-7F1B392BEC63";
shapes = (
{
ref = U;
},
{
pos = (138,204);
ref = gravecomb;
}
);
width = 612;
}
);
unicode = 217;
},
{
color = 4;
glyphname = Uhookabove;
lastChange = "2024-08-29 02:34:06 +0000";
layers = (
{
background = {
shapes = (
{
closed = 1;
nodes = (
(266,750,l),
(246,842,l),
(246,848,l),
(322,848,l),
(326,840,o),
(335,834,o),
(347,834,cs),
(366,834,o),
(382,848,o),
(382,872,cs),
(382,901,o),
(362,914,o),
(342,914,cs),
(313,914,o),
(298,894,o),
(294,874,c),
(246,892,l),
(256,932,o),
(286,962,o),
(343,962,cs),
(395,962,o),
(436,926,o),
(436,871,cs),
(436,825,o),
(406,786,o),
(360,786,cs),
(332,786,o),
(314,798,o),
(306,818,c),
(300,818,l),
(315,750,l)
);
},
{
closed = 1;
nodes = (
(66,700,l),
(66,236,ls),
(66,74,o),
(158,-14,o),
(306,-14,cs),
(454,-14,o),
(546,74,o),
(546,236,cs),
(546,700,l),
(462,700,l),
(462,236,ls),
(462,124,o),
(408,64,o),
(306,64,cs),
(204,64,o),
(150,124,o),
(150,236,cs),
(150,700,l)
);
}
);
};
guides = (
{
angle = 90;
pos = (306,0);
}
);
layerId = "F786B9CF-2625-4E74-A523-7F1B392BEC63";
shapes = (
{
ref = U;
},
{
pos = (41,204);
ref = hookabovecomb;
}
);
width = 612;
}
);
unicode = 7910;
},
{
color = 3;
glyphname = Uhorn;
lastChange = "2024-08-29 03:01:07 +0000";
layers = (
{
anchors = (
{
name = bottom;
pos = (238,0);
},
{
name = top;
pos = (233,700);
}
);
background = {
shapes = (
{
closed = 1;
nodes = (
(40,700,l),
(40,202,ls),
(40,56,o),
(112,-14,o),
(238,-14,cs),
(364,-14,o),
(436,56,o),
(436,202,cs),
(436,454,l),
(535,454,ls),
(580,454,o),
(612,487,o),
(612,532,cs),
(612,630,ls),
(612,668,o),
(580,700,o),
(542,700,cs),
(504,700,o),
(472,668,o),
(472,630,cs),
(472,592,o),
(504,560,o),
(541,560,cs),
(547,560,o),
(553,561,o),
(558,563,c),
(558,538,ls),
(558,519,o),
(550,508,o),
(531,508,cs),
(436,508,l),
(436,700,l),
(352,700,l),
(352,206,ls),
(352,104,o),
(312,62,o),
(238,62,cs),
(164,62,o),
(124,104,o),
(124,206,cs),
(124,700,l)
);
}
);
};
layerId = "F786B9CF-2625-4E74-A523-7F1B392BEC63";
shapes = (
{
closed = 1;
nodes = (
(364,-14,o),
(436,56,o),
(436,202,cs),
(436,454,l),
(535,454,ls),
(580,454,o),
(612,487,o),
(612,532,cs),
(612,630,ls),
(612,668,o),
(580,700,o),
(542,700,cs),
(504,700,o),
(472,668,o),
(472,630,cs),
(472,592,o),
(504,560,o),
(541,560,cs),
(547,560,o),
(553,561,o),
(558,563,c),
(558,538,ls),
(558,519,o),
(550,508,o),
(531,508,cs),
(436,508,l),
(436,700,l),
(352,700,l),
(352,206,ls),
(352,104,o),
(312,62,o),
(238,62,cs),
(164,62,o),
(124,104,o),
(124,206,cs),
(124,700,l),
(40,700,l),
(40,202,ls),
(40,56,o),
(112,-14,o),
(238,-14,cs)
);
}
);
width = 612;
}
);
unicode = 431;
},
{
color = 4;
glyphname = Uhornacute;
lastChange = "2024-08-29 02:02:39 +0000";
layers = (
{
background = {
shapes = (
{
closed = 1;
nodes = (
(268,892,l),
(202,774,l),
(274,774,l),
(358,892,l)
);
},
{
closed = 1;
nodes = (
(40,700,l),
(40,202,ls),
(40,56,o),
(112,-14,o),
(238,-14,cs),
(364,-14,o),
(436,56,o),
(436,202,cs),
(436,454,l),
(535,454,ls),
(580,454,o),
(612,487,o),
(612,532,cs),
(612,630,ls),
(612,668,o),
(580,700,o),
(542,700,cs),
(504,700,o),
(472,668,o),
(472,630,cs),
(472,592,o),
(504,560,o),
(541,560,cs),
(547,560,o),
(553,561,o),
(558,563,c),
(558,538,ls),
(558,519,o),
(550,508,o),
(531,508,cs),
(436,508,l),
(436,700,l),
(352,700,l),
(352,206,ls),
(352,104,o),
(312,62,o),
(238,62,cs),
(164,62,o),
(124,104,o),
(124,206,cs),
(124,700,l)
);
}
);
};
guides = (
{
angle = 90;
pos = (238,0);
}
);
layerId = "F786B9CF-2625-4E74-A523-7F1B392BEC63";
shapes = (
{
ref = Uhorn;
},
{
pos = (154,204);
ref = acutecomb;
}
);
width = 612;
}
);
unicode = 7912;
},
{
color = 4;
glyphname = Uhorndotbelow;
lastChange = "2024-08-29 02:44:02 +0000";
layers = (
{
background = {
shapes = (
{
closed = 1;
nodes = (
(40,700,l),
(40,202,ls),
(40,56,o),
(112,-14,o),
(238,-14,cs),
(364,-14,o),
(436,56,o),
(436,202,cs),
(436,454,l),
(535,454,ls),
(580,454,o),
(612,487,o),
(612,532,cs),
(612,630,ls),
(612,668,o),
(580,700,o),
(542,700,cs),
(504,700,o),
(472,668,o),
(472,630,cs),
(472,592,o),
(504,560,o),
(541,560,cs),
(547,560,o),
(553,561,o),
(558,563,c),
(558,538,ls),
(558,519,o),
(550,508,o),
(531,508,cs),
(436,508,l),
(436,700,l),
(352,700,l),
(352,206,ls),
(352,104,o),
(312,62,o),
(238,62,cs),
(164,62,o),
(124,104,o),
(124,206,cs),
(124,700,l)
);
},
{
closed = 1;
nodes = (
(168,-172,o),
(200,-204,o),
(238,-204,cs),
(276,-204,o),
(308,-172,o),
(308,-134,cs),
(308,-96,o),
(276,-64,o),
(238,-64,cs),
(200,-64,o),
(168,-96,o),
(168,-134,cs)
);
}
);
};
layerId = "F786B9CF-2625-4E74-A523-7F1B392BEC63";
shapes = (
{
ref = Uhorn;
},
{
pos = (-68,0);
ref = dotbelowcomb;
}
);
width = 612;
}
);
unicode = 7920;
},
{
color = 4;
glyphname = Uhorngrave;
lastChange = "2024-08-29 03:02:17 +0000";
layers = (
{
background = {
shapes = (
{
closed = 1;
nodes = (
(118,892,l),
(202,774,l),
(274,774,l),
(208,892,l)
);
},
{
closed = 1;
nodes = (
(40,700,l),
(40,202,ls),
(40,56,o),
(112,-14,o),
(238,-14,cs),
(364,-14,o),
(436,56,o),
(436,202,cs),
(436,454,l),
(535,454,ls),
(580,454,o),
(612,487,o),
(612,532,cs),
(612,630,ls),
(612,668,o),
(580,700,o),
(542,700,cs),
(504,700,o),
(472,668,o),
(472,630,cs),
(472,592,o),
(504,560,o),
(541,560,cs),
(547,560,o),
(553,561,o),
(558,563,c),
(558,538,ls),
(558,519,o),
(550,508,o),
(531,508,cs),
(436,508,l),
(436,700,l),
(352,700,l),
(352,206,ls),
(352,104,o),
(312,62,o),
(238,62,cs),
(164,62,o),
(124,104,o),
(124,206,cs),
(124,700,l)
);
}
);
};
guides = (
{
angle = 90;
pos = (252,0);
},
{
angle = 90;
pos = (238,0);
}
);
layerId = "F786B9CF-2625-4E74-A523-7F1B392BEC63";
shapes = (
{
ref = Uhorn;
},
{
pos = (65,204);
ref = gravecomb;
}
);
width = 612;
}
);
unicode = 7914;
},
{
color = 4;
glyphname = Uhornhookabove;
lastChange = "2024-08-29 02:34:06 +0000";
layers = (
{
background = {
shapes = (
{
closed = 1;
nodes = (
(210,750,l),
(190,842,l),
(190,848,l),
(266,848,l),
(270,840,o),
(279,834,o),
(291,834,cs),
(310,834,o),
(326,848,o),
(326,872,cs),
(326,901,o),
(306,914,o),
(286,914,cs),
(257,914,o),
(242,894,o),
(238,874,c),
(190,892,l),
(200,932,o),
(230,962,o),
(287,962,cs),
(339,962,o),
(380,926,o),
(380,871,cs),
(380,825,o),
(350,786,o),
(304,786,cs),
(276,786,o),
(258,798,o),
(250,818,c),
(244,818,l),
(259,750,l)
);
},
{
closed = 1;
nodes = (
(40,700,l),
(40,202,ls),
(40,56,o),
(112,-14,o),
(238,-14,cs),
(364,-14,o),
(436,56,o),
(436,202,cs),
(436,454,l),
(535,454,ls),
(580,454,o),
(612,487,o),
(612,532,cs),
(612,630,ls),
(612,668,o),
(580,700,o),
(542,700,cs),
(504,700,o),
(472,668,o),
(472,630,cs),
(472,592,o),
(504,560,o),
(541,560,cs),
(547,560,o),
(553,561,o),
(558,563,c),
(558,538,ls),
(558,519,o),
(550,508,o),
(531,508,cs),
(436,508,l),
(436,700,l),
(352,700,l),
(352,206,ls),
(352,104,o),
(312,62,o),
(238,62,cs),
(164,62,o),
(124,104,o),
(124,206,cs),
(124,700,l)
);
}
);
};
guides = (
{
angle = 90;
pos = (238,0);
}
);
layerId = "F786B9CF-2625-4E74-A523-7F1B392BEC63";
shapes = (
{
ref = Uhorn;
},
{
pos = (-32,204);
ref = hookabovecomb;
}
);
width = 612;
}
);
unicode = 7916;
},
{
color = 4;
glyphname = Uhorntilde;
lastChange = "2024-08-29 03:02:17 +0000";
layers = (
{
background = {
shapes = (
{
closed = 1;
nodes = (
(245,889,o),
(227,907,o),
(188,907,cs),
(152,907,o),
(128,888,o),
(109,865,cs),
(68,816,l),
(117,774,l),
(163,827,ls),
(171,836,o),
(177,839,o),
(185,839,cs),
(196,839,o),
(200,833,o),
(209,817,cs),
(231,776,o),
(249,758,o),
(290,758,cs),
(325,758,o),
(349,777,o),
(368,800,cs),
(409,849,l),
(360,891,l),
(312,836,ls),
(306,829,o),
(300,826,o),
(293,826,cs),
(281,826,o),
(276,833,o),
(269,846,cs)
);
},
{
closed = 1;
nodes = (
(40,700,l),
(40,202,ls),
(40,56,o),
(112,-14,o),
(238,-14,cs),
(364,-14,o),
(436,56,o),
(436,202,cs),
(436,454,l),
(535,454,ls),
(580,454,o),
(612,487,o),
(612,532,cs),
(612,630,ls),
(612,668,o),
(580,700,o),
(542,700,cs),
(504,700,o),
(472,668,o),
(472,630,cs),
(472,592,o),
(504,560,o),
(541,560,cs),
(547,560,o),
(553,561,o),
(558,563,c),
(558,538,ls),
(558,519,o),
(550,508,o),
(531,508,cs),
(436,508,l),
(436,700,l),
(352,700,l),
(352,206,ls),
(352,104,o),
(312,62,o),
(238,62,cs),
(164,62,o),
(124,104,o),
(124,206,cs),
(124,700,l)
);
}
);
};
guides = (
{
pos = (0,774);
},
{
angle = 90;
pos = (238,0);
}
);
layerId = "F786B9CF-2625-4E74-A523-7F1B392BEC63";
shapes = (
{
ref = Uhorn;
},
{
pos = (12,204);
ref = tildecomb;
}
);
width = 612;
}
);
unicode = 7918;
},
{
color = 4;
glyphname = Uhungarumlaut;
lastChange = "2024-08-29 03:06:19 +0000";
layers = (
{
associatedMasterId = "F786B9CF-2625-4E74-A523-7F1B392BEC63";
layerId = "60B433FB-7962-4D91-9D7B-25075E58E57A";
name = img;
width = 612;
},
{
background = {
shapes = (
{
closed = 1;
nodes = (
(66,700,l),
(66,236,ls),
(66,74,o),
(158,-14,o),
(306,-14,cs),
(454,-14,o),
(546,74,o),
(546,236,cs),
(546,700,l),
(462,700,l),
(462,236,ls),
(462,124,o),
(408,64,o),
(306,64,cs),
(204,64,o),
(150,124,o),
(150,236,cs),
(150,700,l)
);
},
{
closed = 1;
nodes = (
(254,892,l),
(188,774,l),
(260,774,l),
(344,892,l)
);
},
{
closed = 1;
nodes = (
(398,892,l),
(332,774,l),
(404,774,l),
(488,892,l)
);
}
);
};
layerId = "F786B9CF-2625-4E74-A523-7F1B392BEC63";
shapes = (
{
ref = U;
},
{
pos = (142,204);
ref = hungarumlautcomb;
}
);
width = 612;
}
);
unicode = 368;
},
{
color = 4;
glyphname = Umacron;
lastChange = "2024-08-29 02:47:14 +0000";
layers = (
{
associatedMasterId = "F786B9CF-2625-4E74-A523-7F1B392BEC63";
layerId = "60B433FB-7962-4D91-9D7B-25075E58E57A";
name = img;
width = 612;
},
{
background = {
shapes = (
{
closed = 1;
nodes = (
(66,700,l),
(66,236,ls),
(66,74,o),
(158,-14,o),
(306,-14,cs),
(454,-14,o),
(546,74,o),
(546,236,cs),
(546,700,l),
(462,700,l),
(462,236,ls),
(462,124,o),
(408,64,o),
(306,64,cs),
(204,64,o),
(150,124,o),
(150,236,cs),
(150,700,l)
);
},
{
closed = 1;
nodes = (
(447,774,l),
(447,840,l),
(165,840,l),
(165,774,l)
);
}
);
};
layerId = "F786B9CF-2625-4E74-A523-7F1B392BEC63";
shapes = (
{
ref = U;
},
{
pos = (115,204);
ref = macroncomb;
}
);
width = 612;
}
);
unicode = 362;
},
{
color = 3;
glyphname = Uogonek;
lastChange = "2024-08-29 03:02:56 +0000";
layers = (
{
associatedMasterId = "F786B9CF-2625-4E74-A523-7F1B392BEC63";
layerId = "60B433FB-7962-4D91-9D7B-25075E58E57A";
name = img;
width = 612;
},
{
background = {
shapes = (
{
closed = 1;
nodes = (
(66,700,l),
(66,236,ls),
(66,87,o),
(143,1,o),
(270,-12,c),
(258,-66,ls),
(256,-76,o),
(255,-83,o),
(255,-90,cs),
(255,-139,o),
(294,-164,o),
(333,-164,cs),
(389,-164,l),
(389,-98,l),
(347,-98,ls),
(333,-98,o),
(324,-90,o),
(324,-76,cs),
(324,-75,o),
(324,-73,o),
(325,-68,cs),
(338,-12,l),
(467,0,o),
(546,86,o),
(546,236,cs),
(546,700,l),
(462,700,l),
(462,236,ls),
(462,124,o),
(408,64,o),
(306,64,cs),
(204,64,o),
(150,124,o),
(150,236,cs),
(150,700,l)
);
}
);
};
guides = (
{
angle = 90;
pos = (306,0);
}
);
layerId = "F786B9CF-2625-4E74-A523-7F1B392BEC63";
shapes = (
{
closed = 1;
nodes = (
(389,-164,l),
(389,-98,l),
(347,-98,ls),
(333,-98,o),
(324,-90,o),
(324,-76,cs),
(324,-75,o),
(324,-73,o),
(325,-68,cs),
(338,-12,l),
(467,0,o),
(546,86,o),
(546,236,cs),
(546,700,l),
(462,700,l),
(462,236,ls),
(462,124,o),
(408,64,o),
(306,64,cs),
(204,64,o),
(150,124,o),
(150,236,cs),
(150,700,l),
(66,700,l),
(66,236,ls),
(66,87,o),
(143,1,o),
(270,-12,c),
(258,-66,ls),
(256,-76,o),
(255,-83,o),
(255,-90,cs),
(255,-139,o),
(294,-164,o),
(333,-164,cs)
);
}
);
width = 612;
}
);
unicode = 370;
},
{
color = 4;
glyphname = Uring;
lastChange = "2024-08-29 03:21:57 +0000";
layers = (
{
associatedMasterId = "F786B9CF-2625-4E74-A523-7F1B392BEC63";
layerId = "60B433FB-7962-4D91-9D7B-25075E58E57A";
name = img;
width = 612;
},
{
background = {
shapes = (
{
closed = 1;
nodes = (
(66,700,l),
(66,236,ls),
(66,74,o),
(158,-14,o),
(306,-14,cs),
(454,-14,o),
(546,74,o),
(546,236,cs),
(546,700,l),
(462,700,l),
(462,236,ls),
(462,124,o),
(408,64,o),
(306,64,cs),
(204,64,o),
(150,124,o),
(150,236,cs),
(150,700,l)
);
},
{
closed = 1;
nodes = (
(204,815,o),
(249,770,o),
(306,770,cs),
(363,770,o),
(408,815,o),
(408,872,cs),
(408,929,o),
(363,974,o),
(306,974,cs),
(249,974,o),
(204,929,o),
(204,872,cs)
);
},
{
closed = 1;
nodes = (
(264,896,o),
(282,914,o),
(306,914,cs),
(330,914,o),
(348,896,o),
(348,872,cs),
(348,848,o),
(330,830,o),
(306,830,cs),
(282,830,o),
(264,848,o),
(264,872,cs)
);
}
);
};
guides = (
{
pos = (0,774);
}
);
layerId = "F786B9CF-2625-4E74-A523-7F1B392BEC63";
shapes = (
{
ref = U;
},
{
pos = (0,204);
ref = ringcomb;
}
);
width = 612;
}
);
unicode = 366;
},
{
color = 4;
glyphname = Utilde;
lastChange = "2024-08-29 03:20:44 +0000";
layers = (
{
associatedMasterId = "F786B9CF-2625-4E74-A523-7F1B392BEC63";
layerId = "60B433FB-7962-4D91-9D7B-25075E58E57A";
name = img;
width = 612;
},
{
background = {
shapes = (
{
closed = 1;
nodes = (
(66,700,l),
(66,236,ls),
(66,74,o),
(158,-14,o),
(306,-14,cs),
(454,-14,o),
(546,74,o),
(546,236,cs),
(546,700,l),
(462,700,l),
(462,236,ls),
(462,124,o),
(408,64,o),
(306,64,cs),
(204,64,o),
(150,124,o),
(150,236,cs),
(150,700,l)
);
},
{
closed = 1;
nodes = (
(349,889,o),
(331,907,o),
(292,907,cs),
(256,907,o),
(232,888,o),
(213,865,cs),
(172,816,l),
(221,774,l),
(267,827,ls),
(275,836,o),
(281,839,o),
(289,839,cs),
(300,839,o),
(304,833,o),
(313,817,cs),
(335,776,o),
(353,758,o),
(394,758,cs),
(429,758,o),
(453,777,o),
(472,800,cs),
(513,849,l),
(464,891,l),
(416,836,ls),
(410,829,o),
(404,826,o),
(397,826,cs),
(385,826,o),
(380,833,o),
(373,846,cs)
);
}
);
};
guides = (
{
pos = (0,774);
}
);
layerId = "F786B9CF-2625-4E74-A523-7F1B392BEC63";
shapes = (
{
ref = U;
},
{
pos = (85,204);
ref = tildecomb;
}
);
width = 612;
}
);
unicode = 360;
},
{
glyphname = V;
lastChange = "2024-08-29 00:28:59 +0000";
layers = (
{
anchors = (
{
name = bottom;
pos = (306,0);
},
{
name = top;
pos = (306,700);
}
);
background = {
shapes = (
{
closed = 1;
nodes = (
(225,0,l),
(387,0,l),
(585,700,l),
(495,700,l),
(312,36,l),
(300,36,l),
(117,700,l),
(27,700,l)
);
}
);
};
layerId = "F786B9CF-2625-4E74-A523-7F1B392BEC63";
shapes = (
{
closed = 1;
nodes = (
(387,0,l),
(585,700,l),
(495,700,l),
(312,36,l),
(300,36,l),
(117,700,l),
(27,700,l),
(225,0,l)
);
}
);
width = 612;
}
);
unicode = 86;
},
{
glyphname = W;
lastChange = "2024-08-29 01:57:16 +0000";
layers = (
{
anchors = (
{
name = bottom;
pos = (306,0);
},
{
name = top;
pos = (303,700);
}
);
background = {
shapes = (
{
closed = 1;
nodes = (
(601,700,l),
(525,700,l),
(458,36,l),
(446,36,l),
(383,700,l),
(229,700,l),
(166,36,l),
(154,36,l),
(87,700,l),
(11,700,l),
(82,0,l),
(235,0,l),
(300,664,l),
(312,664,l),
(377,0,l),
(530,0,l)
);
}
);
};
layerId = "F786B9CF-2625-4E74-A523-7F1B392BEC63";
shapes = (
{
closed = 1;
nodes = (
(235,0,l),
(300,664,l),
(312,664,l),
(377,0,l),
(530,0,l),
(601,700,l),
(525,700,l),
(458,36,l),
(446,36,l),
(383,700,l),
(229,700,l),
(166,36,l),
(154,36,l),
(87,700,l),
(11,700,l),
(82,0,l)
);
}
);
width = 612;
}
);
unicode = 87;
},
{
color = 4;
glyphname = Wacute;
lastChange = "2024-08-29 02:02:39 +0000";
layers = (
{
background = {
shapes = (
{
closed = 1;
nodes = (
(601,700,l),
(525,700,l),
(458,36,l),
(446,36,l),
(383,700,l),
(229,700,l),
(166,36,l),
(154,36,l),
(87,700,l),
(11,700,l),
(82,0,l),
(235,0,l),
(300,664,l),
(312,664,l),
(377,0,l),
(530,0,l)
);
},
{
closed = 1;
nodes = (
(336,892,l),
(270,774,l),
(342,774,l),
(426,892,l)
);
}
);
};
guides = (
{
pos = (0,774);
},
{
angle = 90;
pos = (306,0);
}
);
layerId = "F786B9CF-2625-4E74-A523-7F1B392BEC63";
shapes = (
{
ref = W;
},
{
pos = (224,204);
ref = acutecomb;
}
);
width = 612;
}
);
unicode = 7810;
},
{
color = 4;
glyphname = Wcircumflex;
lastChange = "2024-08-29 02:31:04 +0000";
layers = (
{
associatedMasterId = "F786B9CF-2625-4E74-A523-7F1B392BEC63";
layerId = "60B433FB-7962-4D91-9D7B-25075E58E57A";
name = img;
width = 612;
},
{
background = {
shapes = (
{
closed = 1;
nodes = (
(601,700,l),
(525,700,l),
(458,36,l),
(446,36,l),
(383,700,l),
(229,700,l),
(166,36,l),
(154,36,l),
(87,700,l),
(11,700,l),
(82,0,l),
(235,0,l),
(300,664,l),
(312,664,l),
(377,0,l),
(530,0,l)
);
},
{
closed = 1;
nodes = (
(448,774,l),
(368,892,l),
(244,892,l),
(164,774,l),
(248,774,l),
(300,862,l),
(312,862,l),
(364,774,l)
);
}
);
};
layerId = "F786B9CF-2625-4E74-A523-7F1B392BEC63";
shapes = (
{
ref = W;
},
{
pos = (-3,204);
ref = circumflexcomb;
}
);
width = 612;
}
);
unicode = 372;
},
{
color = 4;
glyphname = Wdieresis;
lastChange = "2024-08-29 02:59:17 +0000";
layers = (
{
background = {
shapes = (
{
closed = 1;
nodes = (
(601,700,l),
(525,700,l),
(458,36,l),
(446,36,l),
(383,700,l),
(229,700,l),
(166,36,l),
(154,36,l),
(87,700,l),
(11,700,l),
(82,0,l),
(235,0,l),
(300,664,l),
(312,664,l),
(377,0,l),
(530,0,l)
);
},
{
closed = 1;
nodes = (
(136,810,o),
(168,778,o),
(206,778,cs),
(244,778,o),
(276,810,o),
(276,848,cs),
(276,886,o),
(244,918,o),
(206,918,cs),
(168,918,o),
(136,886,o),
(136,848,cs)
);
},
{
closed = 1;
nodes = (
(336,810,o),
(368,778,o),
(406,778,cs),
(444,778,o),
(476,810,o),
(476,848,cs),
(476,886,o),
(444,918,o),
(406,918,cs),
(368,918,o),
(336,886,o),
(336,848,cs)
);
}
);
};
guides = (
{
pos = (0,774);
}
);
layerId = "F786B9CF-2625-4E74-A523-7F1B392BEC63";
shapes = (
{
ref = W;
},
{
pos = (83,0);
ref = dieresiscomb.case;
}
);
width = 612;
}
);
unicode = 7812;
},
{
color = 4;
glyphname = Wgrave;
lastChange = "2024-08-29 03:04:57 +0000";
layers = (
{
background = {
shapes = (
{
closed = 1;
nodes = (
(601,700,l),
(525,700,l),
(458,36,l),
(446,36,l),
(383,700,l),
(229,700,l),
(166,36,l),
(154,36,l),
(87,700,l),
(11,700,l),
(82,0,l),
(235,0,l),
(300,664,l),
(312,664,l),
(377,0,l),
(530,0,l)
);
},
{
closed = 1;
nodes = (
(186,892,l),
(270,774,l),
(342,774,l),
(276,892,l)
);
}
);
};
guides = (
{
pos = (0,774);
},
{
angle = 90;
pos = (306,0);
},
{
angle = 90;
pos = (227,0);
},
{
angle = 90;
pos = (385,0);
}
);
layerId = "F786B9CF-2625-4E74-A523-7F1B392BEC63";
shapes = (
{
ref = W;
},
{
pos = (135,204);
ref = gravecomb;
}
);
width = 612;
}
);
unicode = 7808;
},
{
glyphname = X;
lastChange = "2024-08-29 00:29:09 +0000";
layers = (
{
anchors = (
{
name = bottom;
pos = (306,0);
},
{
name = top;
pos = (306,700);
}
);
background = {
shapes = (
{
closed = 1;
nodes = (
(48,700,l),
(223,357,l),
(223,345,l),
(48,0,l),
(140,0,l),
(297,312,l),
(315,312,l),
(472,0,l),
(564,0,l),
(389,345,l),
(389,357,l),
(564,700,l),
(472,700,l),
(315,390,l),
(297,390,l),
(140,700,l)
);
}
);
};
guides = (
{
pos = (0,390);
},
{
pos = (0,312);
},
{
pos = (0,351);
}
);
layerId = "F786B9CF-2625-4E74-A523-7F1B392BEC63";
shapes = (
{
closed = 1;
nodes = (
(140,0,l),
(297,312,l),
(315,312,l),
(472,0,l),
(564,0,l),
(389,345,l),
(389,357,l),
(564,700,l),
(472,700,l),
(315,390,l),
(297,390,l),
(140,700,l),
(48,700,l),
(223,357,l),
(223,345,l),
(48,0,l)
);
}
);
width = 612;
}
);
unicode = 88;
},
{
glyphname = Y;
lastChange = "2024-08-29 01:57:22 +0000";
layers = (
{
anchors = (
{
name = bottom;
pos = (306,0);
},
{
name = top;
pos = (301,700);
},
{
name = topleft;
pos = (20,700);
}
);
background = {
shapes = (
{
closed = 1;
nodes = (
(264,0,l),
(348,0,l),
(348,246,l),
(366,246,l),
(585,700,l),
(491,700,l),
(312,318,l),
(300,318,l),
(121,700,l),
(27,700,l),
(246,246,l),
(264,246,l)
);
}
);
};
guides = (
{
pos = (0,246);
}
);
layerId = "F786B9CF-2625-4E74-A523-7F1B392BEC63";
shapes = (
{
closed = 1;
nodes = (
(348,0,l),
(348,246,l),
(366,246,l),
(585,700,l),
(491,700,l),
(312,318,l),
(300,318,l),
(121,700,l),
(27,700,l),
(246,246,l),
(264,246,l),
(264,0,l)
);
}
);
width = 612;
}
);
unicode = 89;
},
{
color = 4;
glyphname = Yacute;
lastChange = "2024-08-29 02:02:39 +0000";
layers = (
{
background = {
shapes = (
{
closed = 1;
nodes = (
(264,0,l),
(348,0,l),
(348,246,l),
(366,246,l),
(585,700,l),
(491,700,l),
(312,318,l),
(300,318,l),
(121,700,l),
(27,700,l),
(246,246,l),
(264,246,l)
);
},
{
closed = 1;
nodes = (
(336,892,l),
(270,774,l),
(342,774,l),
(426,892,l)
);
}
);
};
guides = (
{
pos = (0,774);
},
{
angle = 90;
pos = (348,0);
},
{
angle = 90;
pos = (312,0);
},
{
angle = 90;
pos = (300,0);
},
{
angle = 90;
pos = (306,0);
},
{
angle = 90;
pos = (246,0);
},
{
angle = 90;
pos = (264,0);
}
);
layerId = "F786B9CF-2625-4E74-A523-7F1B392BEC63";
shapes = (
{
ref = Y;
},
{
pos = (222,204);
ref = acutecomb;
}
);
width = 612;
}
);
unicode = 221;
},
{
color = 4;
glyphname = Ycircumflex;
lastChange = "2024-08-29 02:31:04 +0000";
layers = (
{
associatedMasterId = "F786B9CF-2625-4E74-A523-7F1B392BEC63";
layerId = "60B433FB-7962-4D91-9D7B-25075E58E57A";
name = img;
width = 612;
},
{
background = {
shapes = (
{
closed = 1;
nodes = (
(264,0,l),
(348,0,l),
(348,246,l),
(366,246,l),
(585,700,l),
(491,700,l),
(312,318,l),
(300,318,l),
(121,700,l),
(27,700,l),
(246,246,l),
(264,246,l)
);
},
{
closed = 1;
nodes = (
(448,774,l),
(368,892,l),
(244,892,l),
(164,774,l),
(248,774,l),
(300,862,l),
(312,862,l),
(364,774,l)
);
}
);
};
guides = (
{
pos = (0,774);
}
);
layerId = "F786B9CF-2625-4E74-A523-7F1B392BEC63";
shapes = (
{
ref = Y;
},
{
pos = (-5,204);
ref = circumflexcomb;
}
);
width = 612;
}
);
unicode = 374;
},
{
color = 4;
glyphname = Ydieresis;
lastChange = "2024-08-29 02:59:17 +0000";
layers = (
{
background = {
shapes = (
{
closed = 1;
nodes = (
(264,0,l),
(348,0,l),
(348,246,l),
(366,246,l),
(585,700,l),
(491,700,l),
(312,318,l),
(300,318,l),
(121,700,l),
(27,700,l),
(246,246,l),
(264,246,l)
);
},
{
closed = 1;
nodes = (
(136,810,o),
(168,778,o),
(206,778,cs),
(244,778,o),
(276,810,o),
(276,848,cs),
(276,886,o),
(244,918,o),
(206,918,cs),
(168,918,o),
(136,886,o),
(136,848,cs)
);
},
{
closed = 1;
nodes = (
(336,810,o),
(368,778,o),
(406,778,cs),
(444,778,o),
(476,810,o),
(476,848,cs),
(476,886,o),
(444,918,o),
(406,918,cs),
(368,918,o),
(336,886,o),
(336,848,cs)
);
}
);
};
layerId = "F786B9CF-2625-4E74-A523-7F1B392BEC63";
shapes = (
{
ref = Y;
},
{
pos = (81,0);
ref = dieresiscomb.case;
}
);
width = 612;
}
);
unicode = 376;
},
{
color = 4;
glyphname = Ydotaccent;
lastChange = "2024-08-29 02:44:02 +0000";
layers = (
{
background = {
shapes = (
{
closed = 1;
nodes = (
(264,0,l),
(348,0,l),
(348,246,l),
(366,246,l),
(585,700,l),
(491,700,l),
(312,318,l),
(300,318,l),
(121,700,l),
(27,700,l),
(246,246,l),
(264,246,l)
);
},
{
closed = 1;
nodes = (
(236,806,o),
(268,774,o),
(306,774,cs),
(344,774,o),
(376,806,o),
(376,844,cs),
(376,882,o),
(344,914,o),
(306,914,cs),
(268,914,o),
(236,882,o),
(236,844,cs)
);
}
);
};
guides = (
{
pos = (0,774);
}
);
layerId = "F786B9CF-2625-4E74-A523-7F1B392BEC63";
shapes = (
{
ref = Y;
},
{
pos = (-5,204);
ref = dotaccentcomb;
}
);
width = 612;
}
);
unicode = 7822;
},
{
color = 4;
glyphname = Ydotbelow;
lastChange = "2024-08-29 02:44:02 +0000";
layers = (
{
background = {
shapes = (
{
closed = 1;
nodes = (
(264,0,l),
(348,0,l),
(348,246,l),
(366,246,l),
(585,700,l),
(491,700,l),
(312,318,l),
(300,318,l),
(121,700,l),
(27,700,l),
(246,246,l),
(264,246,l)
);
},
{
closed = 1;
nodes = (
(236,-172,o),
(268,-204,o),
(306,-204,cs),
(344,-204,o),
(376,-172,o),
(376,-134,cs),
(376,-96,o),
(344,-64,o),
(306,-64,cs),
(268,-64,o),
(236,-96,o),
(236,-134,cs)
);
}
);
};
layerId = "F786B9CF-2625-4E74-A523-7F1B392BEC63";
shapes = (
{
ref = Y;
},
{
ref = dotbelowcomb;
}
);
width = 612;
}
);
unicode = 7924;
},
{
color = 4;
glyphname = Ygrave;
lastChange = "2024-08-29 03:04:57 +0000";
layers = (
{
background = {
shapes = (
{
closed = 1;
nodes = (
(264,0,l),
(348,0,l),
(348,246,l),
(366,246,l),
(585,700,l),
(491,700,l),
(312,318,l),
(300,318,l),
(121,700,l),
(27,700,l),
(246,246,l),
(264,246,l)
);
},
{
closed = 1;
nodes = (
(186,892,l),
(270,774,l),
(342,774,l),
(276,892,l)
);
}
);
};
guides = (
{
angle = 90;
pos = (306,0);
}
);
layerId = "F786B9CF-2625-4E74-A523-7F1B392BEC63";
shapes = (
{
ref = Y;
},
{
pos = (133,204);
ref = gravecomb;
}
);
width = 612;
}
);
unicode = 7922;
},
{
color = 4;
glyphname = Yhookabove;
lastChange = "2024-08-29 02:34:06 +0000";
layers = (
{
background = {
shapes = (
{
closed = 1;
nodes = (
(278,750,l),
(258,842,l),
(258,848,l),
(334,848,l),
(338,840,o),
(347,834,o),
(359,834,cs),
(378,834,o),
(394,848,o),
(394,872,cs),
(394,901,o),
(374,914,o),
(354,914,cs),
(325,914,o),
(310,894,o),
(306,874,c),
(258,892,l),
(268,932,o),
(298,962,o),
(355,962,cs),
(407,962,o),
(448,926,o),
(448,871,cs),
(448,825,o),
(418,786,o),
(372,786,cs),
(344,786,o),
(326,798,o),
(318,818,c),
(312,818,l),
(327,750,l)
);
},
{
closed = 1;
nodes = (
(264,0,l),
(348,0,l),
(348,246,l),
(366,246,l),
(585,700,l),
(491,700,l),
(312,318,l),
(300,318,l),
(121,700,l),
(27,700,l),
(246,246,l),
(264,246,l)
);
}
);
};
guides = (
{
angle = 90;
pos = (306,0);
}
);
layerId = "F786B9CF-2625-4E74-A523-7F1B392BEC63";
shapes = (
{
ref = Y;
},
{
pos = (36,204);
ref = hookabovecomb;
}
);
width = 612;
}
);
unicode = 7926;
},
{
color = 4;
glyphname = Ytilde;
lastChange = "2024-08-29 03:20:44 +0000";
layers = (
{
background = {
shapes = (
{
closed = 1;
nodes = (
(264,0,l),
(348,0,l),
(348,246,l),
(366,246,l),
(585,700,l),
(491,700,l),
(312,318,l),
(300,318,l),
(121,700,l),
(27,700,l),
(246,246,l),
(264,246,l)
);
},
{
closed = 1;
nodes = (
(313,889,o),
(295,907,o),
(256,907,cs),
(220,907,o),
(196,888,o),
(177,865,cs),
(136,816,l),
(185,774,l),
(231,827,ls),
(239,836,o),
(245,839,o),
(253,839,cs),
(264,839,o),
(268,833,o),
(277,817,cs),
(299,776,o),
(317,758,o),
(358,758,cs),
(393,758,o),
(417,777,o),
(436,800,cs),
(477,849,l),
(428,891,l),
(380,836,ls),
(374,829,o),
(368,826,o),
(361,826,cs),
(349,826,o),
(344,833,o),
(337,846,cs)
);
}
);
};
guides = (
{
pos = (0,774);
}
);
layerId = "F786B9CF-2625-4E74-A523-7F1B392BEC63";
shapes = (
{
ref = Y;
},
{
pos = (80,204);
ref = tildecomb;
}
);
width = 612;
}
);
unicode = 7928;
},
{
glyphname = Z;
lastChange = "2024-08-29 00:29:19 +0000";
layers = (
{
anchors = (
{
name = bottom;
pos = (306,0);
},
{
name = center;
pos = (306,350);
},
{
name = top;
pos = (306,700);
}
);
background = {
shapes = (
{
closed = 1;
nodes = (
(77,622,l),
(473,622,l),
(473,610,l),
(53,126,l),
(53,0,l),
(557,0,l),
(557,78,l),
(125,78,l),
(125,90,l),
(545,574,l),
(545,700,l),
(77,700,l)
);
}
);
};
layerId = "F786B9CF-2625-4E74-A523-7F1B392BEC63";
shapes = (
{
closed = 1;
nodes = (
(557,0,l),
(557,78,l),
(125,78,l),
(125,90,l),
(545,574,l),
(545,700,l),
(77,700,l),
(77,622,l),
(473,622,l),
(473,610,l),
(53,126,l),
(53,0,l)
);
}
);
width = 612;
}
);
unicode = 90;
},
{
color = 4;
glyphname = Zacute;
lastChange = "2024-08-29 02:02:39 +0000";
layers = (
{
associatedMasterId = "F786B9CF-2625-4E74-A523-7F1B392BEC63";
layerId = "60B433FB-7962-4D91-9D7B-25075E58E57A";
name = img;
width = 612;
},
{
background = {
shapes = (
{
closed = 1;
nodes = (
(77,622,l),
(473,622,l),
(473,610,l),
(53,126,l),
(53,0,l),
(557,0,l),
(557,78,l),
(125,78,l),
(125,90,l),
(545,574,l),
(545,700,l),
(77,700,l)
);
},
{
closed = 1;
nodes = (
(333,892,l),
(267,774,l),
(339,774,l),
(423,892,l)
);
}
);
};
guides = (
{
pos = (0,774);
},
{
angle = 90;
pos = (305,0);
}
);
layerId = "F786B9CF-2625-4E74-A523-7F1B392BEC63";
shapes = (
{
ref = Z;
},
{
pos = (227,204);
ref = acutecomb;
}
);
width = 612;
}
);
unicode = 377;
},
{
color = 4;
glyphname = Zcaron;
lastChange = "2024-08-29 02:16:24 +0000";
layers = (
{
background = {
shapes = (
{
closed = 1;
nodes = (
(77,622,l),
(473,622,l),
(473,610,l),
(53,126,l),
(53,0,l),
(557,0,l),
(557,78,l),
(125,78,l),
(125,90,l),
(545,574,l),
(545,700,l),
(77,700,l)
);
},
{
closed = 1;
nodes = (
(375,892,l),
(323,804,l),
(311,804,l),
(259,892,l),
(175,892,l),
(255,774,l),
(379,774,l),
(459,892,l)
);
}
);
};
guides = (
{
pos = (0,774);
}
);
layerId = "F786B9CF-2625-4E74-A523-7F1B392BEC63";
shapes = (
{
ref = Z;
},
{
pos = (0,204);
ref = caroncomb;
}
);
width = 612;
}
);
unicode = 381;
},
{
color = 4;
glyphname = Zdotaccent;
lastChange = "2024-08-29 02:44:02 +0000";
layers = (
{
associatedMasterId = "F786B9CF-2625-4E74-A523-7F1B392BEC63";
layerId = "60B433FB-7962-4D91-9D7B-25075E58E57A";
name = img;
width = 612;
},
{
background = {
shapes = (
{
closed = 1;
nodes = (
(77,622,l),
(473,622,l),
(473,610,l),
(53,126,l),
(53,0,l),
(557,0,l),
(557,78,l),
(125,78,l),
(125,90,l),
(545,574,l),
(545,700,l),
(77,700,l)
);
},
{
closed = 1;
nodes = (
(248,810,o),
(280,778,o),
(318,778,cs),
(356,778,o),
(388,810,o),
(388,848,cs),
(388,886,o),
(356,918,o),
(318,918,cs),
(280,918,o),
(248,886,o),
(248,848,cs)
);
}
);
};
layerId = "F786B9CF-2625-4E74-A523-7F1B392BEC63";
shapes = (
{
ref = Z;
},
{
pos = (0,204);
ref = dotaccentcomb;
}
);
width = 612;
}
);
unicode = 379;
},
{
color = 4;
glyphname = Zdotbelow;
lastChange = "2024-08-29 02:44:02 +0000";
layers = (
{
background = {
shapes = (
{
closed = 1;
nodes = (
(77,622,l),
(473,622,l),
(473,610,l),
(53,126,l),
(53,0,l),
(557,0,l),
(557,78,l),
(125,78,l),
(125,90,l),
(545,574,l),
(545,700,l),
(77,700,l)
);
},
{
closed = 1;
nodes = (
(236,-172,o),
(268,-204,o),
(306,-204,cs),
(344,-204,o),
(376,-172,o),
(376,-134,cs),
(376,-96,o),
(344,-64,o),
(306,-64,cs),
(268,-64,o),
(236,-96,o),
(236,-134,cs)
);
}
);
};
guides = (
{
pos = (0,-64);
}
);
layerId = "F786B9CF-2625-4E74-A523-7F1B392BEC63";
shapes = (
{
ref = Z;
},
{
ref = dotbelowcomb;
}
);
width = 612;
}
);
unicode = 7826;
},
{
glyphname = B.ss01;
lastChange = "2024-08-29 00:25:29 +0000";
layers = (
{
background = {
shapes = (
{
closed = 1;
nodes = (
(90,0,l),
(325,0,ls),
(459,0,o),
(532,78,o),
(532,183,cs),
(532,195,ls),
(532,270,o),
(480,327,o),
(414,345,c),
(414,357,l),
(480,375,o),
(532,430,o),
(532,506,cs),
(532,518,ls),
(532,622,o),
(459,700,o),
(325,700,cs),
(90,700,l)
);
},
{
closed = 1;
nodes = (
(174,312,l),
(322,312,ls),
(402,312,o),
(452,266,o),
(452,195,cs),
(452,189,ls),
(452,120,o),
(397,78,o),
(319,78,cs),
(174,78,l)
);
},
{
closed = 1;
nodes = (
(174,622,l),
(319,622,ls),
(397,622,o),
(452,580,o),
(452,512,cs),
(452,506,ls),
(452,434,o),
(402,390,o),
(322,390,cs),
(174,390,l)
);
}
);
};
layerId = "F786B9CF-2625-4E74-A523-7F1B392BEC63";
shapes = (
{
closed = 1;
nodes = (
(90,0,l),
(325,0,ls),
(459,0,o),
(532,78,o),
(532,183,cs),
(532,195,ls),
(532,270,o),
(480,327,o),
(414,345,c),
(414,357,l),
(480,375,o),
(532,430,o),
(532,506,cs),
(532,518,ls),
(532,622,o),
(459,700,o),
(325,700,cs),
(90,700,l)
);
},
{
closed = 1;
nodes = (
(174,312,l),
(322,312,ls),
(402,312,o),
(452,266,o),
(452,195,cs),
(452,189,ls),
(452,120,o),
(397,78,o),
(319,78,cs),
(174,78,l)
);
},
{
closed = 1;
nodes = (
(174,622,l),
(319,622,ls),
(397,622,o),
(452,580,o),
(452,512,cs),
(452,506,ls),
(452,434,o),
(402,390,o),
(322,390,cs),
(174,390,l)
);
}
);
width = 612;
}
);
},
